<svg cache-id="9a783de7220749de83f5936718a22d78" id="eS2e18UK7531" xmlns="http://www.w3.org/2000/svg" xmlns:xlink="http://www.w3.org/1999/xlink" viewBox="0 0 1080.48 1435.68" shape-rendering="geometricPrecision" text-rendering="geometricPrecision"><style><![CDATA[#eS2e18UK75385 {animation: eS2e18UK75385__m 7000ms linear infinite normal forwards}@keyframes eS2e18UK75385__m { 0% {d: path('M467.61,848.25C469.13,834.27,470.05,791.98,470.05,791.98L495.75,841.23L492.656977,776.430002L506.090001,791.980001L537.99,791.98L489.34,673.46C486.17,665.75,480.01,659.66,472.27,656.57L398.33,627.1C398.33,627.1,398.9,704.13,396.97,728.74C395.45,748.02,386.67,853.62,386.67,853.62C386.67,853.62,373.56,755.41,369.2,735.41C363.36,708.69,343.72,618.94,343.72,618.94L265.48,652.49C257.34,655.98,251.06,662.79,248.24,671.19L191.11,841.23C190.27,843.74,190.19,846.28,190.71,848.65C189.79,831.44,246,817.7,259.79,814.6L277.9,770.76C277.9,770.76,276.7,788,275.32,812.56L272.41,873.74C271.09,909.68,270.56,945.8,272.59,965.04C276.91,1006.04,384.06,1159.32,384.06,1159.32C384.06,1159.32,384.57,1127.5,393.94,1098C398.14,1084.73,404.15,1071.94,412.72,1062.71C426.04,1048.37,472.17,1028.74,472.17,1028.74L447.57,987.47C442.05,978.2,435.51,969.58,428.08,961.77L398.92,931.07L544.36,1001.14C544.36,1001.14,553.46,985.35,570.9,988.4C586.9,991.19,608.06,989.46,608.06,989.46L468.99,906.65C468.99,906.65,464.74,874.8,467.61,848.26Z')} 34.285714% {d: path('M467.61,848.25C469.13,834.27,470.05,791.98,470.05,791.98L495.75,841.23L492.656977,776.430002L506.090001,791.980001L537.99,791.98L489.34,673.46C486.17,665.75,480.01,659.66,472.27,656.57L398.33,627.1C398.33,627.1,398.9,704.13,396.97,728.74C395.45,748.02,386.67,853.62,386.67,853.62C386.67,853.62,373.56,755.41,369.2,735.41C363.36,708.69,343.72,618.94,343.72,618.94L265.48,652.49C257.34,655.98,251.06,662.79,248.24,671.19L191.11,841.23C190.27,843.74,190.19,846.28,190.71,848.65C189.79,831.44,246,817.7,259.79,814.6L277.9,770.76C277.9,770.76,276.7,788,275.32,812.56L272.41,873.74C271.09,909.68,270.56,945.8,272.59,965.04C276.91,1006.04,384.06,1159.32,384.06,1159.32C384.06,1159.32,384.57,1127.5,393.94,1098C398.14,1084.73,404.15,1071.94,412.72,1062.71C426.04,1048.37,472.17,1028.74,472.17,1028.74L447.57,987.47C442.05,978.2,435.51,969.58,428.08,961.77L398.92,931.07L544.36,1001.14C544.36,1001.14,553.46,985.35,570.9,988.4C586.9,991.19,608.06,989.46,608.06,989.46L468.99,906.65C468.99,906.65,464.74,874.8,467.61,848.26Z')} 37.142857% {d: path('M467.61,848.25C469.13,834.27,470.05,791.98,470.05,791.98L498.053855,840.601671L492.656977,776.430002L506.090001,791.980001L537.99,791.98L489.34,673.46C486.17,665.75,480.01,659.66,472.27,656.57L398.33,627.1C398.33,627.1,398.9,704.13,396.97,728.74C395.45,748.02,386.67,853.62,386.67,853.62C386.67,853.62,373.56,755.41,369.2,735.41C363.36,708.69,343.72,618.94,343.72,618.94L265.48,652.49C257.34,655.98,251.06,662.79,248.24,671.19L191.11,841.23C190.27,843.74,190.19,846.28,190.71,848.65C189.79,831.44,246,817.7,259.79,814.6L277.9,770.76C277.9,770.76,276.7,788,275.32,812.56L272.41,873.74C271.09,909.68,270.56,945.8,272.59,965.04C276.91,1006.04,384.06,1159.32,384.06,1159.32C384.06,1159.32,384.57,1127.5,393.94,1098C398.14,1084.73,404.15,1071.94,412.72,1062.71C426.04,1048.37,472.17,1028.74,472.17,1028.74L447.57,987.47C442.05,978.2,435.51,969.58,428.08,961.77L398.92,931.07L544.36,1001.14C544.36,1001.14,553.46,985.35,570.9,988.4C586.9,991.19,608.06,989.46,608.06,989.46L468.99,906.65C468.99,906.65,464.74,874.8,467.61,848.26Z')} 92.857143% {d: path('M467.61,848.25C469.13,834.27,470.05,791.98,470.05,791.98L498.053855,840.601671L492.656977,776.430002L506.090001,791.980001L537.99,791.98L489.34,673.46C486.17,665.75,480.01,659.66,472.27,656.57L398.33,627.1C398.33,627.1,398.9,704.13,396.97,728.74C395.45,748.02,386.67,853.62,386.67,853.62C386.67,853.62,373.56,755.41,369.2,735.41C363.36,708.69,343.72,618.94,343.72,618.94L265.48,652.49C257.34,655.98,251.06,662.79,248.24,671.19L191.11,841.23C190.27,843.74,190.19,846.28,190.71,848.65C189.79,831.44,246,817.7,259.79,814.6L277.9,770.76C277.9,770.76,276.7,788,275.32,812.56L272.41,873.74C271.09,909.68,270.56,945.8,272.59,965.04C276.91,1006.04,384.06,1159.32,384.06,1159.32C384.06,1159.32,384.57,1127.5,393.94,1098C398.14,1084.73,404.15,1071.94,412.72,1062.71C426.04,1048.37,472.17,1028.74,472.17,1028.74L447.57,987.47C442.05,978.2,435.51,969.58,428.08,961.77L398.92,931.07L544.36,1001.14C544.36,1001.14,553.46,985.35,570.9,988.4C586.9,991.19,608.06,989.46,608.06,989.46L468.99,906.65C468.99,906.65,464.74,874.8,467.61,848.26Z')} 100% {d: path('M467.61,848.25C469.13,834.27,470.05,791.98,470.05,791.98L495.75,841.23L492.656977,776.430002L506.090001,791.980001L537.99,791.98L489.34,673.46C486.17,665.75,480.01,659.66,472.27,656.57L398.33,627.1C398.33,627.1,398.9,704.13,396.97,728.74C395.45,748.02,386.67,853.62,386.67,853.62C386.67,853.62,373.56,755.41,369.2,735.41C363.36,708.69,343.72,618.94,343.72,618.94L265.48,652.49C257.34,655.98,251.06,662.79,248.24,671.19L191.11,841.23C190.27,843.74,190.19,846.28,190.71,848.65C189.79,831.44,246,817.7,259.79,814.6L277.9,770.76C277.9,770.76,276.7,788,275.32,812.56L272.41,873.74C271.09,909.68,270.56,945.8,272.59,965.04C276.91,1006.04,384.06,1159.32,384.06,1159.32C384.06,1159.32,384.57,1127.5,393.94,1098C398.14,1084.73,404.15,1071.94,412.72,1062.71C426.04,1048.37,472.17,1028.74,472.17,1028.74L447.57,987.47C442.05,978.2,435.51,969.58,428.08,961.77L398.92,931.07L544.36,1001.14C544.36,1001.14,553.46,985.35,570.9,988.4C586.9,991.19,608.06,989.46,608.06,989.46L468.99,906.65C468.99,906.65,464.74,874.8,467.61,848.26Z')}} #eS2e18UK753134_ts {animation: eS2e18UK753134_ts__ts 7000ms linear infinite normal forwards}@keyframes eS2e18UK753134_ts__ts { 0% {transform: translate(421.790024px,551.140015px) scale(1,1)} 18.571429% {transform: translate(421.790024px,551.140015px) scale(1,1)} 21.428571% {transform: translate(421.790024px,551.140015px) scale(1,0.073663)} 24.285714% {transform: translate(421.790024px,551.140015px) scale(1,1)} 50% {transform: translate(421.790024px,551.140015px) scale(1,1)} 52.857143% {transform: translate(421.790024px,551.140015px) scale(1,0.073663)} 55.714286% {transform: translate(421.790024px,551.140015px) scale(1,1)} 92.857143% {transform: translate(421.790024px,551.140015px) scale(1,1)} 100% {transform: translate(421.790024px,551.140015px) scale(1,1)}} #eS2e18UK753135_ts {animation: eS2e18UK753135_ts__ts 7000ms linear infinite normal forwards}@keyframes eS2e18UK753135_ts__ts { 0% {transform: translate(389.360001px,552.340027px) scale(1,1)} 18.571429% {transform: translate(389.360001px,552.340027px) scale(1,1)} 21.428571% {transform: translate(389.360001px,552.340027px) scale(1,0.085254)} 24.285714% {transform: translate(389.360001px,552.340027px) scale(1,1)} 50% {transform: translate(389.360001px,552.340027px) scale(1,1)} 52.857143% {transform: translate(389.360001px,552.340027px) scale(1,0.085254)} 55.714286% {transform: translate(389.360001px,552.340027px) scale(1,1)} 92.857143% {transform: translate(389.360001px,552.340027px) scale(1,1)} 100% {transform: translate(389.360001px,552.340027px) scale(1,1)}} #eS2e18UK753140_tr {animation: eS2e18UK753140_tr__tr 7000ms linear infinite normal forwards}@keyframes eS2e18UK753140_tr__tr { 0% {transform: translate(190.269957px,740.043094px) rotate(0.343011deg)} 2.857143% {transform: translate(190.269957px,740.043094px) rotate(0.343011deg)} 7.142857% {transform: translate(190.269957px,740.043094px) rotate(3.978029deg)} 25.714286% {transform: translate(190.269957px,740.043094px) rotate(3.978029deg)} 28.571429% {transform: translate(190.269957px,740.043094px) rotate(1.568308deg)} 71.428571% {transform: translate(190.269957px,740.043094px) rotate(3.978029deg)} 74.285714% {transform: translate(190.269957px,740.043094px) rotate(1.568308deg)} 92.857143% {transform: translate(190.269957px,740.043094px) rotate(1.568308deg)} 100% {transform: translate(190.269957px,740.043094px) rotate(0.343011deg)}} #eS2e18UK753153_tr {animation: eS2e18UK753153_tr__tr 7000ms linear infinite normal forwards}@keyframes eS2e18UK753153_tr__tr { 0% {transform: translate(477.559129px,775.82px) rotate(0deg)} 34.285714% {transform: translate(477.559129px,775.82px) rotate(0deg)} 37.142857% {transform: translate(477.559129px,775.82px) rotate(-2.650275deg)} 44.285714% {transform: translate(477.559129px,775.82px) rotate(-2.650275deg)} 45.714286% {transform: translate(477.559129px,775.82px) rotate(-1.483008deg)} 54.285714% {transform: translate(477.559129px,775.82px) rotate(-1.483008deg)} 92.857143% {transform: translate(477.559129px,775.82px) rotate(-1.483008deg)} 100% {transform: translate(477.559129px,775.82px) rotate(0deg)}} #eS2e18UK753161 {animation: eS2e18UK753161_c_o 7000ms linear infinite normal forwards}@keyframes eS2e18UK753161_c_o { 0% {opacity: 1} 78.571429% {opacity: 1} 85.714286% {opacity: 1} 92.857143% {opacity: 1} 100% {opacity: 1}} #eS2e18UK753176 {animation: eS2e18UK753176_c_o 7000ms linear infinite normal forwards}@keyframes eS2e18UK753176_c_o { 0% {opacity: 1} 57.142857% {opacity: 1} 64.285714% {opacity: 0} 92.857143% {opacity: 0} 100% {opacity: 1}} #eS2e18UK753188 {animation: eS2e18UK753188_c_o 7000ms linear infinite normal forwards}@keyframes eS2e18UK753188_c_o { 0% {opacity: 1} 35.714286% {opacity: 1} 42.857143% {opacity: 0} 92.857143% {opacity: 0} 100% {opacity: 1}} #eS2e18UK753200 {animation: eS2e18UK753200_c_o 7000ms linear infinite normal forwards}@keyframes eS2e18UK753200_c_o { 0% {opacity: 1} 14.285714% {opacity: 1} 21.428571% {opacity: 0} 92.857143% {opacity: 0} 100% {opacity: 1}}]]></style><defs><linearGradient id="eS2e18UK75385-fill" x1="386.81" y1="691.61" x2="428.22" y2="1038.8" spreadMethod="pad" gradientUnits="userSpaceOnUse" gradientTransform="translate(0 0)"><stop id="eS2e18UK75385-fill-0" offset="0%" stop-color="#dce9ff"/><stop id="eS2e18UK75385-fill-1" offset="100%" stop-color="#b6d2ff"/></linearGradient><linearGradient id="eS2e18UK753149-fill" x1="294.99" y1="835.95" x2="27.8" y2="873.6" spreadMethod="pad" gradientUnits="userSpaceOnUse" gradientTransform="translate(0 0)"><stop id="eS2e18UK753149-fill-0" offset="0%" stop-color="#dce9ff"/><stop id="eS2e18UK753149-fill-1" offset="100%" stop-color="#b6d2ff"/></linearGradient><linearGradient id="eS2e18UK753157-fill" x1="-18.07" y1="-12.78" x2="116.24" y2="177.9" spreadMethod="pad" gradientUnits="userSpaceOnUse" gradientTransform="translate(0 0)"><stop id="eS2e18UK753157-fill-0" offset="0%" stop-color="#dce9ff"/><stop id="eS2e18UK753157-fill-1" offset="100%" stop-color="#b6d2ff"/></linearGradient></defs><g><g clip-path="url(#eS2e18UK753151)"><g><g><rect width="1080" height="1435.68" rx="0" ry="0" transform="translate(.11 0)" fill="#5f683c"/><polygon points="330.4,172.01 345.19,235.68 352.15,1128.34 331.68,1128.34 330.4,172.01" fill="#5a603a"/><polygon points="-5.89,1190.66 371.87,1126.62 1101.74,1126.62 1101.74,1455 -5.89,1455 -5.89,1190.66" fill="#babab9"/><polygon points="423.92,112.01 423.92,1126.62 1101.74,1126.62 1118.4,112.01 423.92,112.01" fill="#707a49"/><g><polygon points="1106.89,506.02 528.96,501.36 501.69,485.16 501.45,475.75 1116.33,475.75 1106.89,506.02" fill="#5a603a"/><polygon points="711.26,485.16 501.69,485.16 502.2,141.58 711.76,141.58 711.26,485.16" fill="#d5e0e7"/><polygon points="711.26,485.16 719.89,485.16 720.4,141.58 711.76,141.58 711.26,485.16" fill="#a3bfce"/><polygon points="928.72,485.16 719.16,485.16 719.66,141.58 929.23,141.58 928.72,485.16" fill="#d5e0e7"/><polygon points="927.72,485.16 936.35,485.16 936.86,141.58 928.22,141.58 927.72,485.16" fill="#a3bfce"/><polygon points="1145.18,485.16 935.62,485.16 936.12,141.58 1145.69,141.58 1145.18,485.16" fill="#d5e0e7"/><circle r="10.73" transform="translate(679.29 444.37)" fill="#a3bfce"/><circle r="10.73" transform="translate(746.82 444.37)" fill="#a3bfce"/><circle r="10.73" transform="translate(968.73 444.37)" fill="#a3bfce"/></g><g><polygon points="0.11,25.82 330.4,219.16 330.4,1140.6 0.11,1201.04 0.11,25.82" fill="#faf7f3"/><polygon points="56.82,59.02 56.82,1190.66 79.51,1186.51 68.15,65.65 56.82,59.02" fill="#e2e0cc"/><polygon points="119.26,95.57 130.27,1177.22 145.25,1174.48 132.25,103.17 119.26,95.57" fill="#e2e0cc"/><polygon points="187.28,135.38 201.75,143.85 201.75,1164.03 187.28,1166.79 187.28,135.38" fill="#e2e0cc"/><polygon points="260.81,178.43 251.57,1155.02 274.25,1150.87 285.08,192.64 260.81,178.43" fill="#e2e0cc"/><polygon points="316.79,211.2 316.79,1143.09 330.4,1140.6 330.4,219.16 316.79,211.2" fill="#e2e0cc"/><polygon points="0.11,-3.18 330.4,194.25 330.4,172.01 0.11,-21.81 0.11,-3.18" fill="#f0f0de"/><polygon points="0.11,4.86 330.4,205.38 330.4,194.25 0.11,-3.18 0.11,4.86" fill="#c4c1ad"/><polygon points="0.11,4.86 0.11,25.82 330.4,219.16 330.4,205.38 0.11,4.86" fill="#f0f0de"/><polygon points="17,14.45 17,34.96 20.82,37.19 20.82,16.76 17,14.45" fill="#c4c1ad"/><polygon points="58.3,39.35 58.3,59.42 62.11,61.65 62.11,41.64 58.3,39.35" fill="#c4c1ad"/><polygon points="99.78,64.53 99.78,83.99 103.59,86.22 103.59,66.84 99.78,64.53" fill="#c4c1ad"/><polygon points="144.16,91.25 144.16,110.27 147.97,112.5 147.97,93.57 144.16,91.25" fill="#c4c1ad"/><polygon points="189.68,119.89 189.68,136.79 193.49,139.23 193.49,122.21 189.68,119.89" fill="#c4c1ad"/><polygon points="235.7,147.84 235.7,163.73 239.52,165.96 239.52,150.15 235.7,147.84" fill="#c4c1ad"/><polygon points="279.98,174.71 279.98,189.65 283.8,191.88 283.8,177.02 279.98,174.71" fill="#c4c1ad"/><polygon points="320.81,199.23 320.81,213.55 324.63,215.78 324.63,201.55 320.81,199.23" fill="#c4c1ad"/></g><polygon points="169.66,-64.47 423.92,112.01 1088.52,112.01 1085.01,-64.47 169.66,-64.47" fill="#7b8455"/><polygon points="502.2,141.58 557.96,134.89 1145.69,134.89 1145.69,141.58 502.2,141.58" fill="#a3bfce"/><polygon points="74.22,1330.98 86.49,1324.92 249.75,1379.12 248.96,1393.92 74.22,1330.98" fill="#9e928d"/><rect width="1080.48" height="1435.68" rx="0" ry="0" transform="translate(.11 0)" fill="none"/><polyline points="348.08,541.72 353.85,550.53 344.01,552.08" fill="none" stroke="#231f20" stroke-width="0.9" stroke-linecap="round" stroke-linejoin="round"/><polygon points="566.13,1270.25 566.13,1313.77 611.78,1313.77 608.65,1285.67 606.47,1266 566.13,1270.25" fill="#fcb9c0"/><path d="M610.71,1303.16c0,0-23.36,24.42-44.59-5.31l-7.43,45.65h110.84c4.78,0,6.45-6.34,2.29-8.69l-61.11-31.65Z" fill="#0c2f3d"/><polygon points="422.81,1270.25 422.81,1313.77 468.46,1313.77 465.56,1287.71 463.15,1266 422.81,1270.25" fill="#fcb9c0"/><path d="M467.39,1303.16c0,0-23.36,24.42-44.59-5.31l-7.43,45.65h110.84c4.78,0,6.45-6.34,2.29-8.69l-61.11-31.65Z" fill="#0c2f3d"/><polygon points="566.13,1270.25 566.13,1295.74 608.65,1285.67 606.47,1266 566.13,1270.25" opacity="0.1"/><polygon points="422.81,1270.25 422.81,1298.29 465.56,1287.71 463.15,1266 422.81,1270.25" opacity="0.1"/><g><g><rect width="9.33" height="124.4" rx="0" ry="0" transform="translate(412.72 1055.44)" fill="#cbcfd4"/><rect width="9.33" height="147.83" rx="0" ry="0" transform="translate(391.57 1052.33)" fill="#707774"/><polygon points="394.93,1173.63 301.38,1219.02 301.38,1228.35 396.39,1198.62 394.93,1173.63" fill="#707774"/><polygon points="409.61,1179.84 524.68,1224 519.7,1228.35 409.61,1199.71 409.61,1179.84" fill="#707774"/><g><polygon points="417.03,1165.57 507.19,1141.18 506.09,1146.07 427.87,1180.42 417.03,1165.57" fill="#707774"/><polygon points="416.51,1154.87 507.1,1133.07 507.19,1141.18 417.03,1165.57 416.51,1154.87" fill="#cbcfd4"/><circle r="16.82" transform="matrix(.789406-.613872 0.613872 0.789406 510.729098 1148.869707)" fill="#808985"/><circle r="15.91" transform="matrix(.789406-.613872 0.613872 0.789406 507.626791 1151.405873)" fill="#686d6b"/></g><polygon points="417.39,1168.02 530.9,1215.29 524.68,1224 409.61,1179.84 417.39,1168.02" fill="#cbcfd4"/><circle r="16.68" transform="translate(519.44 1228.35)" fill="#808985"/><circle r="15.78" transform="translate(515.49 1228.57)" fill="#686d6b"/><rect width="11.82" height="145" rx="0" ry="0" transform="translate(400.9 1055.15)" fill="#959ba1"/><polygon points="391.57,1165.57 301.38,1210.42 301.38,1219.02 394.93,1173.63 391.57,1165.57" fill="#cbcfd4"/><circle r="16.68" transform="translate(301.71 1228.35)" fill="#808985"/><circle r="15.78" transform="translate(297.76 1228.57)" fill="#686d6b"/><polygon points="391.57,1158.4 310.13,1138.36 306.23,1141.78 392.69,1162.37 391.57,1158.4" fill="#cbcfd4"/><polygon points="303.51,1144.32 306.23,1141.78 396.34,1163.82 377.18,1172.73 303.51,1144.32" fill="#707774"/><circle r="12.07" transform="translate(305.13 1150.37)" fill="#808985"/><circle r="11.42" transform="translate(307.99 1150.52)" fill="#686d6b"/></g><path d="M429.37,1096.5c0,0,3.65,18.39,26.22,14.78s194.27-98.33,194.27-98.33s10.13-10.57-4.52-21c-14.66-10.43-38.74-3.63-38.74-3.63s-190.89,98.64-177.23,108.18Z" fill="#273138"/><path d="M177.83,643.62c0,0,17.55-31.4,44.63-39.02s46.64,5.61,46.64,5.61l-45.64,49.16-17.08-6.54-28.55-9.21Z" fill="#20282d"/><path d="M357.51,602.24c0,0,27.15,4.64,32.72,26.4s2.26,30.74,2.26,30.74l-105.42,3.78-81.78-3.78l22.22-57.14l61.45-15.66l68.54,15.66Z" fill="#20282d"/><path d="M187.75,617.99l-6.76-107.93h214.36c0,0,26.3,48.92,3.25,101.99l-210.85,5.94Z" fill="#39464e"/><path d="M180.99,510.06c0,0-32.23,22.49-4.5,107.93l29.23-4.5c0,0,20.24-82.45-24.73-103.43Z" fill="#273138"/><path d="M217.01,657.04c0,0,9.14-21.71,28.03-29s136.59-3.72,136.59-3.72s10.07-2.69,16.84,22.22c6.77,24.9,40.62,299.62,40.62,299.62l-187.01,15.6-35.07-304.72Z" fill="#39464e"/><path d="M210.26,938.77L176.78,655.56c0,0-3.6-16.75,10.96-19.15c14.56-2.39,26.53-.8,31.32,15.16s38.29,295.98,38.29,295.98s3.29,15.31-12.56,16.16-24.06,1.7-24.06,1.7-9.62.57-9.91-11.89c-.28-12.45-.57-14.75-.57-14.75Z" fill="#273138"/><path d="M212.4,960.43c0,0,2.16,60.65,6.92,73.91s219.03,64.32,219.03,64.32s68.48-29.63,99.43-41.1c33.41-12.38,91.86-46.47,91.86-46.47s31.36-11.79,8.09-26.37-198.66-38.57-198.66-38.57L212.38,960.42Z" fill="#39464e"/><path d="M233.95,959.08c0,0,131.18,95.66,171.46,117.19s37.13,35.02,37.13,35.02-28.57-13.9-58.14-15.78-135.6-44.44-164.25-60.07c0,0-9.36-.54-7.76-75.01c0,0-6.41-5.67,21.55-1.36Z" fill="#273138"/><path d="M257.58,952.19c0,0,152.37-16.67,181.51-6.02l11.1,1.23-177.72,12.87-16.99-3l2.1-5.09Z" fill="#20282d"/></g><polygon points="86.49,1324.92 108.22,928.32 92.83,924.32 74.22,1330.98 86.49,1324.92" fill="#9e928d"/><path d="M348.34,563.92c-5.79-5.09-11.75-14.92-8.74-23.8c1.59-4.68,4.19-6.44,6.95-6.53c1.28-19.48,8.51-38.9,31.64-41.72c48.29-5.87,65.78,30.9,58.22,67.59-7.55,36.69.22,53.03-41.13,57.51l-2.8,76.83-58.96-10.25l17.3-107.52c0,0-1.28-4.81-2.48-12.12Z" fill="#fcccb1"/><path d="M613.37,1284.58h-70.07L526.31,1048.9L321.42,961.85v-60.51h111.47l170.55,86.19c16.34,8.26,26.21,25.43,25.11,43.71l-15.18,253.35Z" fill="#904a1e"/><path d="M475.89,1285.64h-70.07l-5.31-229.31c0,0-90.24-36.1-113.59-58.39c0,0-19.11-16.99,0-91.3h50.96L472.7,988.43c14.99,9.09,23.6,25.83,22.28,43.31l-19.09,253.9Z" fill="#904a1e"/><path id="eS2e18UK75385" d="M467.61,848.25c1.52-13.98,2.44-56.27,2.44-56.27l25.7,49.25-3.093023-64.799998l13.433024,15.549999L537.99,791.98L489.34,673.46c-3.17-7.71-9.33-13.8-17.07-16.89L398.33,627.1c0,0,.57,77.03-1.36,101.64-1.52,19.28-10.3,124.88-10.3,124.88s-13.11-98.21-17.47-118.21c-5.84-26.72-25.48-116.47-25.48-116.47l-78.24,33.55c-8.14,3.49-14.42,10.3-17.24,18.7L191.11,841.23c-.84,2.51-.92,5.05-.4,7.42-.92-17.21,55.29-30.95,69.08-34.05l18.11-43.84c0,0-1.2,17.24-2.58,41.8l-2.91,61.18c-1.32,35.94-1.85,72.06.18,91.3c4.32,41,111.47,194.28,111.47,194.28s.51-31.82,9.88-61.32c4.2-13.27,10.21-26.06,18.78-35.29c13.32-14.34,59.45-33.97,59.45-33.97l-24.6-41.27c-5.52-9.27-12.06-17.89-19.49-25.7l-29.16-30.7l145.44,70.07c0,0,9.1-15.79,26.54-12.74c16,2.79,37.16,1.06,37.16,1.06L468.99,906.65c0,0-4.25-31.85-1.38-58.39Z" fill="url(#eS2e18UK75385-fill)"/><path d="M274.8,821.79c1.58-29.36,3.09-51.04,3.09-51.04l-18.11,43.84c1.93-.43,3.03-.66,3.03-.66s-1.1.23-3.03.66l-2.06,4.99l17.08,2.21Z" fill="none"/><path d="M365.29,598.36c0,0-1.88,8.98,30,18.61" fill="none" stroke="#231f20" stroke-width="0.9" stroke-linecap="round" stroke-linejoin="round"/><path d="M356.08,567.16c2.98-2.95,3.11-14.93,1.99-24.36-.47-3.99-8.46-11.53-14.21-8.5-2.91-19.61-1.5-41.85,18.65-45.18c7.07-15.38,21.46-10.64,29.7-8.27c25.56,7.36,33.62,8.2,44.72,2.77c8.16-3.99,15.37-1.64,16.25,3.69c1.58,9.59-3.94,14.29-3.94,14.29c9.5,3.46,9.36,10.05,8.63,14.12-1.88,10.56-8.39,14.53-16.68,14.84-1.37,6.39-3.65,12.48-3.61,14.52c0,0-.13-7.13-2.13-14.81-19.94-2.59-45.62-20.11-45.62-20.11c2.46,8.94-15.1,11.71-21.71,12.44-.82,3.73-1.84,9.33-2.36,15.93c0,0,.66,17.5-2.81,22.2c0,0-7.9,7.47-6.85,6.43Z" fill="#e1912b"/><path d="M389.36,876.91L335.33,627.79l1.06-2.54c0,0,12.65,28.25,40.23,29.79c19.11,1.06,22.76-23.88,22.76-23.88l-1.06,28.13c0,0,.44,56.13-.83,74.84-1.5,22.16-8.13,142.79-8.13,142.79Z" fill="#9cc1cd"/><rect width="2.12" height="80.63" rx="0" ry="0" transform="matrix(.990073-.140556 0.140556 0.990073 386.484949 852.459822)" fill="#0c2f3d"/><path d="M388.51,865.16l37.1-175.7-16.06-7.56l20.35-4.85-.22-1.01c-.03-.15-3.28-15.14-9.23-26.37-5.67-10.73-15.11-19.47-15.51-19.84l-1.44,1.56c.09.09,9.57,8.87,15.07,19.27c4.92,9.31,7.97,21.29,8.8,24.81l-24.22,5.77l20.03,9.43-35.09,166.15c-4.48-14.11-20.1-63.14-26.68-81.13-7.53-20.59-31.98-79.9-35.42-88.24l21.2-8.93-27.7-15.51c.95-3.2,4.65-15.16,8.62-22.33c4.6-8.3,17.11-19.79,17.23-19.91l-1.43-1.57c-.52.48-12.89,11.84-17.66,20.45-4.71,8.51-8.87,22.97-9.04,23.58l-.23.81l25.38,14.21-19.14,8.06.4.98c.28.67,27.74,67.12,35.79,89.14c7.67,20.97,27.67,84.25,27.87,84.88l1.22,3.85Z" fill="#0c2f3d"/><path d="M380.47,658.07l9.96-7.28l18.05,21.23c0,0,3.71-37.65-12.74-47.77l-15.92,29.73c0,0-28.66-9.55-35.03-35.03c0,0-12.74,28.66,5.69,53.08l16.6-18.68l13.4,4.72Z" fill="#123245"/><path d="M455.18,767.64c2.21-63.13-13.96-98.93-27.92-117.85-15.3-20.74-31.06-26.27-31.72-26.5l-1.37,4.02.68-2.01-.69,2.01c.15.05,15.37,5.47,29.89,25.29c13.46,18.38,29.05,53.23,26.89,114.9l4.24.15Z" fill="#0c2f3d"/><circle r="12.34" transform="translate(452.66 769.03)" fill="#a0a0a0"/><circle r="6.79" transform="translate(452.66 769.03)" fill="#123245"/><path d="M386.18,831.29l2.12-.04c-.03-1.3-2.79-130.27-6.69-174.81l-2.11.18c3.89,44.47,6.65,173.37,6.68,174.67Z" fill="#0c2f3d"/><circle r="2.12" transform="translate(388.3 667.77)" fill="#0c2f3d"/><circle r="2.12" transform="translate(389.36 695.38)" fill="#0c2f3d"/><circle r="2.12" transform="translate(390.43 721.92)" fill="#0c2f3d"/><rect width="51.67" height="2.12" rx="0" ry="0" transform="matrix(.006807-.999977 0.999977 0.006807 468.614344 813.887595)" fill="#0c2f3d"/><rect width="2.12" height="88.05" rx="0" ry="0" transform="matrix(.928421-.37153 0.37153 0.928421 511.764442 730.761882)" fill="#0c2f3d"/><g><g><polygon points="821.49,1303.14 647.19,1250.87 652.12,935.96 829.44,939.79 821.49,1303.14" fill="#e2dbd7"/><polygon points="821.49,1303.14 1024.81,1270.24 1035.01,925.7 829.44,939.79 821.49,1303.14" fill="#9e928d"/></g><polygon points="253.1,1399.94 69.69,1334.05 69.78,1332.38 88.74,919.54 93.13,919.78 74.27,1330.96 249.02,1393.9 273.45,935.37 277.85,935.61 253.1,1399.94" fill="#e2dbd7"/><g><polygon points="1060.44,930.74 293.33,976.42 61.56,916.15 63.92,900.14 738.66,877.35 1062.79,914.74 1060.44,930.74" fill="#897d77"/><polygon points="1062.79,914.74 295.69,960.41 63.92,900.14 741.02,861.34 1062.79,914.74" fill="#cfc5c0"/></g><polygon points="650.75,955.14 824.49,1156.8 829.23,944.24 650.75,955.14" fill="#cfc5c0"/><polygon points="284.66,974.16 263.95,1390.36 253.1,1399.94 275.92,971.89 284.66,974.16" fill="#9e928d"/></g><g><polygon points="811.65,726.97 846.18,738.52 893.93,894.59 844.62,867.5 811.65,726.97" fill="#895a49"/><polygon points="893.88,900.13 760.56,916.15 701.14,891.83 701.19,886.29 844.57,873.04 893.93,894.59 893.88,900.13" fill="#895a49"/><polygon points="893.93,894.59 760.62,910.61 701.19,886.29 844.62,867.5 893.93,894.59" fill="#a7735d"/></g><polygon points="860.68,909.1 850.48,909.1 686.17,824.91 723.13,564.01 919.97,505.54 928.89,511 860.68,909.1" fill="#a7735d"/><polygon points="850.48,909.1 677.09,823.7 723.13,564.01 919.97,505.54 850.48,909.1" transform="translate(-.97 0)" fill="#d5a48e"/><g><g><polygon points="201.75,909.41 294.66,891.21 447.18,897.61 375.59,916.21 201.75,909.41" fill="#fff"/><path d="M294.65,891.65l149.62,6.27-68.72,17.85-170.09-6.65l89.19-17.48v0Zm-.07-.87L198.04,909.7l177.6,6.95l74.45-19.34-155.5-6.52v0Z" fill="#897d77"/></g><g><polygon points="163.68,910.64 288.99,901.71 447.04,924.37 321.02,939.65 163.68,910.64" fill="#fff"/><path d="M288.93,902.15l154.82,22.18-122.72,14.88-153.94-28.38l121.83-8.68v0Zm.03-.87l-128.69,9.17l160.74,29.64l129.33-15.68-161.38-23.12v0Z" fill="#897d77"/></g></g><g><polygon points="495.26,917.76 495.75,913.27 690.84,876.59 690.35,881.08 573.9,928.79 495.26,917.76" fill="#897d77"/><polygon points="495.75,913.27 624.76,870.65 690.84,876.59 574.39,924.3 495.75,913.27" fill="#f8e8e2"/></g><path d="M315.21,806.64l13.77-4.08c6.18-1.83,9.87-8.18,8.4-14.45l-10.99-46.83-4.07.96l10.99,46.83c.97,4.12-1.45,8.29-5.51,9.49l-13.77,4.08l1.19,4.01Z" fill="#a0a0a0"/><path d="M291.26,809.94l-14.36-.2c-6.45-.09-11.71-5.2-12-11.64l-2.1-48.06l4.18-.18l2.1,48.06c.18,4.23,3.64,7.58,7.87,7.64l14.36.2-.06,4.18Z" fill="#a0a0a0"/><rect width="11.36" height="7.77" rx="3.88" ry="3.88" transform="matrix(.964971-.262358 0.262358 0.964971 307.17378 802.536681)" fill="#123245"/><rect width="11.36" height="7.77" rx="3.88" ry="3.88" transform="matrix(.999963-.008552 0.008552 0.999963 286.43397 803.900454)" fill="#123245"/><path d="M271.22,718.76c4.61-5.71,10.99-9.39,18.16-10.54-.53-40.09,13.83-62.3,26.34-73.99c14.36-13.41,29.11-16.22,29.73-16.33l.76,4.18c-.14.03-14.32,2.76-27.77,15.42-16.64,15.65-25.17,39.89-24.83,70.35c10.69-.15,19.96,5.87,26.87,17.53c4.05,6.83,6.2,13.72,7.03,16.75.23.86-.3,1.74-1.16,1.93l-2.8.62c-.81.18-1.62-.3-1.84-1.1-1.7-6.14-9.5-29.89-27.92-29.76c0,.18,0,.36.02.54l-4.24.21c0-.11,0-.22-.01-.33-8.1,1.57-21.49,8.46-21.67,36.84c0,.85-.69,1.54-1.54,1.55l-2.86.03c-.87,0-1.58-.7-1.58-1.57.08-13.91,3.21-24.79,9.3-32.34Z" fill="#0c2f3d"/><g><g id="eS2e18UK753134_ts" transform="translate(421.790024,551.140015) scale(1,1)"><circle r="3.05" transform="translate(-0.000024,-0.000015)" fill="#3b2a2d"/></g><g id="eS2e18UK753135_ts" transform="translate(389.360001,552.340027) scale(1,1)"><circle r="3.05" transform="translate(-0.000001,-0.000027)" fill="#3b2a2d"/></g><polyline points="405.26,557.22 415.23,574.23 405.26,578.78" fill="none" stroke="#231f20" stroke-width="1.8" stroke-linecap="round" stroke-linejoin="round"/><path d="M413.07,591.44c0,0-10.69,9.16-16.03-2.62" fill="none" stroke="#231f20" stroke-width="1.8" stroke-linecap="round" stroke-linejoin="round"/><path d="M427.7,539.74c0,0-5.09-6.12-13.68-2.59" fill="none" stroke="#231f20" stroke-width="2.4" stroke-linecap="round" stroke-linejoin="round"/><path d="M392.63,538.22c0,0-7.05-3.71-13.63,2.84" fill="none" stroke="#231f20" stroke-width="2.4" stroke-linecap="round" stroke-linejoin="round"/></g><g id="eS2e18UK753140_tr" transform="translate(190.269957,740.043094) rotate(0.343011)"><g transform="translate(-189.811892,-741.006533)"><g><path d="M511.48,886.19l-.27.13-.61.95c-2.14-2.95-8.83-9.78-26.98-14.12-20.01-4.78-30.27,3.83-32.97,6.6l-.73-1.69v2.51c0,0,1.63,5.15,5.55,6.32v0c2.05,1.06,6.83,1.73,22.64,4.64c30.78,5.66,33.37-2.83,33.37-2.83.42-.72,0-2.51,0-2.51Z" fill="#897d77"/><path d="M483.62,870.64c-23.65-5.66-33.7,7.42-33.7,7.42s1.63,5.15,5.55,6.32v0c2.05,1.06,6.83,1.73,22.64,4.64c30.78,5.66,33.37-2.83,33.37-2.83s-4.21-9.9-27.86-15.55Z" fill="#f8e8e2"/></g><g><g><g><path d="M359.07,857.99l11.37,1.58l100.03,13.92l33.14,4.45-10.66-12.38-27.57-17.16c-1.05-.64-2.22-1.07-3.44-1.23l-26.81-3.6c-1.22-.16-2.46-.07-3.64.26l-16.03,4.6-42.89-13.02-1.37-.42L359.07,858Z" fill="#fcccb1"/><polygon points="359.07,857.99 370.44,859.57 372.57,835.4 371.2,834.98 359.07,857.99" opacity="0.1"/></g><path d="M255.11,812.55L372.5,831.27l-16.93,33.89c0,0-169.97-2.4-165.19-19.21c6.99-17.29,25.38-35.12,25.38-35.12l19.38-4.19l19.98,5.91Z" fill="url(#eS2e18UK753149-fill)"/></g><polygon points="372.25,833.38 372.5,831.27 260.56,812.26 291.61,741.45 289.66,740.6 257.72,813.46 372.25,833.38" fill="#0c2f3d"/></g></g></g></g></g><clipPath id="eS2e18UK753151"><rect width="1080.37" height="1435.67" rx="0" ry="0" transform="translate(.11 0)" fill="none"/></clipPath></g></g><g id="eS2e18UK753153_tr" transform="translate(477.559129,775.82) rotate(0)"><g transform="translate(-0.611445,-48.412473)"><g><g><path d="M60.29,121.41l11.14,2.77l98,24.41l32.49,7.93-9.29-13.44-25.6-19.98c-.97-.75-2.1-1.3-3.29-1.59l-26.28-6.41c-1.2-.29-2.44-.33-3.65-.13l-16.43,2.87-41.27-17.48-1.32-.56L60.3,121.4Z" fill="#fcccb1"/><path d="M34.76,0c0,0-36.69,37.61-34.68,54.3s7.75,39.39,7.75,39.39L18.1,113.83l77.1,24.03l21.9-34.01L64.94,78.1L34.76,0Z" fill="url(#eS2e18UK753157-fill)"/></g></g></g></g><g transform="translate(686.22 518.8)"><g><polygon points="158.8,374.48 0,301.67 42.61,51.5 221.48,0 158.8,374.48" fill="#d1e7ef"/></g></g><g id="eS2e18UK753161" transform="translate(686.22 518.8)"><g><g><polygon points="158.8,374.48 0,301.67 42.61,51.5 221.48,0 158.8,374.48" fill="#d1e7ef"/><polygon points="42.61,51.5 221.48,0 213.19,49.53 37.86,79.61 42.61,51.5" fill="#9cc1cd"/><path d="M178.83,27.85c-.18,0-.36-.01-.54-.04-.89-.15-1.68-.68-2.26-1.52-.92-1.31-1.26-3.27-.91-5.24.6-3.37,2.91-5.71,5.32-5.29.89.15,1.68.68,2.26,1.51.92,1.31,1.26,3.27.91,5.24-.56,3.12-2.6,5.34-4.78,5.34Zm1.08-10.66c-1.43,0-2.91,1.79-3.32,4.12-.29,1.59-.04,3.13.66,4.13.25.35.67.8,1.3.9c1.54.28,3.16-1.62,3.61-4.09.29-1.59.04-3.13-.66-4.13-.25-.35-.67-.8-1.3-.9-.09-.02-.19-.02-.28-.02Z" fill="#d1e7ef"/><path d="M192.25,24.56c-.18,0-.36-.01-.54-.05-.89-.15-1.68-.68-2.26-1.52-.92-1.31-1.26-3.27-.91-5.24.61-3.38,2.96-5.69,5.32-5.3.89.15,1.68.68,2.27,1.52.92,1.31,1.26,3.27.9,5.24-.56,3.12-2.6,5.34-4.78,5.34Zm1.08-10.66c-1.43,0-2.91,1.79-3.33,4.12-.29,1.59-.04,3.13.66,4.12.25.35.67.8,1.3.9c1.52.25,3.16-1.62,3.61-4.09v0c.29-1.59.04-3.13-.66-4.12-.25-.35-.67-.8-1.3-.9-.09-.02-.19-.02-.28-.02Z" fill="#d1e7ef"/><path d="M204.72,21.47c-.18,0-.36-.01-.54-.05-.89-.15-1.68-.68-2.26-1.51-.92-1.31-1.26-3.27-.91-5.24.6-3.37,2.93-5.69,5.32-5.3.89.15,1.68.68,2.26,1.52.92,1.31,1.26,3.27.91,5.24-.56,3.12-2.6,5.34-4.78,5.34Zm1.07-10.66c-1.43,0-2.91,1.79-3.32,4.12-.29,1.59-.04,3.13.66,4.13.25.35.67.8,1.3.9c1.55.27,3.16-1.62,3.61-4.09.29-1.59.04-3.13-.66-4.13-.25-.35-.67-.8-1.3-.9-.09-.02-.19-.02-.28-.02Z" fill="#d1e7ef"/><path d="M137.81,205.37L72.23,191.39L89.54,87.22l67.31-7.92-19.04,126.07ZM76.93,188.19l57.47,12.26L151.99,84.01l-58.9,6.93-16.17,97.25Z" fill="#9cc1cd"/><g><path d="M130.62,119.89c-1.52,9.46-10.23,17.36-18.8,17.53-7.94.16-12.76-6.47-11.28-14.73c1.46-8.17,8.69-15.73,16.68-17.03c8.61-1.4,14.9,4.88,13.39,14.23Z" fill="#9cc1cd"/><path d="M132.79,180.62c.36-1.4.67-2.83.89-4.3c3.11-20.29-7.76-36.29-22.32-36.18-12.83.1-24.5,12.93-27.44,28.94-.21,1.15-.36,2.3-.48,3.43l49.35,8.1Z" fill="#9cc1cd"/></g><path d="M37.86,205.92c1.38-.65,122.43,28.22,122.43,28.22l-1.26,15.3L36.22,215.18l1.64-9.26Z" fill="#9cc1cd"/><path d="M33.05,229.83c1.38-.65,123.81,30.82,123.81,30.82l-2.57,16.43L31.41,239.09l1.64-9.26Z" fill="#fff"/><path d="M29.09,256.57c1.38-.65,123.09,37.22,123.09,37.22l-1.93,17.3L27.44,265.83l1.64-9.26Z" fill="#9cc1cd"/></g></g></g><g id="eS2e18UK753176" transform="translate(686.22 518.8)"><g><g><polygon points="158.8,374.48 0,301.67 42.61,51.5 221.48,0 158.8,374.48" fill="#d1e7ef"/><polygon points="42.61,51.5 221.48,0 213.19,49.53 37.86,79.61 42.61,51.5" fill="#9cc1cd"/><path d="M178.83,27.85c-.18,0-.36-.01-.54-.04-.89-.15-1.68-.68-2.26-1.52-.92-1.31-1.26-3.27-.91-5.24.6-3.37,2.91-5.71,5.32-5.29.89.15,1.68.68,2.26,1.51.92,1.31,1.26,3.27.91,5.24-.56,3.12-2.6,5.34-4.78,5.34Zm1.08-10.66c-1.43,0-2.91,1.79-3.32,4.12-.29,1.59-.04,3.13.66,4.13.25.35.67.8,1.3.9c1.54.28,3.16-1.62,3.61-4.09.29-1.59.04-3.13-.66-4.13-.25-.35-.67-.8-1.3-.9-.09-.02-.19-.02-.28-.02Z" fill="#d1e7ef"/><path d="M192.25,24.56c-.18,0-.36-.01-.54-.05-.89-.15-1.68-.68-2.26-1.52-.92-1.31-1.26-3.27-.91-5.24.61-3.38,2.96-5.69,5.32-5.3.89.15,1.68.68,2.27,1.52.92,1.31,1.26,3.27.9,5.24-.56,3.12-2.6,5.34-4.78,5.34Zm1.08-10.66c-1.43,0-2.91,1.79-3.33,4.12-.29,1.59-.04,3.13.66,4.12.25.35.67.8,1.3.9c1.52.25,3.16-1.62,3.61-4.09v0c.29-1.59.04-3.13-.66-4.12-.25-.35-.67-.8-1.3-.9-.09-.02-.19-.02-.28-.02Z" fill="#d1e7ef"/><path d="M204.72,21.47c-.18,0-.36-.01-.54-.05-.89-.15-1.68-.68-2.26-1.51-.92-1.31-1.26-3.27-.91-5.24.6-3.37,2.93-5.69,5.32-5.3.89.15,1.68.68,2.26,1.52.92,1.31,1.26,3.27.91,5.24-.56,3.12-2.6,5.34-4.78,5.34Zm1.07-10.66c-1.43,0-2.91,1.79-3.32,4.12-.29,1.59-.04,3.13.66,4.13.25.35.67.8,1.3.9c1.55.27,3.16-1.62,3.61-4.09.29-1.59.04-3.13-.66-4.13-.25-.35-.67-.8-1.3-.9-.09-.02-.19-.02-.28-.02Z" fill="#d1e7ef"/><g><polygon points="51.78,206.62 57.19,177.72 158.32,161.79 151.37,201.4 51.78,206.62" fill="#fff"/><polygon points="104.35,251.93 71.44,247.64 90.1,123.4 125.04,114.21 104.35,251.93" fill="#fff"/></g><path d="M22.48,259.42c1.38-.65,122.43,28.22,122.43,28.22l-1.26,15.3L20.84,268.68l1.64-9.26Z" fill="#9cc1cd"/></g></g></g><g id="eS2e18UK753188" transform="translate(686.22 518.8)"><g><g><polygon points="158.8,374.48 0,301.67 42.61,51.5 221.48,0 158.8,374.48" fill="#d1e7ef"/><polygon points="42.61,51.5 221.48,0 213.19,49.53 37.86,79.61 42.61,51.5" fill="#9cc1cd"/><path d="M178.83,27.85c-.18,0-.36-.01-.54-.04-.89-.15-1.68-.68-2.26-1.52-.92-1.31-1.26-3.27-.91-5.24.6-3.37,2.91-5.71,5.32-5.29.89.15,1.68.68,2.26,1.51.92,1.31,1.26,3.27.91,5.24-.56,3.12-2.6,5.34-4.78,5.34Zm1.08-10.66c-1.43,0-2.91,1.79-3.32,4.12-.29,1.59-.04,3.13.66,4.13.25.35.67.8,1.3.9c1.54.28,3.16-1.62,3.61-4.09.29-1.59.04-3.13-.66-4.13-.25-.35-.67-.8-1.3-.9-.09-.02-.19-.02-.28-.02Z" fill="#d1e7ef"/><path d="M192.25,24.56c-.18,0-.36-.01-.54-.05-.89-.15-1.68-.68-2.26-1.52-.92-1.31-1.26-3.27-.91-5.24.61-3.38,2.96-5.69,5.32-5.3.89.15,1.68.68,2.27,1.52.92,1.31,1.26,3.27.9,5.24-.56,3.12-2.6,5.34-4.78,5.34Zm1.08-10.66c-1.43,0-2.91,1.79-3.33,4.12-.29,1.59-.04,3.13.66,4.12.25.35.67.8,1.3.9c1.52.25,3.16-1.62,3.61-4.09v0c.29-1.59.04-3.13-.66-4.12-.25-.35-.67-.8-1.3-.9-.09-.02-.19-.02-.28-.02Z" fill="#d1e7ef"/><path d="M204.72,21.47c-.18,0-.36-.01-.54-.05-.89-.15-1.68-.68-2.26-1.51-.92-1.31-1.26-3.27-.91-5.24.6-3.37,2.93-5.69,5.32-5.3.89.15,1.68.68,2.26,1.52.92,1.31,1.26,3.27.91,5.24-.56,3.12-2.6,5.34-4.78,5.34Zm1.07-10.66c-1.43,0-2.91,1.79-3.32,4.12-.29,1.59-.04,3.13.66,4.13.25.35.67.8,1.3.9c1.55.27,3.16-1.62,3.61-4.09.29-1.59.04-3.13-.66-4.13-.25-.35-.67-.8-1.3-.9-.09-.02-.19-.02-.28-.02Z" fill="#d1e7ef"/><path d="M131.17,262.33L48.85,244.78L70.58,114.03l84.49-9.94-23.9,158.24ZM54.75,240.76l72.14,15.39L148.97,110l-73.93,8.7L54.75,240.76Z" fill="#9cc1cd"/><path d="M122.14,155.04c-1.91,11.87-12.83,21.79-23.59,22-9.97.2-16.01-8.13-14.16-18.49c1.83-10.26,10.91-19.74,20.94-21.38c10.81-1.76,18.7,6.12,16.81,17.86Z" fill="#9cc1cd"/><path d="M124.87,231.26c.45-1.76.84-3.55,1.12-5.39c3.91-25.47-9.74-45.55-28.02-45.41-16.1.12-30.75,16.23-34.44,36.33-.27,1.45-.46,2.88-.6,4.31l61.94,10.17Z" fill="#9cc1cd"/><path d="M23.67,262.08c1.38-.65,122.43,28.22,122.43,28.22l-1.26,15.3L22.03,271.34l1.64-9.26Z" fill="#fff"/></g></g></g><g id="eS2e18UK753200" transform="translate(686.22 518.8)"><g><g><polygon points="158.8,374.48 0,301.67 42.61,51.5 221.48,0 158.8,374.48" fill="#d1e7ef"/><polygon points="42.61,51.5 221.48,0 213.19,49.53 37.86,79.61 42.61,51.5" fill="#9cc1cd"/><g><polygon points="156.43,102.65 158.35,92.41 194.2,86.76 191.74,100.8 156.43,102.65" fill="#fff"/><polygon points="175.07,118.72 163.4,117.2 170.02,73.15 182.4,69.89 175.07,118.72" fill="#fff"/></g><path d="M178.83,27.85c-.18,0-.36-.01-.54-.04-.89-.15-1.68-.68-2.26-1.52-.92-1.31-1.26-3.27-.91-5.24.6-3.37,2.91-5.71,5.32-5.29.89.15,1.68.68,2.26,1.51.92,1.31,1.26,3.27.91,5.24-.56,3.12-2.6,5.34-4.78,5.34Zm1.08-10.66c-1.43,0-2.91,1.79-3.32,4.12-.29,1.59-.04,3.13.66,4.13.25.35.67.8,1.3.9c1.54.28,3.16-1.62,3.61-4.09.29-1.59.04-3.13-.66-4.13-.25-.35-.67-.8-1.3-.9-.09-.02-.19-.02-.28-.02Z" fill="#d1e7ef"/><path d="M192.25,24.56c-.18,0-.36-.01-.54-.05-.89-.15-1.68-.68-2.26-1.52-.92-1.31-1.26-3.27-.91-5.24.61-3.38,2.96-5.69,5.32-5.3.89.15,1.68.68,2.27,1.52.92,1.31,1.26,3.27.9,5.24-.56,3.12-2.6,5.34-4.78,5.34Zm1.08-10.66c-1.43,0-2.91,1.79-3.33,4.12-.29,1.59-.04,3.13.66,4.12.25.35.67.8,1.3.9c1.52.25,3.16-1.62,3.61-4.09v0c.29-1.59.04-3.13-.66-4.12-.25-.35-.67-.8-1.3-.9-.09-.02-.19-.02-.28-.02Z" fill="#d1e7ef"/><path d="M204.72,21.47c-.18,0-.36-.01-.54-.05-.89-.15-1.68-.68-2.26-1.51-.92-1.31-1.26-3.27-.91-5.24.6-3.37,2.93-5.69,5.32-5.3.89.15,1.68.68,2.26,1.52.92,1.31,1.26,3.27.91,5.24-.56,3.12-2.6,5.34-4.78,5.34Zm1.07-10.66c-1.43,0-2.91,1.79-3.32,4.12-.29,1.59-.04,3.13.66,4.13.25.35.67.8,1.3.9c1.55.27,3.16-1.62,3.61-4.09.29-1.59.04-3.13-.66-4.13-.25-.35-.67-.8-1.3-.9-.09-.02-.19-.02-.28-.02Z" fill="#d1e7ef"/><g><path d="M83.03,180.97L30.92,169.86L44.68,87.1l53.48-6.29L83.03,180.98ZM34.66,167.32l45.66,9.74L94.3,84.55L47.5,90.06L34.66,167.33Z" fill="#9cc1cd"/><g><path d="M77.32,113.06c-1.21,7.52-8.12,13.79-14.93,13.93-6.31.13-10.13-5.14-8.96-11.7c1.16-6.49,6.91-12.5,13.26-13.53c6.84-1.12,11.83,3.88,10.64,11.31Z" fill="#9cc1cd"/><path d="M79.04,161.31c.28-1.12.53-2.25.71-3.41c2.47-16.12-6.16-28.83-17.74-28.75-10.19.08-19.47,10.27-21.8,23-.17.92-.29,1.83-.38,2.73l39.21,6.44Z" fill="#9cc1cd"/></g></g><g><rect width="3.26" height="84.37" rx="0" ry="0" transform="matrix(.055822-.998441 0.998441 0.055822 98.854787 136.682778)" fill="#9cc1cd"/><rect width="3.26" height="83.75" rx="0" ry="0" transform="matrix(.096714-.995312 0.995312 0.096714 96.63033 149.106169)" fill="#9cc1cd"/><rect width="3.26" height="82.6" rx="0" ry="0" transform="matrix(.135197-.990819 0.990819 0.135197 95.266042 159.945303)" fill="#9cc1cd"/><rect width="3.26" height="82.06" rx="0" ry="0" transform="matrix(.195433-.980717 0.980717 0.195433 93.632523 171.122561)" fill="#9cc1cd"/></g><polygon points="166.72,226.4 104.2,208.62 106.35,192.05 169.74,206.29 166.72,226.4" fill="#9cc1cd"/></g></g></g></svg>