<svg xmlns="http://www.w3.org/2000/svg" viewBox="0 0 463.65 310.13"><defs><style>.cls-1{font-size:45.95px;font-family:Cornerstone;}.cls-2{letter-spacing:-0.01em;}.cls-3{letter-spacing:-0.03em;}.cls-4{letter-spacing:-0.08em;}.cls-5{letter-spacing:-0.23em;}.cls-6{letter-spacing:-0.06em;}.cls-7{letter-spacing:-0.01em;}.cls-8{letter-spacing:-0.03em;}.cls-9{letter-spacing:-0.01em;}.cls-10{letter-spacing:-0.06em;}.cls-11{letter-spacing:-0.01em;}.cls-12{letter-spacing:-0.07em;}.cls-13{letter-spacing:0em;}</style></defs><g id="Layer_3" data-name="Layer 3"><polygon points="231.82 0 247.22 22.13 96.68 238.57 65.88 238.57 231.82 0"/><polygon points="242.18 50.27 256.06 74.28 170.22 197.69 139.65 197.69 242.18 50.27"/><polygon points="254.49 32.58 239.2 54.57 338.74 197.69 369.32 197.68 254.49 32.58"/><polygon points="231.91 65.05 216.58 87.08 293.52 197.69 324.16 197.69 231.91 65.05"/><polygon points="378.32 210.61 397.77 238.57 90.73 238.57 90.73 210.61 378.32 210.61"/><polygon points="259.49 169.73 278.93 197.69 169.97 197.69 169.97 169.73 259.49 169.73"/><text class="cls-1" transform="translate(0 303.49) scale(1.16 1)"><tspan class="cls-2">L</tspan><tspan class="cls-3" x="26.02" y="0">i</tspan><tspan class="cls-4" x="37.64" y="0">f</tspan><tspan x="60.58" y="0">e</tspan><tspan class="cls-5" x="87.06" y="0"> </tspan><tspan class="cls-6" x="102.96" y="0">F</tspan><tspan class="cls-7" x="126.5" y="0">o</tspan><tspan class="cls-8" x="152.38" y="0">r</tspan><tspan x="177.33" y="0">ce</tspan><tspan class="cls-5" x="230.28" y="0"> </tspan><tspan class="cls-7" x="246.19" y="0">E</tspan><tspan class="cls-9" x="272.07" y="0">n</tspan><tspan class="cls-10" x="297.99" y="0">e</tspan><tspan class="cls-11" x="321.76" y="0">r</tspan><tspan class="cls-12" x="347.73" y="0">g</tspan><tspan class="cls-13" x="371.12" y="0">y</tspan></text></g></svg>