<svg cache-id="52436c737c534a50b6531dd3f153e7a5" id="epab3cAG2vk1" xmlns="http://www.w3.org/2000/svg" xmlns:xlink="http://www.w3.org/1999/xlink" viewBox="0 0 428 926" shape-rendering="geometricPrecision" text-rendering="geometricPrecision"><style><![CDATA[#epab3cAG2vk6_to {animation: epab3cAG2vk6_to__to 6000ms linear infinite normal forwards}@keyframes epab3cAG2vk6_to__to { 0% {transform: translate(105.679993px,219.165802px)} 50% {transform: translate(70.309767px,219.165803px)} 100% {transform: translate(105.679993px,219.165802px)}} #epab3cAG2vk7_to {animation: epab3cAG2vk7_to__to 6000ms linear infinite normal forwards}@keyframes epab3cAG2vk7_to__to { 0% {transform: translate(63.370079px,222.577248px)} 50% {transform: translate(78.065079px,222.577248px)} 100% {transform: translate(63.370079px,222.577248px)}} #epab3cAG2vk8_to {animation: epab3cAG2vk8_to__to 6000ms linear infinite normal forwards}@keyframes epab3cAG2vk8_to__to { 0% {transform: translate(348.857216px,203.286232px)} 50% {transform: translate(373.625649px,203.286232px)} 100% {transform: translate(348.857216px,203.286232px)}} #epab3cAG2vk9_to {animation: epab3cAG2vk9_to__to 6000ms linear infinite normal forwards}@keyframes epab3cAG2vk9_to__to { 0% {transform: translate(353.368561px,230.610023px)} 50% {transform: translate(333.657029px,230.610023px)} 100% {transform: translate(353.368561px,230.610023px)}} #epab3cAG2vk32_ts {animation: epab3cAG2vk32_ts__ts 6000ms linear infinite normal forwards}@keyframes epab3cAG2vk32_ts__ts { 0% {transform: translate(324.012225px,236.533344px) scale(0.134823,0.134823)} 26.666667% {transform: translate(324.012225px,236.533344px) scale(0.134823,0.134823)} 35% {transform: translate(324.012225px,236.533344px) scale(1.030432,1.030432)} 91.666667% {transform: translate(324.012225px,236.533344px) scale(1.030432,1.030432)} 100% {transform: translate(324.012225px,236.533344px) scale(0.134823,0.134823)}} #epab3cAG2vk32 {animation: epab3cAG2vk32_c_o 6000ms linear infinite normal forwards}@keyframes epab3cAG2vk32_c_o { 0% {opacity: 1} 88.333333% {opacity: 1} 91.666667% {opacity: 0} 100% {opacity: 0}} #epab3cAG2vk43_ts {animation: epab3cAG2vk43_ts__ts 6000ms linear infinite normal forwards}@keyframes epab3cAG2vk43_ts__ts { 0% {transform: translate(65.42px,236.150314px) scale(0.143145,0.143145)} 16.666667% {transform: translate(65.42px,236.150314px) scale(0.143145,0.143145)} 25% {transform: translate(65.42px,236.150314px) scale(0.99801,0.99801)} 91.666667% {transform: translate(65.42px,236.150314px) scale(0.99801,0.99801)} 100% {transform: translate(65.42px,236.150314px) scale(0.143145,0.143145)}} #epab3cAG2vk43 {animation: epab3cAG2vk43_c_o 6000ms linear infinite normal forwards}@keyframes epab3cAG2vk43_c_o { 0% {opacity: 1} 73.333333% {opacity: 1} 76.666667% {opacity: 0} 91.666667% {opacity: 0} 100% {opacity: 0}} #epab3cAG2vk94_tr {animation: epab3cAG2vk94_tr__tr 6000ms linear infinite normal forwards}@keyframes epab3cAG2vk94_tr__tr { 0% {transform: translate(321.116455px,252.630768px) rotate(0deg)} 100% {transform: translate(321.116455px,252.630768px) rotate(1800deg)}} #epab3cAG2vk97_tr {animation: epab3cAG2vk97_tr__tr 6000ms linear infinite normal forwards}@keyframes epab3cAG2vk97_tr__tr { 0% {transform: translate(107.249969px,244.390564px) rotate(0deg)} 100% {transform: translate(107.249969px,244.390564px) rotate(1799.999998deg)}} #epab3cAG2vk102 {animation: epab3cAG2vk102__m 6000ms linear infinite normal forwards}@keyframes epab3cAG2vk102__m { 0% {d: path('M19.72,90.29C28.2,95.22,36.68,97.71,46.47,97.09L73.8,83.43C77.28,73.62,78.566275,67.122619,78.076275,56.732619C77.586275,46.342619,74.97,31.96,66.94,25.34C63.15,22.22,58.63,20.08,54.87,16.92C49.55,12.45,45.83,6.03,39.71,2.73C30,-2.5,16.42,-0.28,11.77,9.97C4.72,9.23,-3.92,16.2,1.93,35.35C3.53,40.6,6.18,47.57,5.31,52.99C2.8,68.64,8.28,83.64,19.71,90.29')} 16.666667% {d: path('M19.72,90.29C28.2,95.22,36.68,97.71,46.47,97.09L73.8,83.43C77.28,73.62,79.97,63.33,79.48,52.94C78.99,42.55,70.213853,34.936074,62.183853,28.316074C58.393853,25.196074,58.006275,19.80855,54.803853,15.456074C49.440128,8.506074,47.215881,6.043227,37.050751,2.99386C27.340751,-2.23614,16.42,-0.28,11.77,9.97C4.72,9.23,-0.750471,16.093859,5.099529,35.243859C8.125751,42.395888,0.725751,47.223859,-0.144249,52.643859C-2.654249,68.293859,8.28,83.64,19.71,90.29')} 33.333333% {d: path('M19.72,90.29C28.2,95.22,36.68,97.71,46.47,97.09L73.8,83.43C77.28,73.62,78.566275,67.122619,78.076275,56.732619C77.586275,46.342619,74.97,31.96,66.94,25.34C63.15,22.22,58.63,20.08,54.87,16.92C49.55,12.45,45.83,6.03,39.71,2.73C30,-2.5,16.42,-0.28,11.77,9.97C4.72,9.23,-3.92,16.2,1.93,35.35C3.53,40.6,6.18,47.57,5.31,52.99C2.8,68.64,8.28,83.64,19.71,90.29')} 50% {d: path('M19.72,90.29C28.2,95.22,36.68,97.71,46.47,97.09L73.8,83.43C77.28,73.62,79.97,63.33,79.48,52.94C78.99,42.55,70.213853,34.936074,62.183853,28.316074C58.393853,25.196074,58.006275,19.80855,54.803853,15.456074C49.440128,8.506074,47.215881,6.043227,37.050751,2.99386C27.340751,-2.23614,16.42,-0.28,11.77,9.97C4.72,9.23,-0.750471,16.093859,5.099529,35.243859C8.125751,42.395888,0.725751,47.223859,-0.144249,52.643859C-2.654249,68.293859,8.28,83.64,19.71,90.29')} 66.666667% {d: path('M19.72,90.29C28.2,95.22,36.68,97.71,46.47,97.09L73.8,83.43C77.28,73.62,78.566275,67.122619,78.076275,56.732619C77.586275,46.342619,74.97,31.96,66.94,25.34C63.15,22.22,58.63,20.08,54.87,16.92C49.55,12.45,45.83,6.03,39.71,2.73C30,-2.5,16.42,-0.28,11.77,9.97C4.72,9.23,-3.92,16.2,1.93,35.35C3.53,40.6,6.18,47.57,5.31,52.99C2.8,68.64,8.28,83.64,19.71,90.29')} 83.333333% {d: path('M19.72,90.29C28.2,95.22,36.68,97.71,46.47,97.09L73.8,83.43C77.28,73.62,79.97,63.33,79.48,52.94C78.99,42.55,70.213853,34.936074,62.183853,28.316074C58.393853,25.196074,58.006275,19.80855,54.803853,15.456074C49.440128,8.506074,47.215881,6.043227,37.050751,2.99386C27.340751,-2.23614,16.42,-0.28,11.77,9.97C4.72,9.23,-0.750471,16.093859,5.099529,35.243859C8.125751,42.395888,0.725751,47.223859,-0.144249,52.643859C-2.654249,68.293859,8.28,83.64,19.71,90.29')} 100% {d: path('M19.72,90.29C28.2,95.22,36.68,97.71,46.47,97.09L73.8,83.43C77.28,73.62,78.566275,67.122619,78.076275,56.732619C77.586275,46.342619,74.97,31.96,66.94,25.34C63.15,22.22,58.63,20.08,54.87,16.92C49.55,12.45,45.83,6.03,39.71,2.73C30,-2.5,16.42,-0.28,11.77,9.97C4.72,9.23,-3.92,16.2,1.93,35.35C3.53,40.6,6.18,47.57,5.31,52.99C2.8,68.64,8.28,83.64,19.71,90.29')}} #epab3cAG2vk109_ts {animation: epab3cAG2vk109_ts__ts 6000ms linear infinite normal forwards}@keyframes epab3cAG2vk109_ts__ts { 0% {transform: translate(213.246677px,225.238923px) rotate(-108.953724deg) scale(1,1)} 10% {transform: translate(213.246677px,225.238923px) rotate(-108.953724deg) scale(1,1)} 13.333333% {transform: translate(213.246677px,225.238923px) rotate(-108.953724deg) scale(0.212379,0.763966)} 16.666667% {transform: translate(213.246677px,225.238923px) rotate(-108.953724deg) scale(1,1)} 40% {transform: translate(213.246677px,225.238923px) rotate(-108.953724deg) scale(1,1)} 43.333333% {transform: translate(213.246677px,225.238923px) rotate(-108.953724deg) scale(0.212379,0.763966)} 46.666667% {transform: translate(213.246677px,225.238923px) rotate(-108.953724deg) scale(1,1)} 71.666667% {transform: translate(213.246677px,225.238923px) rotate(-108.953724deg) scale(1,1)} 75% {transform: translate(213.246677px,225.238923px) rotate(-108.953724deg) scale(0.212379,0.763966)} 78.333333% {transform: translate(213.246677px,225.238923px) rotate(-108.953724deg) scale(1,1)} 100% {transform: translate(213.246677px,225.238923px) rotate(-108.953724deg) scale(1,1)}} #epab3cAG2vk110_ts {animation: epab3cAG2vk110_ts__ts 6000ms linear infinite normal forwards}@keyframes epab3cAG2vk110_ts__ts { 0% {transform: translate(223.888443px,221.449135px) rotate(-111.46636deg) scale(1,1)} 10% {transform: translate(223.888443px,221.449135px) rotate(-111.46636deg) scale(1,1)} 13.333333% {transform: translate(223.888443px,221.449135px) rotate(-111.46636deg) scale(0.198633,1.014664)} 18.333333% {transform: translate(223.888443px,221.449135px) rotate(-111.46636deg) scale(1,1)} 41.666667% {transform: translate(223.888443px,221.449135px) rotate(-111.46636deg) scale(1,1)} 43.333333% {transform: translate(223.888443px,221.449135px) rotate(-111.46636deg) scale(0.198633,1.014664)} 46.666667% {transform: translate(223.888443px,221.449135px) rotate(-111.46636deg) scale(1,1)} 71.666667% {transform: translate(223.888443px,221.449135px) rotate(-111.46636deg) scale(1,1)} 75% {transform: translate(223.888443px,221.449135px) rotate(-111.46636deg) scale(0.198633,1.014664)} 78.333333% {transform: translate(223.888443px,221.449135px) rotate(-111.46636deg) scale(1,1)} 100% {transform: translate(223.888443px,221.449135px) rotate(-111.46636deg) scale(1,1)}} #epab3cAG2vk126_ts {animation: epab3cAG2vk126_ts__ts 6000ms linear infinite normal forwards}@keyframes epab3cAG2vk126_ts__ts { 0% {transform: translate(52.550001px,36.305002px) rotate(-13.397854deg) scale(1,1)} 21.666667% {transform: translate(52.550001px,36.305002px) rotate(-13.397854deg) scale(1,1)} 25% {transform: translate(52.550001px,36.305002px) rotate(-13.397854deg) scale(0.832656,0.14369)} 28.333333% {transform: translate(52.550001px,36.305002px) rotate(-13.397854deg) scale(1,1)} 56.666667% {transform: translate(52.550001px,36.305002px) rotate(-13.397854deg) scale(1,1)} 60% {transform: translate(52.550001px,36.305002px) rotate(-13.397854deg) scale(0.779444,0.122791)} 63.333333% {transform: translate(52.550001px,36.305002px) rotate(-13.397854deg) scale(1,1)} 91.666667% {transform: translate(52.550001px,36.305002px) rotate(-13.397854deg) scale(1,1)} 100% {transform: translate(52.550001px,36.305002px) rotate(-13.397854deg) scale(1,1)}} #epab3cAG2vk130 {animation-name: epab3cAG2vk130__m, epab3cAG2vk130_f_p;animation-duration: 6000ms;animation-fill-mode: forwards;animation-timing-function: linear;animation-direction: normal;animation-iteration-count: infinite;}@keyframes epab3cAG2vk130__m { 0% {d: path('M63.19,44.27C62.99,44.19,62.56,45.53,61.1,46.11C59.65,46.69,58.27,46.08,58.2,46.26C58.15,46.34,58.43,46.62,59.03,46.83C59.61,47.04,60.54,47.13,61.43,46.78C62.32,46.42,62.87,45.74,63.1,45.21C63.33,44.67,63.29,44.29,63.2,44.26Z')} 20% {d: path('M63.19,44.27C62.99,44.19,62.56,45.53,61.1,46.11C59.65,46.69,58.27,46.08,58.2,46.26C58.15,46.34,58.43,46.62,59.03,46.83C59.61,47.04,60.54,47.13,61.43,46.78C62.32,46.42,62.87,45.74,63.1,45.21C63.33,44.67,63.29,44.29,63.2,44.26Z')} 25% {d: path('M63.19,44.27C62.99,44.19,62.56,45.53,61.1,46.11C59.65,46.69,58.27,46.08,58.2,46.26C58.15,46.34,58.93,47.434212,59.37,47.81C59.78,48.149937,61.092692,48.709481,61.982692,48.359481C62.872692,47.999481,63.344719,46.626634,63.43,45.98048C63.514719,44.963583,63.29,44.29,63.2,44.26Z')} 91.666667% {d: path('M63.19,44.27C62.99,44.19,62.56,45.53,61.1,46.11C59.65,46.69,58.27,46.08,58.2,46.26C58.15,46.34,58.93,47.434212,59.37,47.81C59.78,48.149937,61.092692,48.709481,61.982692,48.359481C62.872692,47.999481,63.344719,46.626634,63.43,45.98048C63.514719,44.963583,63.29,44.29,63.2,44.26Z')} 100% {d: path('M63.19,44.27C62.99,44.19,62.56,45.53,61.1,46.11C59.65,46.69,58.27,46.08,58.2,46.26C58.15,46.34,58.43,46.62,59.03,46.83C59.61,47.04,60.54,47.13,61.43,46.78C62.32,46.42,62.87,45.74,63.1,45.21C63.33,44.67,63.29,44.29,63.2,44.26Z')}}@keyframes epab3cAG2vk130_f_p { 0% {fill: #000} 20% {fill: #000} 25% {fill: #fff} 91.666667% {fill: #fff} 100% {fill: #000}} #epab3cAG2vk132_ts {animation: epab3cAG2vk132_ts__ts 6000ms linear infinite normal forwards}@keyframes epab3cAG2vk132_ts__ts { 0% {transform: translate(64.195004px,33.990002px) rotate(-14.757491deg) scale(1,1)} 21.666667% {transform: translate(64.195004px,33.990002px) rotate(-14.757491deg) scale(1,1)} 25% {transform: translate(64.195004px,33.990002px) rotate(-14.757491deg) scale(0.779444,0.122791)} 28.333333% {transform: translate(64.195004px,33.990002px) rotate(-14.757491deg) scale(1,1)} 56.666667% {transform: translate(64.195004px,33.990002px) rotate(-14.757491deg) scale(1,1)} 60% {transform: translate(64.195004px,33.990002px) rotate(-14.757491deg) scale(0.779444,0.122791)} 63.333333% {transform: translate(64.195004px,33.990002px) rotate(-14.757491deg) scale(1,1)} 91.666667% {transform: translate(64.195004px,33.990002px) rotate(-14.757491deg) scale(1,1)} 100% {transform: translate(64.195004px,33.990002px) rotate(-14.757491deg) scale(1,1)}} #epab3cAG2vk144_tr {animation: epab3cAG2vk144_tr__tr 6000ms linear infinite normal forwards}@keyframes epab3cAG2vk144_tr__tr { 0% {transform: translate(221.02px,303.84px) rotate(0deg)} 16.666667% {transform: translate(221.02px,303.84px) rotate(0deg)} 18.333333% {transform: translate(221.02px,303.84px) rotate(3.689706deg)} 50% {transform: translate(221.02px,303.84px) rotate(3.689706deg)} 51.666667% {transform: translate(221.02px,303.84px) rotate(0deg)} 100% {transform: translate(221.02px,303.84px) rotate(0deg)}} #epab3cAG2vk184_to {animation: epab3cAG2vk184_to__to 6000ms linear infinite normal forwards}@keyframes epab3cAG2vk184_to__to { 0% {transform: translate(336.034981px,454.998428px)} 48.333333% {transform: translate(363.692864px,454.998428px)} 100% {transform: translate(336.034981px,454.998428px)}} #epab3cAG2vk185_to {animation: epab3cAG2vk185_to__to 6000ms linear infinite normal forwards}@keyframes epab3cAG2vk185_to__to { 0% {transform: translate(157.895007px,457.096573px)} 48.333333% {transform: translate(138.765007px,457.096573px)} 100% {transform: translate(157.895007px,457.096573px)}} #epab3cAG2vk289_to {animation: epab3cAG2vk289_to__to 6000ms linear infinite normal forwards}@keyframes epab3cAG2vk289_to__to { 0% {transform: translate(261.920006px,96.584778px)} 15% {transform: translate(271.020006px,96.584778px)} 48.333333% {transform: translate(261.920006px,96.584778px)} 75% {transform: translate(271.020006px,96.584778px)} 100% {transform: translate(261.920006px,96.584778px)}} #epab3cAG2vk293_to {animation: epab3cAG2vk293_to__to 6000ms linear infinite normal forwards}@keyframes epab3cAG2vk293_to__to { 0% {transform: translate(158.450008px,71.05204px)} 15% {transform: translate(150.547508px,71.05204px)} 48.333333% {transform: translate(158.450008px,71.05204px)} 75% {transform: translate(150.547508px,71.05204px)} 100% {transform: translate(158.450008px,71.05204px)}} #epab3cAG2vk295_to {animation: epab3cAG2vk295_to__to 6000ms linear infinite normal forwards}@keyframes epab3cAG2vk295_to__to { 0% {transform: translate(757.029937px,81.270002px)} 41.666667% {transform: translate(757.029937px,81.270002px)} 91.666667% {transform: translate(-312.335503px,81.270002px)} 100% {transform: translate(-312.335503px,81.270002px)}} #epab3cAG2vk320_to {animation: epab3cAG2vk320_to__to 6000ms linear infinite normal forwards}@keyframes epab3cAG2vk320_to__to { 0% {transform: translate(757.029937px,81.270001px)} 50% {transform: translate(-312.335503px,81.270001px)} 100% {transform: translate(-312.335503px,81.270001px)}} #epab3cAG2vk348_to {animation: epab3cAG2vk348_to__to 6000ms linear infinite normal forwards}@keyframes epab3cAG2vk348_to__to { 0% {offset-distance: 0%} 83.333333% {offset-distance: 100%} 100% {offset-distance: 100%}} #epab3cAG2vk350_tr {animation: epab3cAG2vk350_tr__tr 6000ms linear infinite normal forwards}@keyframes epab3cAG2vk350_tr__tr { 0% {transform: translate(115.614999px,28.356675px) rotate(0deg)} 8.333333% {transform: translate(115.614999px,28.356675px) rotate(-32.933595deg)} 16.666667% {transform: translate(115.614999px,28.356675px) rotate(0deg)} 25% {transform: translate(115.614999px,28.356675px) rotate(-32.933595deg)} 33.333333% {transform: translate(115.614999px,28.356675px) rotate(0deg)} 41.666667% {transform: translate(115.614999px,28.356675px) rotate(-48.190401deg)} 50% {transform: translate(115.614999px,28.356675px) rotate(0deg)} 58.333333% {transform: translate(115.614999px,28.356675px) rotate(-48.190401deg)} 66.666667% {transform: translate(115.614999px,28.356675px) rotate(0deg)} 75% {transform: translate(115.614999px,28.356675px) rotate(-48.190401deg)} 83.333333% {transform: translate(115.614999px,28.356675px) rotate(0deg)} 91.666667% {transform: translate(115.614999px,28.356675px) rotate(-48.190401deg)} 100% {transform: translate(115.614999px,28.356675px) rotate(0deg)}} #epab3cAG2vk369_tr {animation: epab3cAG2vk369_tr__tr 6000ms linear infinite normal forwards}@keyframes epab3cAG2vk369_tr__tr { 0% {transform: translate(100.730573px,51.189999px) rotate(0deg)} 8.333333% {transform: translate(100.730573px,51.189999px) rotate(-48.190401deg)} 16.666667% {transform: translate(100.730573px,51.189999px) rotate(0deg)} 25% {transform: translate(100.730573px,51.189999px) rotate(-48.190401deg)} 33.333333% {transform: translate(100.730573px,51.189999px) rotate(0deg)} 41.666667% {transform: translate(100.730573px,51.189999px) rotate(-48.190401deg)} 50% {transform: translate(100.730573px,51.189999px) rotate(0deg)} 58.333333% {transform: translate(100.730573px,51.189999px) rotate(-48.190401deg)} 66.666667% {transform: translate(100.730573px,51.189999px) rotate(0deg)} 75% {transform: translate(100.730573px,51.189999px) rotate(-48.190401deg)} 83.333333% {transform: translate(100.730573px,51.189999px) rotate(0deg)} 91.666667% {transform: translate(100.730573px,51.189999px) rotate(-48.190401deg)} 100% {transform: translate(100.730573px,51.189999px) rotate(0deg)}}]]></style><defs><linearGradient id="epab3cAG2vk3-fill" x1="219.18" y1="27.91" x2="215.22" y2="360.83" spreadMethod="pad" gradientUnits="userSpaceOnUse" gradientTransform="translate(0 0)"><stop id="epab3cAG2vk3-fill-0" offset="0%" stop-color="#248cd6"/><stop id="epab3cAG2vk3-fill-1" offset="100%" stop-color="#fff"/></linearGradient><filter id="epab3cAG2vk291-filter" x="-150%" width="400%" y="-150%" height="400%"><feGaussianBlur id="epab3cAG2vk291-filter-blur-0" stdDeviation="3,0" result="result"/></filter></defs><g transform="translate(-.350001 0)"><rect width="428" height="926" rx="0" ry="0" transform="translate(.599206 0)" fill="url(#epab3cAG2vk3-fill)"/><g clip-path="url(#epab3cAG2vk10)"><g transform="translate(0 0.000001)"><g id="epab3cAG2vk6_to" transform="translate(105.679993,219.165802)"><path d="M154.11,296.64c17.62-6.34,34.56-15.27,48.1-28.2c13.55-12.92,23.51-30.11,25.6-48.72l-14.05-14.41c-8.62-8.73-23.97-9.6-33.52-1.9-2.28-8.36-8.74-15.48-16.84-18.55-8.11-3.07-17.66-2.03-24.91,2.73-3.76-6.77-12.33-10.47-19.83-8.54.95-10.43-6.65-20.97-16.84-23.37-3.8-.89-7.81-.77-11.57-1.84-5.76-1.65-10.31-5.92-15.09-9.53-25.78-19.47-63.11-20.67-91.61-5.46v158.85c6.72,2.05,13.59,3.66,20.34,4.99c49.77,9.85,102.49,11.12,150.23-6.06" transform="translate(-105.679993,-219.165802)" fill="#d5e0e7"/></g><g id="epab3cAG2vk7_to" transform="translate(63.370079,222.577248)"><path d="M47.78,290.31c23.89-6,46.12-17.4,66.94-30.56c6.9-4.36,13.76-9,19.18-15.11s9.33-13.91,9.3-22.08c-.04-13.97-11.88-25.89-25.31-29.77-13.42-3.88-27.89-1.21-41.14,3.25-3.54-13.08-21.2-19.89-32.6-12.56-4.76-14.65-17.02-26.64-31.77-31.07-9.36-2.81-19.56-2.53-28.84.5v137.95c20.82,5.63,43.25,4.73,64.24-.55" transform="translate(-63.370079,-222.577248)" fill="#fff"/></g><g id="epab3cAG2vk8_to" transform="translate(348.857216,203.286232)"><path d="M321.56,173.69c-3.5-3.49-8.97-4.85-13.7-3.39-4.72,1.45-8.49,5.65-9.43,10.5-8.03-8.31-22.58-6.94-31.53.36s-13.31,18.82-15.8,30.1c-2.4,10.86-3.3,22.76,1.87,32.61c6.31,12.04,20.01,18.07,33.02,22.02c29.07,8.83,60.29,11.73,90.03,5.48c27.71-5.83,54.02-19.98,72.51-41.34v-84.98c-3.97-3.06-8.34-5.62-12.93-7.57-15.6-6.63-33.36-6.87-49.96-3.44l5.09,4.22c-27.42-5.62-57.72,9.89-69.18,35.43" transform="translate(-348.857216,-203.286232)" fill="#d5e0e7"/></g><g id="epab3cAG2vk9_to" transform="translate(353.368561,230.610023)"><path d="M290.28,286.03c16.04,10.27,34.97,15.12,53.83,17.8c24.2,3.44,49.41,3.48,72.47-4.63c11.71-4.12,22.8-10.57,31.96-18.95v-118.32c-11.34-6.48-25.24-8.44-37.9-5.19-14.09,3.62-26.41,13.63-32.84,26.68-7.05-3.77-17.09.55-19.2,8.26-6.35-6.09-15.67-8.93-24.33-7.42-8.67,1.51-16.47,7.34-20.39,15.22-6.2-9.83-20.69-11.25-31.29-6.49-17.37,7.81-26.63,28.71-23.93,47.57c2.7,18.85,15.6,35.19,31.64,45.46" transform="translate(-353.368561,-230.610023)" fill="#fff"/></g></g><clipPath id="epab3cAG2vk10"><rect width="428" height="372.495001" rx="0" ry="0" transform="translate(0 90.505)" fill="#d2dbed" stroke-width="0"/></clipPath></g><path d="M315.6,213.84v0" fill="#718722"/><path d="M336.12,209.35v-.02c-.03.1-.02.06,0,.02" fill="#718722"/><path d="M151.13,206.26v0c0,0-.04-.08,0,0" fill="#718722"/><path d="M145.91,197.12l.02.02c0,0,.02.02-.02-.02" fill="#718722"/><path d="M155.03,220.78c0,0,0-.02,0,0s0,.02,0,0" fill="#718722"/><path d="M172.85,227.51l.02-.04c0,0-.02.04-.02.04" fill="#718722"/><path d="M183.56,209.18c0,0-.01.02,0,0s.02-.02,0,0" fill="#718722"/><path d="M163.29,225.24v0c0,0,0,.03,0,0" fill="#718722"/><path d="M260.12,547.1v0c0,0,.06-.07,0,0" fill="#230000"/><path d="M215.86,492.06v-.02v0v.02" fill="#230000"/><path d="M217.77,498.49v0c-.04-.11.02.04,0,0" fill="#230000"/><path d="M279.76,196.04v.02c0,0,0-.03,0-.02" fill="#230000"/><path d="M135.98,477.22h-.03c0,0-.02,0,.03,0" fill="#230000"/><path d="M134.21,476.76h-.03c0,0,.03,0,.03,0" fill="#230000"/><path d="M133.24,476.21h-.01c-.05-.05,0,0,.01,0" fill="#230000"/><path d="M132.72,475.7v0c-.03-.05,0-.01,0,0" fill="#230000"/><path d="M355,43.96c3.44-.49,7.05,1.92,7.91,5.29c1.53-1.29,3.72-1.75,5.64-1.19s3.51,2.14,4.11,4.05c4.79-1.34,10.07-.86,14.55,1.32h-50.85c3.07-3.36,8.7-3.52,12.54-2.18-.11-3.47,2.68-6.8,6.11-7.29" opacity="0.3" fill="#fff"/><path d="M47.28,57.01c3.44-.49,7.05,1.92,7.91,5.29c1.53-1.29,3.72-1.75,5.64-1.19s3.51,2.14,4.11,4.05c4.79-1.34,10.07-.86,14.55,1.32h-50.86c3.07-3.36,8.7-3.52,12.54-2.18-.11-3.47,2.68-6.8,6.11-7.29" opacity="0.3" fill="#fff"/></g><g><g><g id="epab3cAG2vk32_ts" transform="translate(324.012225,236.533344) scale(0.134823,0.134823)"><g id="epab3cAG2vk32" transform="translate(-324.012225,-236.533327)"><path d="M313.26,225.68c.04.31.08.62.12.93.33,2.7.55,5.42.67,8.13.02.36.03.73.04,1.09s.31.71.7.7c.37-.02.71-.31.7-.7-.1-2.78-.29-5.55-.61-8.31-.28-2.45-.64-4.89-1.11-7.32-.41-2.12-.9-4.23-1.47-6.32-.52-1.91-1.1-3.81-1.73-5.69-.59-1.75-1.22-3.49-1.86-5.23-.08-.21-.16-.42-.23-.63-.13-.34-.48-.61-.86-.49-.33.11-.62.49-.49.86.64,1.72,1.27,3.45,1.87,5.19.63,1.84,1.21,3.7,1.74,5.57.58,2.06,1.08,4.13,1.51,6.22.23,1.13.44,2.26.62,3.4.1.6.19,1.2.28,1.8.02.15.04.29.06.44.01.07.02.15.03.22v.04c0,0,.01.07.02.09" fill="#718722"/><path d="M300.11,199.37c-1.09.98-1.32,2.78-.51,4.01.8,1.23,2.54,1.74,3.88,1.14-1.16,1.05-1.32,3.01-.38,4.27s2.82,1.67,4.22.98c1.41-.69,2.23-2.38,1.96-3.92.53,1.26,2.21,1.83,3.45,1.26s1.91-2.09,1.63-3.42-1.42-2.41-2.74-2.77c1.53,0,2.93-1.39,2.94-2.92s-1.36-2.94-2.89-2.97c-1.11-.02-2.17.69-2.68,1.67-.31-1.15-1.17-2.15-2.29-2.56-.99-.36-2.22-.23-2.92.56-.54.61-.66,1.5-.52,2.3s.52,1.54.89,2.26c-1.14-.92-2.95-.86-4.04.12" fill="#ffa200"/><path d="M308.15,204.05c1.26-.28,2.05-1.54,1.76-2.79-.28-1.26-1.54-2.05-2.79-1.76-1.26.28-2.05,1.54-1.76,2.79.28,1.26,1.54,2.05,2.79,1.76" fill="#ffda00"/><path d="M306.28,212.1c1.46.99,3.51.99,4.97.01l-.21-.79c-.88-.88-1.9-1.63-3.01-2.2-.76-.39-1.72-.69-2.41-.19-.51.37-.68,1.1-.5,1.71s.64,1.1,1.16,1.46" fill="#718722"/><path d="M319.63,214.61c.38-.92.05-2.18-.88-2.55-.65-.26-1.39-.05-2.03.23-2.13.95-3.88,2.75-4.76,4.91c1.71.57,3.81.02,5.47-.66.92-.38,1.82-1,2.19-1.93" fill="#718722"/><path d="M328.91,231.75c.85-3.98,1.92-7.91,3.19-11.77c1.12-3.39,2.39-6.72,3.76-10.01.09-.21.17-.41.26-.62-.02.04-.03.07.01-.02v-.02l.09-.19.14-.32c.19-.44.38-.88.57-1.32.37-.85.74-1.69,1.11-2.54.15-.33.11-.76-.25-.95-.3-.16-.8-.11-.95.25-1.39,3.15-2.75,6.32-3.99,9.54-1.35,3.5-2.55,7.06-3.56,10.67-.64,2.29-1.21,4.6-1.71,6.92-.08.36.11.77.49.86.35.08.78-.11.86-.49" fill="#718722"/><path d="M330.56,200.59c-1.01,1.17-1.04,3.11.03,4.24.76.8,2.01,1.04,3.03.7-.89.89-1.29,2.28-.86,3.48.57,1.61,2.55,2.57,4.17,2.01c1.18-.4,2.02-1.55,2.18-2.78.38.91,1.32,1.62,2.33,1.62c1.49,0,2.77-1.38,2.85-2.87.08-1.48-.92-2.91-2.27-3.53.9-.17,1.82-.35,2.62-.81s1.46-1.25,1.5-2.17c.08-1.49-1.55-2.63-3.04-2.59-1.5.05-2.83.92-4.03,1.81c1.18-1.05,1.24-3.12.11-4.23s-3.2-1.01-4.22.2-.78,3.27.5,4.2l-.64-.15c-1.41-.64-3.23-.31-4.25.86" fill="#ffa200"/><path d="M340.01,204.3c.37-1.27-.37-2.6-1.64-2.96-1.27-.37-2.6.37-2.96,1.64-.37,1.27.37,2.6,1.64,2.96c1.27.37,2.6-.37,2.96-1.64" fill="#ffda00"/><path d="M340.3,215.28c.27-.77.12-1.73-.52-2.25-.85-.7-2.12-.39-3.13.06-1.47.66-2.85,1.54-4.05,2.62l-.33,1c1.81,1.37,4.46,1.52,6.42.36.7-.42,1.34-1.02,1.61-1.79" fill="#718722"/><path d="M323.94,221.94c2.09,1.01,4.77,1.88,7.01,1.27-.98-2.86-3.09-5.3-5.77-6.69-.8-.42-1.74-.75-2.6-.46-1.22.41-1.74,2-1.32,3.23.42,1.22,1.52,2.09,2.69,2.65" fill="#718722"/></g></g><g id="epab3cAG2vk43_ts" transform="translate(65.42,236.150314) scale(0.143145,0.143145)"><g id="epab3cAG2vk43" transform="translate(-65.42,-236.150309)"><path d="M45.48,190.35c.23.27.46.54.68.82.05.07.11.14.16.21l.09.12-.02-.02c0,0,.03.04.02.02.11.14.21.28.32.42.88,1.18,1.68,2.42,2.41,3.7.78,1.36,1.49,2.77,2.13,4.21.08.17.15.35.23.52.04.09.08.18.11.26-.03-.08,0-.01,0,.01v0v.02c.04.06.07.12.09.19.16.38.31.75.45,1.13.3.77.58,1.55.84,2.33c1.09,3.24,1.88,6.58,2.39,9.96.03.2.06.4.09.61l.02.14c0,0,.01.1.02.13c0-.03,0-.05,0,0c0,.03,0,.02,0,0v.08c.02.07.03.14.04.21.05.43.11.86.15,1.29.09.86.16,1.73.21,2.59.1,1.74.13,3.48.07,5.22-.03.86-.08,1.72-.16,2.57-.04.43-.08.85-.13,1.27-.02.2-.05.4-.07.6-.04.28-.03.28-.07.55-.24,1.66-.56,3.31-.99,4.94-.11.4-.22.8-.34,1.2-.11.36.13.76.49.86.37.1.75-.12.86-.49.99-3.32,1.54-6.76,1.74-10.21.21-3.5.07-7.03-.39-10.51-.45-3.48-1.18-6.92-2.23-10.27-.99-3.16-2.24-6.25-3.81-9.16-1.41-2.61-3.09-5.11-5.11-7.29-.23-.25-.46-.49-.7-.72-.27-.27-.72-.27-.99,0s-.27.72,0,.99c.48.48.94.97,1.38,1.48" fill="#718722"/><path d="M56.7,195.58c1.19-2.24.12-3.55-.84-3.72-1.95-.34-3.83,4.35-3.52,7.75c1.73-.67,3.48-2.39,4.36-4.03" fill="#718722"/><path d="M54.06,205.05c-1.34-1.28-3.65-2.12-5.5-2.21-2.53-.12-3.27,1.41-3,2.35.53,1.91,5.57,1.6,8.51-.14" fill="#718722"/><path d="M39,187.47c-.95.26-1.27,1.61-.72,2.42.55.82,1.67,1.09,2.63.91.97-.18,1.82-.74,2.62-1.31-.69.75-.27,2.11.65,2.54s2.07.08,2.8-.62c.74-.7,1.14-1.68,1.43-2.66.18-.61.33-1.27.15-1.88-.17-.56-.72-1.05-1.29-1c1.6-.3,2.66-2.3,1.96-3.79-.72-1.53-3.05-1.97-4.28-.8.58-1.46,1.11-3.3.05-4.45-.79-.86-2.25-.89-3.22-.24-.98.65-1.51,1.83-1.62,3s.14,2.34.45,3.47l-.52-.56c-1-.79-2.55-.79-3.55.02-.99.8-1.32,2.32-.76,3.46.57,1.14,1.97,1.8,3.22,1.5" fill="#ffa200"/><path d="M42.34,187.17c1.02.2,2.01-.46,2.22-1.48.2-1.02-.46-2.01-1.48-2.22-1.02-.2-2.01.46-2.22,1.48-.2,1.02.46,2.01,1.48,2.22" fill="#ffda00"/><path d="M69.11,232.03c.37.08.75-.11.86-.49.68-2.44,1.48-4.85,2.39-7.22.23-.59.46-1.18.7-1.77.06-.14.12-.28.18-.42.03-.07.06-.14.09-.21l.02-.05c0,0,0,0,.02-.04l-.02.04.03-.08c.12-.29.25-.58.38-.87.51-1.16,1.04-2.31,1.61-3.45c1.12-2.27,2.35-4.5,3.68-6.66c1.32-2.15,2.74-4.25,4.25-6.27.19-.25.38-.51.57-.76.05-.06.09-.12.14-.18l.05-.06c0,0-.03.04,0,0c.02-.03.02-.02,0,0l.02-.03c.1-.13.2-.26.3-.39.39-.5.79-.99,1.19-1.48.81-.98,1.63-1.94,2.49-2.88.21-.24.43-.47.64-.7.25-.27.28-.72,0-.99-.27-.25-.72-.29-.99,0-1.76,1.91-3.43,3.9-5.01,5.96-1.55,2.02-3.01,4.12-4.36,6.27-1.36,2.16-2.61,4.37-3.77,6.65-1.18,2.32-2.24,4.69-3.2,7.1-.94,2.37-1.77,4.78-2.49,7.22-.09.3-.18.61-.26.91-.1.35.12.77.49.86" fill="#718722"/><path d="M83.59,198.22c-1.19.14-2.2,1.35-2.09,2.57.12,1.36,1.48,2.44,2.84,2.36c1.22-.07,2.31-1,2.69-2.17-.22,1.15.25,2.43,1.24,3.06c1.1.7,2.74.44,3.49-.63s.38-2.77-.78-3.36c1.35.53,3.05-.11,3.71-1.41.66-1.29.18-3.05-1.04-3.83s-3.02-.48-3.91.66c2.01-4.07-.88-6.02-2.91-5.15-1.31.56-2.37,1.85-1.16,4.36l-.12-.22c-.67-.83-1.95-1.09-2.89-.59s-1.44,1.71-1.12,2.73c.28.89,1.14,1.55,2.07,1.62" fill="#ffa200"/><path d="M87.78,199.1c.85.23,1.73-.27,1.97-1.13.23-.85-.27-1.73-1.13-1.97-.85-.23-1.73.27-1.97,1.13-.23.85.27,1.73,1.13,1.97" fill="#ffda00"/><path d="M80.65,205.84l.38.22c.04-2.24-.61-4.49-1.84-6.37-.36-.56-.89-1.13-1.55-1.1-.71.04-1.19.79-1.31,1.49-.22,1.27.31,2.59,1.16,3.56s1.99,1.64,3.15,2.2" fill="#718722"/><path d="M82.91,213.88c.86-.16,1.75-.84,1.66-1.71-.07-.67-.68-1.14-1.28-1.43-1.79-.85-4.02-.67-5.67.44l-.08.44c.78.64,1.56,1.28,2.46,1.73s1.92.71,2.91.53" fill="#718722"/><path d="M73.66,219.24l.21.59c.16-2.38-1.08-4.81-3.11-6.07-.41-.25-.94-.46-1.34-.2-.45.29-.43.95-.29,1.47.58,2.09,2.41,3.78,4.54,4.2" fill="#718722"/><path d="M62.17,231.35c.39-.02.68-.31.7-.7.08-2.47.24-4.93.48-7.39.12-1.23.26-2.45.43-3.67c0,.03,0,.03,0,0v0l.02-.1c0-.07.02-.14.03-.22.02-.16.04-.31.07-.47.04-.3.09-.6.13-.9.09-.61.19-1.22.29-1.83.41-2.43.9-4.86,1.48-7.26.57-2.4,1.23-4.78,1.96-7.14s1.55-4.69,2.44-6.99c.11-.28.22-.56.33-.84.13-.34-.15-.78-.49-.86-.4-.09-.71.12-.86.49-.91,2.29-1.75,4.62-2.5,6.97-.76,2.36-1.44,4.75-2.03,7.16-.59,2.4-1.1,4.81-1.53,7.24-.44,2.48-.79,4.98-1.06,7.48-.27,2.45-.45,4.92-.55,7.39-.01.31-.02.63-.03.94-.01.36.33.71.7.7" fill="#718722"/><path d="M66.43,192.94c-1.63.59-2.67,2.56-2.12,4.21.58,1.74,2.86,2.7,4.48,1.84c1.56-.83,2.05-3.16.98-4.54.61.72,1.4,1.32,2.31,1.57.98.27,2.11.08,2.85-.61s.99-1.91.45-2.77c-.28-.44-.76-.72-1.27-.79.61-.36,1.1-.95,1.27-1.65.29-1.16-.3-2.48-1.35-3.03-.94-.49-2.17-.34-2.98.34-.08-.8-.43-1.57-.83-2.27-.43-.74-1.04-1.52-1.9-1.59-1.05-.09-1.91.98-1.98,2.03s.41,2.05.87,3c-.9-.63-2.24-.53-3.03.22-.79.76-.95,2.09-.36,3.02.54.85,1.65,1.26,2.62,1.02" fill="#ffa200"/><path d="M69.89,193.79c1.06-.22,1.74-1.25,1.52-2.31s-1.25-1.74-2.31-1.52-1.74,1.25-1.52,2.31s1.25,1.74,2.31,1.52" fill="#ffda00"/><path d="M59.73,216.29c1.02.54,2.15.87,3.27,1.14l.39-.44c-.68-2.22-2.18-4.18-4.15-5.4-.43-.27-.92-.51-1.41-.4-.54.11-.93.64-1,1.19s.11,1.1.38,1.59c.56,1.01,1.49,1.79,2.52,2.33" fill="#718722"/><path d="M70.94,209.37c.45-.12.91-.27,1.27-.57.36-.29.62-.77.53-1.23-.15-.78-1.12-1.08-1.91-1.03-2.04.12-3.76,1.48-5.33,2.77l-.08.66c1.86.09,3.73-.12,5.52-.61" fill="#718722"/><path d="M60.9,200.93c1.36,1.41,3.27,2.27,5.22,2.37l.41.39c-.79-1.83-1.9-3.52-3.27-4.96-.37-.39-.76-.77-1.25-.98s-1.1-.23-1.53.08c-.48.35-.64,1.02-.51,1.6s.51,1.07.92,1.5" fill="#718722"/></g></g></g></g><g clip-path="url(#epab3cAG2vk71)"><g><g><path d="M283.12,297.98c17.27,7.6,36.9,11.59,55.1,6.62s34.26-20.45,35.79-39.26l-2.73-7.31C370.2,251.16,365.4,245,359,242.26c-6.39-2.73-14.16-1.95-19.88,2.01-.11-5.35-3.63-10.47-8.58-12.5-4.95-2.02-11.05-.83-14.88,2.91-.69-10.9-12.14-18.85-23.06-18.64s-20.82,6.69-28.41,14.54c-8.1,8.37-14.55,19.35-13.81,30.97c1.09,17.15,17,29.5,32.73,36.42" fill="#66771e"/><path d="M305.75,294.54c8.95-1.44,17.39-5.02,25.73-8.57c3.77-1.61,7.77-3.4,10-6.84c2.49-3.85,2.17-8.92.78-13.28-1.98-6.19-6.12-11.87-11.96-14.72s-13.4-2.44-18.31,1.82c-1.66-8.72-8.84-16.14-17.5-18.07-8.66-1.94-18.32,1.72-23.52,8.91l-9.92,8.35c2.08,14.41,6.23,30.18,18.48,38.05c7.63,4.9,17.28,5.8,26.22,4.36" fill="#718722"/><path d="M306.78,295.25c5.17,4.37,12.22,5.6,18.9,6.66c33.86,5.39,67.71,10.79,101.57,16.18c6.83,1.09,14.11,2.08,20.94,1.42v-99.93c-6.01-3.38-13.49-4.23-20.01-1.91-8.94,3.18-15.53,12.1-15.94,21.58-7.14-4.39-18.05,1.03-18.86,9.38-6.42-6.03-16.01-8.47-24.54-6.25-8.52,2.21-15.71,9.02-18.39,17.41-8.18-4.22-17.59-6.52-26.69-5.08s-17.76,6.98-21.7,15.3-2.32,19.31,4.71,25.26" fill="#8faa2d"/><path d="M56.34,311.46c14.82,12,34.82,16.14,53.86,15.01s37.43-7.08,55.43-13.39c9.99-3.5,20.41-7.5,28.13-14.46c2.58.61,5.22,1.05,7.83,1.33c11.66,1.27,24.19-.14,33.62-7.12c9.43-6.97,14.52-20.57,9.2-31.02-3.32-6.52-9.98-10.81-16.95-13.07-8.32-2.7-17.41-2.78-25.84-.49-3.03-7.54-7.73-14.48-14.63-18.64-8.32-5.01-20.23-4.79-26.8,2.37.63-8.44-5.15-16.93-13.23-19.43-8.08-2.51-17.65,1.22-21.91,8.53-6.16-6.79-15.99-10.02-24.98-8.22s-16.81,8.57-19.88,17.21c-7.09-5.31-17.46-5.77-24.99-1.11s-11.75,14.14-10.16,22.85l-6.05,8.69c-5.86,18.15,2.54,38.95,17.36,50.95" fill="#66771e"/><path d="M128.526142,289.53c8.200001,1.56,13.273858-2.28,21.613858-2.62s16.86-2.77,23.08-8.32c6.23-5.55,9.69-14.6,7.19-22.56l-2.28-2.01c-1.73-5.61-6.64-10.12-12.38-11.38s-12.08.8-16,5.18c-2.12-5.36-5.78-10.24-10.81-13.05s-11.49-3.3-16.55-.55-8.23,8.97-6.76,14.54c-7.51-1.05-15.46,1.8-20.6,7.38s-7.32,13.73-5.66,21.14c11.99,2.28,17.78,10.63,29.77,12.91" fill="#718722"/><path d="M20.2,345.19c23.58-3.93,45.7-13.85,67.17-24.37c13.24-6.49,27.65-14.78,31.57-29c3.01-10.9-1.79-23.49-11.29-29.63s-22.95-5.33-31.65,1.89c2.07-6.07-.27-13.36-5.49-17.09s-12.88-3.57-17.94.36c-2.3-6.98-9.31-12.13-16.66-12.23s-14.5,4.86-16.98,11.78c-6.59-7.53-17.01-11.52-26.95-10.31-2.91.35-5.75,1.15-8.43,2.33v106.66c12.06,1.92,24.61,1.62,36.66-.38" fill="#8faa2d"/><path d="M448.19,319.51c-49.97-22.76-117.65-29.65-199.11-34.41-148.14-8.66-229.64,21.03-265.54,60.48L-18.32,567.5h464.64l1.86-247.99Z" fill="#9bbc49"/></g></g><clipPath id="epab3cAG2vk71"><rect width="428" height="478.737535" rx="0" ry="0" transform="matrix(1 0 0 1.261966 0 174.720662)" fill="#d2dbed" stroke-width="0"/></clipPath></g><g><g><path d="M395.35,489.13c.87,0,1.58-.71,1.58-1.58v-99.38h-15.3v99.38c0,.87.71,1.58,1.58,1.58h12.15Z" fill="#637984"/><polygon points="381.63,395.85 396.92,406.46 396.92,395.85 381.63,395.85" fill="#180205"/><path d="M44.8,489.13c.87,0,1.58-.71,1.58-1.58v-99.38h-15.3v99.38c0,.87.71,1.58,1.58,1.58h12.15Z" fill="#637984"/><polygon points="31.08,395.85 46.37,406.46 46.37,395.85 31.08,395.85" fill="#180205"/><path d="M359.78,489.13c.87,0,1.58-.71,1.58-1.58v-184.97h-15.3v184.97c0,.87.71,1.58,1.58,1.58h12.15Z" fill="#44575e"/><polygon points="346.06,315.66 361.36,321.69 361.36,315.66 346.06,315.66" fill="#180205"/><polygon points="346.06,340.64 361.36,346.67 361.36,340.64 346.06,340.64" fill="#180205"/><polygon points="346.06,365.62 361.36,371.66 361.36,365.62 346.06,365.62" fill="#180205"/><polygon points="346.06,395.85 361.36,406.46 361.36,395.85 346.06,395.85" fill="#180205"/><path d="M80.37,489.13c.87,0,1.58-.71,1.58-1.58v-184.97h-15.3v184.97c0,.87.71,1.58,1.58,1.58h12.15Z" fill="#44575e"/><polygon points="66.64,315.66 81.94,321.69 81.94,315.66 66.64,315.66" fill="#180205"/><polygon points="66.64,340.64 81.94,346.67 81.94,340.64 66.64,340.64" fill="#180205"/><polygon points="66.64,365.62 81.94,371.66 81.94,365.62 66.64,365.62" fill="#180205"/><polygon points="66.64,395.85 81.94,406.46 81.94,395.85 66.64,395.85" fill="#180205"/><rect width="327.33" height="15.36" rx="0" ry="0" transform="translate(50.33 300.3)" fill="#904a1e"/><rect width="327.33" height="15.36" rx="0" ry="0" transform="translate(50.33 325.28)" fill="#904a1e"/><rect width="327.33" height="15.36" rx="0" ry="0" transform="translate(50.33 350.26)" fill="#904a1e"/><rect width="396.61" height="15.36" rx="0" ry="0" transform="translate(15.7 380.49)" fill="#904a1e"/></g></g><g transform="translate(-.240533 0.000001)"><g id="epab3cAG2vk94_tr" transform="translate(321.116455,252.630768) rotate(0)"><g transform="translate(-331.55423,-238.020545)"><path d="M323.91,235.23c-1.16.96-1.47,2.81-.68,4.1.64,1.04,1.94,1.61,3.15,1.46-1.08.54-1.73,1.95-1.35,3.13.47,1.46,2.24,2.29,3.73,1.88c1.48-.41,2.54-1.88,2.66-3.41-.21,1.66.97,3.38,2.59,3.78s3.47-.56,4.07-2.12c.59-1.56-.14-3.51-1.62-4.29c1.6.49,3.47-.71,3.8-2.35s-.83-3.41-2.44-3.87c-1.5-.43-3.21.24-4.14,1.49.85-1.42.58-3.45-.7-4.52-1.37-1.14-3.67-.92-4.76.49s-.68,3.73.84,4.65l-.99-.31c-1.12-1.02-2.99-1.06-4.15-.1" fill="#ffa200"/><path d="M334.45,238.99c0-1.58-1.28-2.86-2.86-2.86s-2.86,1.28-2.86,2.86s1.28,2.86,2.86,2.86s2.86-1.28,2.86-2.86" fill="#ffda00"/></g></g><g id="epab3cAG2vk97_tr" transform="translate(107.249969,244.390564) rotate(0)"><path d="M102.04,247.16c-1.08.54-1.73,1.95-1.35,3.13.47,1.46,2.24,2.29,3.73,1.88c1.48-.41,2.54-1.88,2.66-3.41-.21,1.66.97,3.38,2.59,3.78s3.47-.56,4.07-2.12c.59-1.56-.14-3.51-1.62-4.29c1.6.49,3.47-.71,3.8-2.35s-.83-3.41-2.44-3.87c-1.5-.43-3.21.24-4.14,1.49.85-1.42.58-3.45-.7-4.52-1.37-1.14-3.67-.92-4.76.49s-.68,3.73.84,4.65l-.99-.31c-1.12-1.02-2.99-1.06-4.15-.1s-1.47,2.81-.68,4.1c.64,1.04,1.94,1.61,3.15,1.46" transform="translate(-107.219234,-244.390564)" fill="#ffa200"/></g><path d="M107.25,248.23c1.58,0,2.86-1.28,2.86-2.86s-1.28-2.86-2.86-2.86-2.86,1.28-2.86,2.86s1.28,2.86,2.86,2.86" fill="#ffda00"/></g><g transform="translate(-.000002 0)"><g transform="translate(-.3081 0)"><path d="M272.73,350l-3.48-10.84c0,0-22.34-.99-22.53.58-.18,1.58,5.35,14.69,6.83,14.69s19.18-4.43,19.18-4.43" fill="#123245"/><path id="epab3cAG2vk102" d="M19.72,90.29c8.48,4.93,16.96,7.42,26.75,6.8L73.8,83.43c3.48-9.81,4.766275-16.307381,4.276275-26.697381s-3.106275-24.772619-11.136275-31.392619c-3.79-3.12-8.31-5.26-12.07-8.42-5.32-4.47-9.04-10.89-15.16-14.19C30,-2.5,16.42,-0.28,11.77,9.97C4.72,9.23,-3.92,16.2,1.93,35.35c1.6,5.25,4.25,12.22,3.38,17.64-2.51,15.65,2.97,30.65,14.4,37.3" transform="translate(199.174249 189.996141)" fill="#070707"/><path d="M199.27,323.1c1.96-2.48,3.05-4.54,3.63-6.17l.39.24c2.07-9.27-1.91-18.29-1.91-18.29l-13.19-3.69c0,0-2.03,6.36-3.69,10.27-2.58,3.48-6.77,4.59-6.77,4.59l-2.55,16.86c0,0,18.44,3.32,24.1-3.82" fill="#94191c"/><path d="M280.25,278.3c-3.21-23.07-22.26-27.08-22.26-27.08l-39.14,1.38c0,0-9.79.42-16.99,9.35s-10.8,12.53-11.08,20.84s4.71,20.22,6.92,24.37c2.22,4.15.55,15.23.55,15.23s29.79,28.53,74.48,22.25c-1.29-3.82-2.66-7.87-3.03-11.16c9.71-14.69,13.22-35.96,10.55-55.19" transform="translate(-.261535 0)" fill="#94191c"/><path d="M197.24,321.18c-.08.36.11.73.47.83.34.09.76-.11.83-.47.68-3.16.85-6.43.49-9.64-.37-3.26-1.25-6.44-2.61-9.43-.75-1.65-1.66-3.22-2.71-4.69-.21-.3-.59-.44-.93-.24-.29.17-.46.63-.24.93c1.81,2.54,3.19,5.36,4.08,8.35.89,2.97,1.32,6.06,1.24,9.16-.04,1.75-.25,3.49-.62,5.2" fill="#180205"/><g transform="translate(163.955 187.92876)"><g><path d="M9.57,40.2l.02-.04c0,0-.02.04-.02.04" fill="#718722"/><path d="M20.27,21.87c0,0-.01.02,0,0s.02-.02,0,0" fill="#718722"/><path d="M0,37.93v0c0,0,0,.03,0,0" fill="#718722"/><path d="M116.47,8.73v.02c0,0,0-.03,0-.02" fill="#230000"/><path d="M76.95,36.02c.06-1.57,1.62-2.83,3.16-2.63.18.02.34-.17.34-.34c0-.2-.16-.32-.34-.34-1.91-.24-3.77,1.41-3.84,3.31-.02.44.66.44.68,0" fill="#180205"/><path d="M74.18,38.06c.37-7.29.63-5.64-1.03-2.22c0,0-2.364476,10.38-6.884476,3.55s-.735524-4.78-3.775524-.81c0,0-1.49-2.404733-2.13,4.515267c10.496508,3.606173-11.374271,12.923729.62,13.245973c0,0,.64,5.69.27,7.54L55.56,65.29c0,0,2.87,8.81,16.71,9.32C89.53,75.26,94.7,63.9,94.7,63.9L84.54,61.5c0,0-6.83-9.05-8.12-19.57c0,0-3.009999,2.82-2.64-4.48" fill="#753c07"/><path d="M61.63,63.51c-.42-3.1-.91-6.99-.9-6.97c0,0-7.3.31-10.69-8.58-1.69-4.42-3.03-11.97-3.94-18.19-.81-5.59,2.78-13.93,9.67-15.01l3.01-.83l12.45,2.86c1.71-.17,3.27.99,3.59,2.67l6.64,41.62-5.58,12.47-13.39-5.37-.85-4.68Z" fill="#753c07"/><g id="epab3cAG2vk126_ts" transform="translate(52.550001,36.305002) rotate(-13.397854) scale(1,1)"><path d="M51.36,36.49c.11.63.73,1.05,1.39.95s1.1-.69.99-1.32-.73-1.05-1.39-.95-1.1.69-.99,1.32Z" transform="translate(-52.550001,-36.305002)"/></g><path d="M48.95,32.49c.18.12.93-.73,2.2-.99c1.27-.28,2.33.18,2.44,0c.05-.08-.15-.33-.62-.54-.46-.21-1.2-.35-1.99-.18s-1.39.6-1.71.98c-.33.38-.4.69-.31.74Z"/><path d="M58.45,41.33c0-.07-.83-.04-2.14.06-.33.03-.65.03-.75-.18-.13-.22-.06-.6.01-1.01.14-.85.29-1.74.44-2.67.59-3.79.95-6.89.8-6.91s-.76,3.04-1.35,6.83c-.14.93-.27,1.82-.4,2.68-.05.39-.17.86.1,1.31.14.22.41.35.63.36.22.02.4-.02.57-.04c1.3-.2,2.1-.36,2.09-.44Z"/><path d="M60.73,56.54c0,0,6.27-.9,11.63-5.88c0,0-1.94,7.07-11.33,8.14l-.3-2.27Z" fill="#301b18"/><path id="epab3cAG2vk130" d="M63.19,44.27c-.2-.08-.63,1.26-2.09,1.84-1.45.58-2.83-.03-2.9.15-.05.08.23.36.83.57.58.21,1.51.3,2.4-.05.89-.36,1.44-1.04,1.67-1.57.23-.54.19-.92.1-.95Z" transform="translate(-.02033 0.02033)"/><path d="M48.34,29.67c.28.27,1.21-.15,2.36-.29c1.15-.18,2.16-.04,2.35-.37.08-.16-.11-.44-.56-.67s-1.18-.38-1.98-.26c-.79.11-1.45.45-1.82.8-.38.35-.48.66-.35.79Z"/><g id="epab3cAG2vk132_ts" transform="translate(64.195004,33.990002) rotate(-14.757491) scale(1,1)"><path d="M65.37,33.72c.13.62-.29,1.25-.94,1.4s-1.28-.24-1.41-.86.29-1.25.94-1.4s1.28.24,1.41.86Z" transform="translate(-64.195004,-33.990002)"/></g><path d="M65.93,29.39c-.12.18-1.14-.33-2.41-.11-1.28.2-2.11,1.02-2.27.89-.08-.06.02-.36.38-.73.35-.37.99-.77,1.79-.9s1.52.05,1.95.28c.44.23.63.49.57.57Z"/><path d="M64.53,25.41c-.2.33-1.24.2-2.43.39-1.19.15-2.16.57-2.44.31-.13-.13-.02-.45.37-.8s1.07-.7,1.89-.81c.82-.12,1.57.03,2.03.25.47.23.66.5.57.66Z"/><path d="M75.61,35.31c-.14-.69.31-2.47.96-2.72c1.75-.66,5.04-1.2,6.03,3.38c1.36,6.26-5.21,6.34-5.26,6.16-.04-.14-1.24-4.46-1.73-6.83Z" fill="#753c07"/><path d="M78.58,39.47c0,0,.13.05.33.1.2.04.52.03.82-.16.61-.39.94-1.56.72-2.69-.11-.57-.34-1.09-.64-1.5-.29-.42-.66-.67-1-.66-.35,0-.54.25-.58.44-.05.19.02.31,0,.33-.01.02-.16-.08-.16-.34c0-.13.04-.29.16-.45.12-.15.33-.26.57-.29.49-.07,1.02.28,1.35.72.36.44.64,1.02.76,1.66.23,1.27-.16,2.59-1,3.05-.42.21-.81.16-1.03.05-.23-.11-.29-.25-.27-.26Z"/><path d="M81.94,38.52c0,0,.36.03.94.32.57.28,1.37.9,1.82,1.99.23.53.36,1.18.33,1.86-.05.68-.26,1.41-.66,2.07-.39.66-.98,1.27-1.71,1.68-.73.42-1.62.63-2.51.56s-1.74-.38-2.42-.88-1.18-1.19-1.45-1.91c-.55-1.46-.27-2.97.37-3.94.33-.49.74-.83,1.12-1.09s.75-.42,1.06-.51.56-.12.73-.12.26.02.26.03c0,.03-.36-.04-.96.17-.3.11-.65.27-1.02.53-.36.26-.76.6-1.06,1.07-.59.94-.84,2.39-.31,3.79.27.69.74,1.34,1.39,1.81.65.48,1.46.77,2.31.84s1.69-.12,2.39-.53c.7-.4,1.26-.97,1.64-1.6.39-.63.6-1.32.66-1.98.04-.66-.07-1.27-.29-1.79-.42-1.05-1.17-1.67-1.72-1.97-.56-.3-.91-.37-.9-.4Z" fill="#e1e1e1"/></g></g><g transform="translate(221.270287 253.727133)"><path d="M29.1,5.76c2.6-1.16,5.01-2.72,7.14-4.61.27-.24.25-.71,0-.96-.27-.27-.68-.24-.96,0-3.61,3.2-8.1,5.35-12.84,6.24-4.76.89-9.72.39-14.25-1.33-2.52-.96-4.92-2.32-7.04-4.01-.29-.23-.68-.28-.96,0-.23.24-.28.73.01.96C4.24,5.28,9.1,7.33,14.22,8c5.06.66,10.23-.16,14.88-2.24" fill="#180205"/></g><path d="M247.38,308.73c.48-1.78.95-3.57,1.43-5.35l2.27-8.49.52-1.95c.23-.84-1.08-1.2-1.31-.36-.48,1.78-.95,3.57-1.43,5.35-.76,2.83-1.52,5.66-2.27,8.49l-.52,1.95c-.23.84,1.08,1.2,1.31.36" fill="#180205"/><path d="M256.97,286.12l-28.53-31.57c0,0-13.11,1.48-23.38,4.08-10.27,2.61-19.63,7.55-19.63,7.55s-5.18-4.99-14.23-6.18-21.6-2.31-21.6-2.31l-3.82,4.63l33.73,16.74l75.93,14.32l1.52-7.25Z" fill="#fcf4e6"/><polygon points="214.04,303.84 256.97,295.19 228.08,260.62 190.77,268.67 183.3,268.67 143.69,261.95 171.11,295.19 202.69,302.46 214.04,303.84" fill="#9cc1cd"/><polygon points="190.77,268.67 183.3,268.67 202.69,302.46 214.04,303.84 190.77,268.67" fill="#1058c1"/><g id="epab3cAG2vk144_tr" transform="translate(221.02,303.84) rotate(0)"><path d="M206.01,298.88l5.91,4.96c0,0,6.46-3.09,9.23-6.16c0,0-4.8-3.35-5.54-11.47s-4.71-7.57-6.55-6.65c-1.85.92-1.38,3.69-3.97,4.25-2.59.55-12.37-6.09-16.71-4.34s-3.32,6.83-.55,10.06s9.23,8.09,18.19,9.35" transform="translate(-221.02,-303.839996)" fill="#753c07"/></g><path d="M261.13,339.01c11.09-1.58,17.48-20.86,19.1-39.31.93-10.57-33.5,8.85-33.5,8.85-4.71-1.38-27.14-13.36-27.14-13.36-4.99,4.92-9.69,8.1-9.69,8.1c5.54,8.31,33.79,38.22,51.24,35.73" transform="translate(-.339872 0)" fill="#94191c"/><path d="M260.95,338.36h-.04c0,0,0,0,.04,0" fill="#180205"/><path d="M256.6,338.32v0" fill="#180205"/><path d="M249.15,309.09c-.07-.03.12.05,0,0" fill="#180205"/><path d="M219.24,295.77c.15.08.31.16.46.24.12-.12.24-.23.36-.34-.27.04-.55.07-.82.11" fill="#180205"/><path d="M211.91,304.93l-.04-.05c0,0,0,0,.04.05" fill="#180205"/><path d="M210.23,303.87c.2-.14.4-.28.6-.42-.12-.17-.24-.34-.36-.51-.08.31-.16.62-.24.93" fill="#180205"/><path d="M177.67,282.23c-1.48-3.52-13.08-10.58-19.57-2.82-6.5,7.77,2.77,18.27,2.77,18.27l2.59,7.27c5.54,2.03,13.66-2.59,13.66-2.59l-1.85-2.58c1.85-5.91-.55-8.33-.55-8.33c3.14-1.87,4.43-5.7,2.95-9.22" fill="#753c07"/><path d="M184.5,305.46c0,0-5.55-2.52-7.2-4.81c0,0-4.99,2.82-15.14,3.19c0,0,3.51,18.28,13.02,23.08l9.32-21.46Z" fill="#94191c"/><path d="M137.23,441.4c1.85-5.54,5.17-11.45,16.62-22.53s24.43-32.5,24.43-32.5s23.95,2.59,38.35,5.17c14.4,2.59,37.78,5.97,49.85-10.71c11.62-16.06,6.25-30.84,6.25-30.84l-12.16.55c0,0-29.89-25.65-48.75-29.17-18.85-3.52-40.25-1.85-52.07,15.51s-40.62,95.64-40.62,95.64c10.34,15.51,18.09,8.86,18.09,8.86" fill="#123245"/><path d="M260.57,386.9c-28.21,9.2-44.55-17.41-44.55-17.41l4.42,22.72c12.15,1.98,28.62,3.4,40.13-5.31" fill="#180205"/><path d="M160.34,337.23c2.62-3.83,5.94-7.17,9.82-9.73c3.7-2.44,7.81-4.17,12.1-5.27c8.74-2.26,18.02-2.04,26.89-.62c1.84.29,3.67.63,5.47,1.14c1.71.49,3.39,1.09,5.03,1.76c3.68,1.5,7.22,3.34,10.67,5.32c6.84,3.92,13.35,8.42,19.64,13.16c3.4,2.56,6.73,5.2,9.99,7.94.05.04.1.08.15.13.66.56,1.62-.39.96-.96-2.77-2.37-5.64-4.63-8.53-6.85-6.19-4.75-12.59-9.27-19.3-13.28-3.52-2.11-7.13-4.08-10.88-5.76-3.28-1.47-6.7-2.76-10.24-3.44-9.02-1.72-18.46-2.24-27.51-.44-8.99,1.79-17.36,6.19-23.24,13.33-.77.94-1.5,1.91-2.18,2.91-.49.72.68,1.4,1.17.68" fill="#180205"/><path d="M219.21,451c0,0,2.4-30.65,1.94-48.38s-8.2-64.94-35.72-58.69-8.3,55.73,0,67.55s14.49,36.19,14.9,42.1c0,0,10.76.74,18.88-2.58" fill="#123245"/><path d="M173.83,354.27l.02-.04c-.02.06-.02.06-.02.04" fill="#180205"/><path d="M176.06,350.4v0c0,0-.03.03,0,0" fill="#180205"/><path d="M172.13,360.75v-.04c0,0,0,.05,0,.04" fill="#180205"/><path d="M178.74,347.7c0,0-.02.02,0,0s.05-.04,0,0" fill="#180205"/><path d="M179.62,398.86c0,0,0,.02,0,0s-.01-.03,0,0" fill="#180205"/><path d="M197.16,345.42h.03c-.05,0-.06,0-.03,0" fill="#180205"/><path d="M182.27,345.65h.03c0,0,0-.02-.03,0" fill="#180205"/><path d="M219.5,391.08l.03.25c.08.62.16,1.24.23,1.85.26,2.23.46,4.46.59,6.7.05.91.09,1.82.12,2.73.02.87,1.38.87,1.35,0-.05-2.05-.19-4.09-.37-6.13-.23-2.51-.53-5.02-.9-7.51-.4-2.73-.89-5.44-1.46-8.13-.6-2.84-1.3-5.66-2.12-8.45s-1.76-5.54-2.86-8.23c-1.07-2.61-2.27-5.16-3.69-7.59-1.33-2.27-2.85-4.45-4.62-6.41-1.63-1.81-3.5-3.44-5.59-4.7-2.03-1.23-4.29-2.1-6.64-2.5-2.6-.44-5.24-.33-7.82.2-2.48.51-4.9,1.42-7,2.85-1.91,1.3-3.52,3-4.75,4.96-1.24,1.98-2.09,4.2-2.64,6.46-.6,2.48-.86,5.03-.91,7.58-.05,2.74.14,5.49.5,8.2.38,2.89.92,5.76,1.6,8.59.67,2.8,1.46,5.56,2.35,8.3.85,2.61,1.8,5.19,2.83,7.74.94,2.31,1.94,4.59,3.03,6.83.87,1.78,1.8,3.55,2.83,5.25.39.65.8,1.28,1.23,1.9.21.3.59.44.93.24.3-.17.45-.63.24-.93-.97-1.38-1.82-2.85-2.62-4.34-1.05-1.95-2.02-3.95-2.92-5.97-.25-.56-.5-1.13-.74-1.7-.03-.07-.06-.14-.09-.2l-.03-.07c0,0,.02.04,0,0-.01-.03-.01-.02,0,0v-.03c-.08-.16-.15-.31-.21-.47-.12-.3-.25-.6-.37-.89-.5-1.23-.98-2.47-1.44-3.72-.96-2.63-1.84-5.29-2.61-7.99-.79-2.75-1.46-5.54-2-8.35-.53-2.78-.89-5.35-1.07-8.19-.17-2.6-.16-5.22.13-7.82.02-.14.03-.29.05-.43c0-.07.02-.14.03-.21c0,0,0,0,0-.04v.04c0,0,.01-.13.02-.16.04-.3.09-.61.14-.91.1-.59.22-1.18.36-1.77.27-1.13.61-2.24,1.03-3.32.04-.11.09-.22.13-.33c0,.02,0,.02.01-.04v.04c0,0,.03-.12.04-.13.03-.07.06-.14.09-.21.11-.25.23-.51.36-.76.25-.49.52-.98.81-1.44s.59-.9.92-1.33c-.02.03-.04.05,0-.01v0l.05-.06c0,0,.08-.1.12-.15.09-.11.18-.22.28-.33.18-.21.36-.41.55-.61.38-.4.78-.78,1.19-1.13.1-.08.2-.17.3-.25.06-.05.12-.09.17-.14h.02c0,0-.03.01,0-.02.05-.04.02-.01,0,0l.07-.05c.22-.17.45-.33.69-.49.48-.32.97-.62,1.48-.89.26-.14.53-.27.79-.4.13-.06.25-.12.38-.17.02,0,.13-.06.15-.07h-.03c0,0,.04,0,.03,0c.06-.03.13-.05.19-.08c1.2-.49,2.46-.84,3.73-1.1.33-.07.67-.13,1-.18.08-.01.15-.02.23-.03.02,0,.11-.02.14-.02h-.02c0,0,.04,0,.02,0c.17-.02.33-.04.5-.06.63-.07,1.27-.11,1.91-.12.61,0,1.23.01,1.84.06.29.02.58.06.87.09-.04,0-.05,0,.02,0h.08c.07.02.14.03.2.04.16.02.31.05.46.08c1.14.21,2.26.53,3.34.96.11.04.23.09.34.14-.02,0-.02,0,.03.01h-.03c0,0,.12.04.14.04.07.03.14.06.21.09.26.12.52.24.78.37.51.26,1.01.54,1.5.85s.97.64,1.44.98c.05.04.11.08.16.12.02.01.07.06.1.07l-.02-.02c0,0,.04.03.02.02.12.09.23.18.35.27.23.19.46.38.68.57.91.8,1.77,1.66,2.57,2.57.88,1,1.52,1.83,2.27,2.89c1.54,2.19,2.85,4.54,4,6.96.61,1.28,1.14,2.5,1.65,3.76.53,1.33,1.03,2.67,1.49,4.02.93,2.73,1.73,5.51,2.42,8.31.68,2.73,1.25,5.49,1.74,8.26.23,1.32.44,2.64.64,3.96.05.32.09.64.14.96.02.15.04.3.06.44s0,.04,0,0l.02.13" fill="#180205"/><path d="M201.46,347.96l.02.02c0,0,.02.01-.02-.02" fill="#180205"/><path d="M192.71,344.2h.02c-.07,0-.06,0-.02,0" fill="#180205"/><path d="M187.57,344.23h.02c0,0,.02,0-.02,0" fill="#180205"/><path d="M115.63,467.25c10.16-.37,18.28-4.62,19.39-5.72c1.11-1.11,2.03-2.22,2.22-8.86.18-6.65,0-11.26,0-11.26-6.28.74-7.02-3.32-10.16-6.65-3.14-3.32-7.33-3.77-7.94-3.88-1.85-.31-7.2,8.49-12.56,13.66-5.35,5.17-12.74,5.54-12.74,10.89c0,7.57,11.63,12.19,21.79,11.82" fill="#ce7127"/><path d="M115.63,467.25c10.16-.37,18.28-4.62,19.39-5.72c1.09-1.09,2-2.18,2.2-8.5-12.36,1.42-11,7.8-23.99,8.5-9.42.51-16.11-3.81-19.37-6.54-.01.14-.02.29-.02.44c0,7.57,11.63,12.19,21.79,11.82" fill="#fff"/><path d="M219.03,449.52c-2.71-.55-4.8,2.22-10.59,2.95-4.52.58-6.05-1.22-8.22,0-2.18,1.22-2.42,7.75-2.42,14.03s-2.95,12-2.77,15.69s2.58,7.57,13.48,6.83c10.89-.74,13.23-4.43,12.71-10.34s0-10.03,1.8-15.76c1.24-3.95-1.17-12.84-3.98-13.42" fill="#ce7127"/><path d="M208.5,489.04c9.87-.67,12.71-3.76,12.77-8.73-10.53,5.25-21.3,3.74-26.19,2.59.46,3.47,3.21,6.83,13.42,6.14" fill="#fff"/><path d="M213.64,452.39c.95-.4,1.86-.88,2.72-1.44.31-.2.43-.6.24-.93-.18-.3-.62-.44-.93-.24-2.84,1.86-6.22,2.77-9.61,2.61-.94-.04-1.87-.18-2.78-.39-.36-.08-.73.11-.83.47-.09.34.12.75.47.83c3.56.84,7.35.51,10.72-.91" fill="#180205"/><path d="M127.14,435.51c1.76,1.96,2.63,4.6,4.89,6.11c1.18.8,2.68,1.2,4.07.77.83-.26.48-1.56-.36-1.31-1.05.32-2.11-.02-3.03-.64-1.02-.68-1.73-1.71-2.38-2.73-.71-1.1-1.38-2.23-2.26-3.21-.81-.9-1.78-1.67-2.83-2.27-1.2-.7-2.54-1.18-3.91-1.42-.36-.06-.73.1-.83.47-.09.33.11.77.47.83c2.37.4,4.56,1.58,6.17,3.37" fill="#180205"/></g></g><g clip-path="url(#epab3cAG2vk186)"><g><g><g><path d="M274.91,423.65c-.08-.06.09.07,0,0" fill="#230000"/><path d="M248.16,488.51c-11.25-16.5-32.49-25.03-51.61-20.75-3.46-11.14-12.77-20.14-23.78-22.98s-23.35.57-31.49,8.71c-3.55-9.94-15.38-15.78-25.12-12.41-1.18-8.48-6.43-16.26-13.74-20.36-7.31-4.09-16.5-4.4-24.06-.81c4.45-21.74-7.07-45.87-26.51-55.51-16.53-8.2-37.45-5.25-51.78,6.37v129.84h253.6c-.96-4.34-3.02-8.45-5.52-12.11" fill="#859b27"/><path d="M166.8,456.02c-.03.07-.01.03,0,0s.02-.06,0,0" fill="#718722"/></g><g><path d="M262.73,445.91c-7.47,9.3-9.17,22.89-4.21,33.74c37.25,9.31,122.54,5.33,170.19-.3v-142.92c-11.24-1.49-23.02,1.14-32.46,7.45-11.28,7.55-18.99,20.21-20.51,33.7-5.02-1.08-10.54.57-14.14,4.24-3.59,3.67-5.14,9.23-3.95,14.22-7.87-3.37-17.25-3.02-24.85.93s-13.27,11.42-15.04,19.8c-5.37-2.88-12.41-2.3-17.24,1.42s-7.18,10.38-5.76,16.31c-11.67-2.5-24.57,2.09-32.04,11.39" fill="#859b27"/><g id="epab3cAG2vk184_to" transform="translate(336.034981,454.998428)"><path d="M428.71,383.67c-10.69-2.97-22.51-1.91-32.4,3.15-12.27,6.28-21.27,18.56-23.57,32.15-10.54-2.16-21.95,6.54-22.67,17.27-9.85-9.19-25.89-9.99-37.61-3.35s-19.07,19.62-20.74,32.99c-12.21-7.92-29.73-2.61-38.91,8.68-4.93,6.06-7.88,45.73-9.45,53.41h185.35v-144.31Z" transform="translate(-336.034981,-454.998428)" fill="#8faa2d"/></g></g><g id="epab3cAG2vk185_to" transform="translate(157.895007,457.096573)"><path d="M165.7,483.27c32.07-10.05,68.82-.04,95.61,20.23c0,0,30.86-1.6,45,15.48l9.42,13.32h-315.67v-150.1c15.16-1.56,30.94,2.87,42.92,12.34c14.11,11.16,22.62,29.05,22.38,47.04c8.33-4.37,20.12,2.79,20.07,12.2c10.16-4.3,21.83-6.44,32.22-2.74c10.4,3.69,18.72,14.5,16.85,25.37c10.24-5.37,24.15-2.31,31.19,6.86" transform="translate(-157.895007,-457.096573)" fill="#98af35"/></g></g></g><clipPath id="epab3cAG2vk186"><rect width="428" height="308.69" rx="0" ry="0" transform="translate(-.35 321.69)" fill="#d2dbed" stroke-width="0"/></clipPath></g><g id="epab3cAG2vk289_to" transform="translate(261.920006,96.584778)"><path d="M244.84,84.72c8.66-1.24,17.76,4.85,19.94,13.34c3.86-3.25,9.38-4.41,14.23-2.99c4.84,1.42,8.86,5.39,10.35,10.22c12.09-3.37,25.39-2.16,36.68,3.32h-128.24c7.75-8.47,21.94-8.87,31.62-5.5-.28-8.76,6.75-17.15,15.42-18.39" transform="translate(-261.920006,-96.584778)" fill="#fff"/></g><g transform="translate(.000001 0.000001)"><circle r="39.86" transform="matrix(1.060712 0 0 1.060712 215.71 84.39)" opacity="0.4" filter="url(#epab3cAG2vk291-filter)" fill="#ffda00"/><circle r="39.86" transform="matrix(.774036 0 0 0.774036 215.710002 84.39)" fill="#ffda00"/></g><g id="epab3cAG2vk293_to" transform="translate(158.450008,71.05204)"><path d="M215.8,81.03c-4.72-3.79-11.52-4.81-17.14-2.56-.18-3.66-5.06-6.1-8.09-4.04c0-12.39-11.85-23.47-24.21-22.62s-22.6,13.44-20.91,25.71c-5.48-2.77-13.1.58-14.77,6.49-11.71-4.86-26.15-2.28-35.46,6.33h126.46c-.91-3.62-2.96-6.96-5.88-9.3" transform="translate(-158.450008,-71.05204)" fill="#fff"/></g><g mask="url(#epab3cAG2vk345)"><g id="epab3cAG2vk295_to" transform="translate(757.029937,81.270002)"><g transform="translate(-189.324501,-81.27)"><g transform="translate(-135.511003 0)" opacity="0.5"><path d="M30.82,28.19c21.06-.21,44.22-.21,65.28,0-21.06.21-44.22.21-65.28,0v0Z" fill="#fff"/></g><g opacity="0.5"><path d="M90.78,44.53c25.08-.22,52.67-.22,77.75,0-25.08.22-52.67.22-77.75,0v0Z" fill="#fff"/></g><g opacity="0.5"><path d="M361.77,105.79c25.08-.22,52.67-.22,77.75,0-25.08.22-52.67.22-77.75,0v0Z" fill="#fff"/></g><g opacity="0.5"><path d="M335.14,76.02c25.08-.22,52.67-.22,77.75,0-25.08.22-52.67.22-77.75,0v0Z" fill="#fff"/></g><g opacity="0.5"><path d="M405.59,90.34c25.08-.22,52.67-.22,77.75,0-25.08.22-52.67.22-77.75,0v0Z" fill="#fff"/></g><g opacity="0.5"><path d="M-32.25,105.79c25.08-.22,52.67-.22,77.75,0-25.08.22-52.67.22-77.75,0v0Z" fill="#fff"/></g><g opacity="0.5"><path d="M321.11,20.17c25.08-.22,52.67-.22,77.75,0-25.08.22-52.67.22-77.75,0v0Z" fill="#fff"/></g><g opacity="0.5"><path d="M216.7,31.25c25.08-.22,52.67-.22,77.75,0-25.08.22-52.67.22-77.75,0v0Z" fill="#fff"/></g><g opacity="0.5"><path d="M221.69,118.53c25.08-.22,52.67-.22,77.75,0-25.08.22-52.67.22-77.75,0v0Z" fill="#fff"/></g><g opacity="0.5"><path d="M165.99,142.37c25.08-.22,52.67-.22,77.75,0-25.08.22-52.67.22-77.75,0v0Z" fill="#fff"/></g><g opacity="0.5"><path d="M30.21,82.93c25.08-.22,52.67-.22,77.75,0-25.08.22-52.67.22-77.75,0v0Z" fill="#fff"/></g><g opacity="0.5"><path d="M80.95,118.94c25.08-.22,52.67-.22,77.75,0-25.08.22-52.67.22-77.75,0v0Z" fill="#fff"/></g></g></g><g id="epab3cAG2vk320_to" transform="translate(757.029937,81.270001)"><g transform="translate(-189.324501,-81.27)"><g transform="translate(-135.511003 0)" opacity="0.5"><path d="M30.82,28.19c21.06-.21,44.22-.21,65.28,0-21.06.21-44.22.21-65.28,0v0Z" fill="#fff"/></g><g opacity="0.5"><path d="M90.78,44.53c25.08-.22,52.67-.22,77.75,0-25.08.22-52.67.22-77.75,0v0Z" fill="#fff"/></g><g opacity="0.5"><path d="M361.77,105.79c25.08-.22,52.67-.22,77.75,0-25.08.22-52.67.22-77.75,0v0Z" fill="#fff"/></g><g opacity="0.5"><path d="M335.14,76.02c25.08-.22,52.67-.22,77.75,0-25.08.22-52.67.22-77.75,0v0Z" fill="#fff"/></g><g opacity="0.5"><path d="M405.59,90.34c25.08-.22,52.67-.22,77.75,0-25.08.22-52.67.22-77.75,0v0Z" fill="#fff"/></g><g opacity="0.5"><path d="M-32.25,105.79c25.08-.22,52.67-.22,77.75,0-25.08.22-52.67.22-77.75,0v0Z" fill="#fff"/></g><g opacity="0.5"><path d="M321.11,20.17c25.08-.22,52.67-.22,77.75,0-25.08.22-52.67.22-77.75,0v0Z" fill="#fff"/></g><g opacity="0.5"><path d="M216.7,31.25c25.08-.22,52.67-.22,77.75,0-25.08.22-52.67.22-77.75,0v0Z" fill="#fff"/></g><g opacity="0.5"><path d="M221.69,118.53c25.08-.22,52.67-.22,77.75,0-25.08.22-52.67.22-77.75,0v0Z" fill="#fff"/></g><g opacity="0.5"><path d="M165.99,142.37c25.08-.22,52.67-.22,77.75,0-25.08.22-52.67.22-77.75,0v0Z" fill="#fff"/></g><g opacity="0.5"><path d="M30.21,82.93c25.08-.22,52.67-.22,77.75,0-25.08.22-52.67.22-77.75,0v0Z" fill="#fff"/></g><g opacity="0.5"><path d="M80.95,118.94c25.08-.22,52.67-.22,77.75,0-25.08.22-52.67.22-77.75,0v0Z" fill="#fff"/></g></g></g><mask id="epab3cAG2vk345" mask-type="luminance"><rect width="428" height="269.209015" rx="0" ry="0" transform="translate(0 0.000001)" fill="#d2dbed" stroke-width="0"/></mask></g><g mask="url(#epab3cAG2vk375)"><g id="epab3cAG2vk348_to" style="offset-path:path('M-69.387233,189.866048C45.557814,99.753077,216.691086,220.77408,476.23056,97.910386');offset-rotate:0deg"><g transform="scale(0.248157,0.248157) translate(-112.994757,-61.031353)"><g><g id="epab3cAG2vk350_tr" transform="translate(115.614999,28.356675) rotate(0)"><g transform="translate(-115.614999,-28.356675)"><path d="M88.76,63.71C68.73,50.78,56.85,30.81,55.82,11.87C73.51,5,96.6,7.6,116.63,20.53c.5.32,1,.65,1.49.98c34.14,23.1,7.26,64.75-27.85,43.16-.5-.31-1.01-.63-1.51-.95Z" fill="#4c3125"/><path d="M88.76,63.71c.5.32,1,.64,1.51.95c7.38,4.54,14.4,6.28,20.57,5.99-1.06-.16-2.15-.37-3.27-.67-3.41-.9-6.9-2.43-10.35-4.56-.48-.3-.96-.6-1.44-.91C78.32,53.24,66.59,35.64,64.66,18.05c10.1-3.29,21.92-3.44,33.59-.37c7.52,1.98,14.78,5.2,21.56,9.58.48.31.95.62,1.42.94c6.04,4.08,9.81,8.62,11.94,13.1-1.68-6.9-6.4-13.95-15.05-19.8-.49-.33-.99-.66-1.49-.98C96.6,7.59,73.51,4.99,55.82,11.86C56.85,30.81,68.73,50.78,88.76,63.7Z" fill="#462d22"/></g></g><g><polygon points="195.54,36.49 175.81,26.59 173.6,38.95 195.54,36.49" fill="#4f342c"/><polygon points="198.71,25.87 176.66,24.94 179.72,37.11 198.71,25.87"/><path d="M169.06,8.8v0c-17.74-14-43.47-10.97-57.47,6.77L80.46,66.51c-9.8,4.52-15.52,14.58-14.05,24.86v0c1.85,12.97,14.22,19.95,27.93,19.97c14.35.03,37.75.77,81.49-45.08c15.83-16.6,10.97-43.47-6.77-57.47Z" fill="#6c4636"/><g clip-path="url(#epab3cAG2vk366)"><g><g><path d="M156.67,51.19l-4.22,5.15-17.44,21.27c-22.99,28.05-58.95,36.58-80.33,19.06l19.88,16.29c21.38,17.52,57.34,8.99,80.33-19.06l17.44-21.27l4.22-5.15" fill="#fff"/><g><circle r="21.32" transform="translate(204.67 49.37)" fill="#f87038"/><circle r="21.32" transform="translate(168.89 33.87)" fill="#f8af38"/></g><path d="M194.29,74.27c-5.83,10.78-18.9,35.88-38.81,25.12-19.91-10.77-6.04-35.45-.21-46.23s19.29-14.79,30.07-8.96s14.79,19.29,8.96,30.07Z" opacity="0.5" fill="#f8af38"/><path d="M196.92,68.85c-4.87,11.24-15.7,37.4-36.47,28.4-20.77-8.99-9.11-34.79-4.24-46.03s17.93-16.41,29.17-11.54s16.41,17.93,11.54,29.17Z" fill="#f8af38"/></g></g><clipPath id="epab3cAG2vk366"><path d="M169.06,8.8v0c-17.74-14-43.47-10.97-57.47,6.77L80.46,66.51c-9.8,4.52-15.52,14.58-14.05,24.86v0c1.85,12.97,14.22,19.95,27.93,19.97c14.35.03,37.75.77,81.49-45.08c15.83-16.6,10.97-43.47-6.77-57.47Z" fill="none"/></clipPath></g><path d="M171.9,33.09c-1.04,2.4-3.83,3.51-6.23,2.47s-3.51-3.83-2.47-6.23s3.83-3.51,6.23-2.47s3.51,3.83,2.47,6.23Z"/></g><g id="epab3cAG2vk369_tr" transform="translate(100.730573,51.189999) rotate(0)"><g transform="translate(-100.730573,-51.189999)"><path d="M93.1,30.92c-23.55-3.73-45.72,3.23-59.12,16.66c8.6,16.92,27.54,30.38,51.08,34.11.59.09,1.18.18,1.76.26c40.85,5.56,48.6-43.4,8.03-50.73-.58-.11-1.17-.2-1.76-.3Z" fill="#59392c"/><path d="M106.56,79.68v0c-3.33.48-6.95.45-10.76-.07-.56-.08-1.12-.16-1.69-.25-20.53-3.25-38.37-14.61-47.24-29.92c8.19-7.35,19.38-12.33,31.8-14.1c7.3-1.04,14.83-.96,22.37.23.56.09,1.12.18,1.68.28c3.69.67,6.87,1.69,9.61,2.95-4.28-3.53-10.07-6.26-17.47-7.6-.58-.11-1.17-.2-1.76-.3-23.55-3.73-45.72,3.23-59.12,16.66c8.6,16.92,27.54,30.38,51.08,34.11.59.09,1.18.18,1.76.26c8.06,1.1,14.82.07,20.18-2.34-.15.02-.3.05-.45.07Z" opacity="0.4" fill="#462d22"/></g></g><g><path d="M80.74,103.87c-26.32,1.89-50.8,4.2-69.92,5.22-14.84-6.48-14.31-22.09.94-27.54c19,2.33,43.27,6.3,69.4,10-.14,4.11-.28,8.21-.42,12.32Z" fill="#59392c"/><path d="M17.43,82.28c-1.93-.25-3.83-.5-5.67-.72-15.25,5.45-15.78,21.06-.94,27.54c2.6-.14,5.31-.31,8.11-.49-10.37-7.2-10.76-19.05-1.5-26.33Z" opacity="0.8" fill="#462d22"/></g></g></g></g><mask id="epab3cAG2vk375" mask-type="luminance"><rect width="427.400794" height="271.246648" rx="0" ry="0" transform="translate(.249205 61.713352)" fill="#d2dbed" stroke-width="0"/></mask></g><g transform="translate(208.922422 292.259277)"><g><path d="M10.49,3.91c-.15-.08-.31-.16-.46-.24.27-.04.55-.07.82-.11-.12.12-.24.23-.36.34.75.39,1.5.78,2.25,1.17c2.2,1.14,4.41,2.27,6.62,3.4c2.78,1.42,5.57,2.83,8.37,4.22c2.65,1.31,5.3,2.62,7.98,3.87c1.8.84,3.6,1.72,5.48,2.36.13.04.25.08.38.12.84.25,1.2-1.06.36-1.31-.67-.2-1.32-.47-1.97-.74h-.01c.12.05-.07-.03,0,0v0c0,0-.1-.04-.14-.07-.12-.05-.24-.1-.36-.16-.24-.1-.47-.21-.71-.31-.53-.24-1.06-.48-1.59-.72-2.6-1.2-5.17-2.45-7.73-3.72-2.82-1.39-5.63-2.81-8.43-4.23-2.31-1.17-4.61-2.35-6.91-3.54-1.1-.57-2.18-1.16-3.29-1.7l-.05-.02c-.27-.14-.6-.11-.82.11-2.8,2.71-5.78,5.26-8.94,7.52-.21.15-.42.3-.64.45-.29.2-.46.61-.24.93c1.2,1.8,2.58,3.47,3.98,5.11C6.09,19,8.2,21.27,10.37,23.48c2.58,2.62,5.25,5.15,8.01,7.57c2.91,2.55,5.93,4.99,9.08,7.24c2.99,2.14,6.11,4.13,9.4,5.78c2.9,1.46,5.97,2.69,9.18,3.29c2.93.55,6.03.59,8.82-.59c3.3-1.4,5.81-4.2,7.74-7.16c2.44-3.75,4.12-8,5.42-12.26c1.5-4.91,2.5-9.96,3.17-15.04.17-1.26.31-2.51.43-3.78.04-.36-.34-.68-.68-.68-.4,0-.64.31-.68.68-.49,5.05-1.32,10.07-2.58,14.99-1.13,4.42-2.6,8.8-4.75,12.84-1.67,3.14-3.87,6.29-6.84,8.22-1.32.86-2.64,1.41-4.22,1.65-.03,0-.17.02-.18.03v0c-.06,0-.11.01-.17.02-.17.02-.34.04-.51.05-.34.03-.68.04-1.01.05-.69,0-1.37-.03-2.05-.1-.16-.02-.32-.04-.48-.06-.06,0-.07,0-.07,0v0c0,0-.02,0-.07-.01-.1-.01-.2-.03-.29-.04-.35-.06-.7-.12-1.05-.19-.75-.15-1.49-.34-2.22-.56-1.52-.45-3.02-1.03-4.41-1.65-3.23-1.45-6.29-3.27-9.21-5.25-3.12-2.11-6.1-4.42-8.97-6.85-2.82-2.38-5.54-4.88-8.17-7.48-2.29-2.26-4.52-4.59-6.65-7-.87-.98-1.72-1.98-2.55-2.99-.35-.43-.7-.87-1.05-1.31l-.08-.11.04.05c-.04-.05-.05-.06-.04-.05l-.06-.08c-.08-.1-.16-.21-.24-.31-.14-.18-.28-.37-.41-.55-.11-.16-.22-.32-.34-.48-.2.14-.4.28-.6.42.08-.31.16-.62.24-.93.12.17.24.34.36.51C3.72,9.9,5.7,8.27,7.61,6.59c.99-.87,1.95-1.76,2.89-2.67" fill="#180205"/></g></g><path d="M13.67,18.51c0,0-2.012178-1.144992-2.893254.432476C7.842968,22.549021,9.674625,27.26,8.95,31.49c-.27,4.84-5.21-13.1-5.1-13.32s14.26-9.41,16.29-9.41s21.39,4.84,22.01,5.83.11,12.86.11,12.86l-2.17,2.31c0,0-10.42-4.99-11.74-8.7-2.13-5.99-10.69-8.7-14.68-2.54" transform="translate(200.115676 190.862215)" fill="#070707"/></svg>