<svg id="etAISK5cGBO1" xmlns="http://www.w3.org/2000/svg" xmlns:xlink="http://www.w3.org/1999/xlink" viewBox="0 0 1080.48 1439" shape-rendering="geometricPrecision" text-rendering="geometricPrecision"><style><![CDATA[#etAISK5cGBO4_to {animation: etAISK5cGBO4_to__to 8000ms linear infinite normal forwards}@keyframes etAISK5cGBO4_to__to { 0% {transform: translate(231.170013px,633.669128px)} 25% {transform: translate(183.587232px,633.669129px)} 50% {transform: translate(231.170013px,633.669128px)} 75% {transform: translate(183.587232px,633.669129px)} 100% {transform: translate(231.170013px,633.669128px)}} #etAISK5cGBO8_to {animation: etAISK5cGBO8_to__to 8000ms linear infinite normal forwards}@keyframes etAISK5cGBO8_to__to { 0% {transform: translate(113.685135px,643.130112px)} 25% {transform: translate(168.600421px,643.130112px)} 50% {transform: translate(113.685135px,643.130112px)} 75% {transform: translate(168.600421px,643.130112px)} 100% {transform: translate(113.685135px,643.130112px)}} #etAISK5cGBO12_to {animation: etAISK5cGBO12_to__to 8000ms linear infinite normal forwards}@keyframes etAISK5cGBO12_to__to { 0% {transform: translate(855.726227px,589.536407px)} 25% {transform: translate(883.25898px,589.536407px)} 50% {transform: translate(844.072251px,589.536408px)} 75% {transform: translate(883.25898px,589.536407px)} 100% {transform: translate(855.726227px,589.536407px)}} #etAISK5cGBO16_to {animation: etAISK5cGBO16_to__to 8000ms linear infinite normal forwards}@keyframes etAISK5cGBO16_to__to { 0% {transform: translate(868.228577px,665.455276px)} 25% {transform: translate(829.614404px,665.455276px)} 50% {transform: translate(868.228577px,665.455276px)} 75% {transform: translate(829.614404px,665.455276px)} 100% {transform: translate(868.228577px,665.455276px)}} #etAISK5cGBO20_ts {animation: etAISK5cGBO20_ts__ts 8000ms linear infinite normal forwards}@keyframes etAISK5cGBO20_ts__ts { 0% {transform: translate(798.680969px,670.597595px) scale(0.241539,0.241539)} 25% {transform: translate(798.680969px,670.597595px) scale(0.364609,0.364609)} 37.5% {transform: translate(798.680969px,670.597595px) scale(1.094806,1.094806)} 100% {transform: translate(798.680969px,670.597595px) scale(1.094806,1.094806)}} #etAISK5cGBO20 {animation: etAISK5cGBO20_c_o 8000ms linear infinite normal forwards}@keyframes etAISK5cGBO20_c_o { 0% {opacity: 1} 96.25% {opacity: 1} 100% {opacity: 0}} #etAISK5cGBO27_ts {animation: etAISK5cGBO27_ts__ts 8000ms linear infinite normal forwards}@keyframes etAISK5cGBO27_ts__ts { 0% {transform: translate(847.512939px,659.780274px) scale(0.035406,0.035406)} 50% {transform: translate(847.512939px,659.780274px) scale(0.214966,0.214966)} 62.5% {transform: translate(847.512939px,659.780274px) scale(1.024225,1.024225)} 100% {transform: translate(847.512939px,659.780274px) scale(1.024225,1.024225)}} #etAISK5cGBO27 {animation: etAISK5cGBO27_c_o 8000ms linear infinite normal forwards}@keyframes etAISK5cGBO27_c_o { 0% {opacity: 1} 96.25% {opacity: 1} 100% {opacity: 0}} #etAISK5cGBO39_tr {animation: etAISK5cGBO39_tr__tr 8000ms linear infinite normal forwards}@keyframes etAISK5cGBO39_tr__tr { 0% {transform: translate(858.610412px,675.806183px) rotate(0deg)} 100% {transform: translate(858.610412px,675.806183px) rotate(1065.000001deg)}} #etAISK5cGBO48_ts {animation: etAISK5cGBO48_ts__ts 8000ms linear infinite normal forwards}@keyframes etAISK5cGBO48_ts__ts { 0% {transform: translate(163.21px,666.416565px) scale(0.070961,0.070961)} 12.5% {transform: translate(163.21px,666.416565px) scale(0.218985,0.218985)} 25% {transform: translate(163.21px,666.416565px) scale(0.905423,0.905423)} 100% {transform: translate(163.21px,666.416565px) scale(0.905423,0.905423)}} #etAISK5cGBO48 {animation: etAISK5cGBO48_c_o 8000ms linear infinite normal forwards}@keyframes etAISK5cGBO48_c_o { 0% {opacity: 1} 96.25% {opacity: 1} 100% {opacity: 0}} #etAISK5cGBO72_tr {animation: etAISK5cGBO72_tr__tr 8000ms linear infinite normal forwards}@keyframes etAISK5cGBO72_tr__tr { 0% {transform: translate(235.430414px,693.506165px) rotate(0deg)} 100% {transform: translate(235.430414px,693.506165px) rotate(1020deg)}} #etAISK5cGBO109 {animation: etAISK5cGBO109__m 8000ms linear infinite normal forwards}@keyframes etAISK5cGBO109__m { 0% {d: path('M507.76,710.73C526.63,721.7,545.48,727.23,567.27,725.87L628.06,695.47C635.8,673.65,641.79,650.76,640.71,627.63C639.62,604.51,630.67,580.95,612.8,566.23C604.37,559.28,594.31,554.52,585.94,547.5C574.1,537.56,565.83,523.28,552.22,515.94C530.64,504.29,500.42,509.24,490.08,532.04C474.39,530.4,455.17,545.91,468.19,588.51C471.76,600.18,477.64,615.7,475.71,627.75C470.13,662.56,482.31,695.94,507.75,710.73')} 22.5% {d: path('M507.76,710.73C526.63,721.7,545.48,727.23,567.27,725.87L628.06,695.47C635.8,673.65,641.79,650.76,640.71,627.63C639.62,604.51,630.67,580.95,612.8,566.23C604.37,559.28,594.31,554.52,585.94,547.5C574.1,537.56,565.83,523.28,552.22,515.94C530.64,504.29,500.42,509.24,490.08,532.04C474.39,530.4,455.17,545.91,468.19,588.51C471.76,600.18,477.64,615.7,475.71,627.75C470.13,662.56,482.31,695.94,507.75,710.73')} 35% {d: path('M507.76,710.73C526.63,721.7,545.48,727.23,567.27,725.87L628.06,695.47C635.8,673.65,639.96,656.799526,638.88,633.669526C637.79,610.549526,620.01,586.437042,609.85,582.467406C601.42,575.517406,593.28,555.028463,584.91,548.008463C573.07,538.068463,565.83,523.28,552.22,515.94C530.64,504.29,500.42,509.24,490.08,532.04C474.39,530.4,455.17,545.91,468.19,588.51C471.76,600.18,483.41,612.746206,482.28,629.655C476.7,664.465,482.31,695.94,507.75,710.73')} 47.5% {d: path('M507.76,710.73C526.63,721.7,545.48,727.23,567.27,725.87L628.06,695.47C635.8,673.65,641.79,650.76,640.71,627.63C639.62,604.51,630.67,580.95,612.8,566.23C604.37,559.28,594.31,554.52,585.94,547.5C574.1,537.56,565.83,523.28,552.22,515.94C530.64,504.29,500.42,509.24,490.08,532.04C474.39,530.4,455.17,545.91,468.19,588.51C471.76,600.18,477.64,615.7,475.71,627.75C470.13,662.56,482.31,695.94,507.75,710.73')} 71.25% {d: path('M507.76,710.73C526.63,721.7,545.48,727.23,567.27,725.87L628.06,695.47C635.8,673.65,641.79,650.76,640.71,627.63C639.62,604.51,630.67,580.95,612.8,566.23C604.37,559.28,594.31,554.52,585.94,547.5C574.1,537.56,565.83,523.28,552.22,515.94C530.64,504.29,500.42,509.24,490.08,532.04C474.39,530.4,455.17,545.91,468.19,588.51C471.76,600.18,477.64,615.7,475.71,627.75C470.13,662.56,482.31,695.94,507.75,710.73')} 83.75% {d: path('M507.76,710.73C526.63,721.7,545.48,727.23,567.27,725.87L628.06,695.47C635.8,673.65,639.96,656.799526,638.88,633.669526C637.79,610.549526,620.01,586.437042,609.85,582.467406C601.42,575.517406,593.28,555.028463,584.91,548.008463C573.07,538.068463,565.83,523.28,552.22,515.94C530.64,504.29,500.42,509.24,490.08,532.04C474.39,530.4,455.17,545.91,468.19,588.51C471.76,600.18,483.41,612.746206,482.28,629.655C476.7,664.465,482.31,695.94,507.75,710.73')} 96.25% {d: path('M507.76,710.73C526.63,721.7,545.48,727.23,567.27,725.87L628.06,695.47C635.8,673.65,641.79,650.76,640.71,627.63C639.62,604.51,630.67,580.95,612.8,566.23C604.37,559.28,594.31,554.52,585.94,547.5C574.1,537.56,565.83,523.28,552.22,515.94C530.64,504.29,500.42,509.24,490.08,532.04C474.39,530.4,455.17,545.91,468.19,588.51C471.76,600.18,477.64,615.7,475.71,627.75C470.13,662.56,482.31,695.94,507.75,710.73')} 100% {d: path('M507.76,710.73C526.63,721.7,545.48,727.23,567.27,725.87L628.06,695.47C635.8,673.65,641.79,650.76,640.71,627.63C639.62,604.51,630.67,580.95,612.8,566.23C604.37,559.28,594.31,554.52,585.94,547.5C574.1,537.56,565.83,523.28,552.22,515.94C530.64,504.29,500.42,509.24,490.08,532.04C474.39,530.4,455.17,545.91,468.19,588.51C471.76,600.18,477.64,615.7,475.71,627.75C470.13,662.56,482.31,695.94,507.75,710.73')}} #etAISK5cGBO153_ts {animation: etAISK5cGBO153_ts__ts 8000ms linear infinite normal forwards}@keyframes etAISK5cGBO153_ts__ts { 0% {transform: translate(496.53037px,585.969285px) rotate(-115.714714deg) scale(1,1)} 18.75% {transform: translate(496.53037px,585.969285px) rotate(-115.714714deg) scale(1,1)} 20% {transform: translate(496.53037px,585.969285px) rotate(-115.714714deg) scale(0.0857,1)} 21.25% {transform: translate(496.53037px,585.969285px) rotate(-115.714714deg) scale(1,1)} 48.75% {transform: translate(496.53037px,585.969285px) rotate(-115.714714deg) scale(1,1)} 50% {transform: translate(496.53037px,585.969285px) rotate(-115.714714deg) scale(0.0857,1)} 51.25% {transform: translate(496.53037px,585.969285px) rotate(-115.714714deg) scale(1,1)} 71.25% {transform: translate(496.53037px,585.969285px) rotate(-115.714714deg) scale(1,1)} 72.5% {transform: translate(496.53037px,585.969285px) rotate(-115.714714deg) scale(0.0857,1)} 73.75% {transform: translate(496.53037px,585.969285px) rotate(-115.714714deg) scale(1,1)} 100% {transform: translate(496.53037px,585.969285px) rotate(-115.714714deg) scale(1,1)}} #etAISK5cGBO154_ts {animation: etAISK5cGBO154_ts__ts 8000ms linear infinite normal forwards}@keyframes etAISK5cGBO154_ts__ts { 0% {transform: translate(520.199672px,577.541088px) rotate(-112.635785deg) scale(1,1)} 18.75% {transform: translate(520.199672px,577.541088px) rotate(-112.635785deg) scale(1,1)} 20% {transform: translate(520.199672px,577.541088px) rotate(-112.635785deg) scale(0.073232,1)} 21.25% {transform: translate(520.199672px,577.541088px) rotate(-112.635785deg) scale(1,1)} 48.75% {transform: translate(520.199672px,577.541088px) rotate(-112.635785deg) scale(1,1)} 50% {transform: translate(520.199672px,577.541088px) rotate(-112.635785deg) scale(0.073232,1)} 51.25% {transform: translate(520.199672px,577.541088px) rotate(-112.635785deg) scale(1,1)} 71.25% {transform: translate(520.199672px,577.541088px) rotate(-112.635785deg) scale(1,1)} 72.5% {transform: translate(520.199672px,577.541088px) rotate(-112.635785deg) scale(0.073232,1)} 73.75% {transform: translate(520.199672px,577.541088px) rotate(-112.635785deg) scale(1,1)} 100% {transform: translate(520.199672px,577.541088px) rotate(-112.635785deg) scale(1,1)}} #etAISK5cGBO161_to {animation: etAISK5cGBO161_to__to 8000ms linear infinite normal forwards}@keyframes etAISK5cGBO161_to__to { 0% {transform: translate(770.894958px,294.605927px)} 50% {transform: translate(736.714958px,294.605927px)} 100% {transform: translate(770.894958px,294.605927px)}} #etAISK5cGBO162_to {animation: etAISK5cGBO162_to__to 8000ms linear infinite normal forwards}@keyframes etAISK5cGBO162_to__to { 0% {transform: translate(320.530014px,361.145477px)} 50% {transform: translate(343.175106px,361.145477px)} 100% {transform: translate(320.530014px,361.145477px)}}]]></style><rect width="1080" height="1435.68" rx="0" ry="0" fill="#5f683c"/><g transform="translate(0 0.000001)" clip-path="url(#etAISK5cGBO5)"><g id="etAISK5cGBO4_to" transform="translate(231.170013,633.669128)"><path d="M365.72,848.86c48.93-17.61,95.99-42.43,133.62-78.33s65.32-83.65,71.1-135.33L531.4,595.18c-23.94-24.24-66.57-26.66-93.1-5.28-6.33-23.23-24.27-42.99-46.79-51.53-22.52-8.53-49.05-5.63-69.19,7.57-10.43-18.82-34.26-29.07-55.1-23.71c2.64-28.97-18.47-58.25-46.79-64.91-10.57-2.48-21.69-2.13-32.13-5.12-15.99-4.58-28.65-16.44-41.92-26.47-71.61-54.09-175.3-57.41-254.48-15.16v441.25c18.65,5.7,37.76,10.16,56.5,13.87c138.26,27.36,284.69,30.88,417.3-16.84" transform="translate(-231.170013,-633.669128)" fill="#d5e0e7"/></g><clipPath id="etAISK5cGBO5"><rect width="592.545166" height="505.663151" rx="0" ry="0" transform="translate(0 258.791988)" fill="#d2dbed" stroke-width="0"/></clipPath></g><g clip-path="url(#etAISK5cGBO9)"><g id="etAISK5cGBO8_to" transform="translate(113.685135,643.130112)"><path d="M70.36,831.29c66.37-16.67,128.1-48.34,185.95-84.9c19.18-12.12,38.23-25,53.28-41.97c15.05-16.98,25.91-38.65,25.85-61.33-.11-38.81-33.01-71.92-70.3-82.68-37.29-10.77-77.48-3.35-114.27,9.01-9.83-36.34-58.9-55.24-90.57-34.89-13.22-40.7-47.28-74-88.26-86.31-26-7.81-54.33-7.03-80.11,1.39v383.2c57.82,15.64,120.13,13.13,178.44-1.52" transform="translate(-113.685135,-643.130112)" fill="#fff"/></g><clipPath id="etAISK5cGBO9"><rect width="592.545166" height="505.663151" rx="0" ry="0" transform="translate(0 442.801849)" fill="#d2dbed" stroke-width="0"/></clipPath></g><g clip-path="url(#etAISK5cGBO13)"><g id="etAISK5cGBO12_to" transform="translate(855.726227,589.536407)"><path d="M779.91,507.33c-9.72-9.69-24.93-13.46-38.05-9.43s-23.59,15.69-26.19,29.17c-22.29-23.08-62.73-19.27-87.59,1.01-24.87,20.28-36.97,52.28-43.89,83.61-6.66,30.16-9.16,63.22,5.18,90.57c17.54,33.45,55.59,50.18,91.73,61.16c80.75,24.54,167.48,32.6,250.07,15.22c76.97-16.2,150.04-55.5,201.41-114.83v-236.04c-11.03-8.5-23.16-15.6-35.9-21.02-43.33-18.42-92.66-19.09-138.77-9.55l14.14,11.71c-76.16-15.62-160.32,27.48-192.16,98.41" transform="translate(-855.726227,-589.536407)" fill="#d5e0e7"/></g><clipPath id="etAISK5cGBO13" transform="translate(.000001 0)"><rect width="594.735" height="494.968012" rx="0" ry="0" transform="translate(485.265 258.791988)" fill="#d2dbed" stroke-width="0"/></clipPath></g><g clip-path="url(#etAISK5cGBO17)"><g id="etAISK5cGBO16_to" transform="translate(868.228577,665.455276)"><path d="M693.02,819.39c44.55,28.53,97.14,42,149.52,49.45c67.22,9.57,137.25,9.66,201.3-12.87c32.52-11.44,63.34-29.37,88.77-52.63v-328.66c-31.51-18.01-70.11-23.45-105.29-14.41-39.15,10.06-73.36,37.86-91.22,74.12-19.59-10.47-47.46,1.52-53.33,22.95-17.64-16.92-43.52-24.81-67.6-20.61s-45.76,20.38-56.64,42.26c-17.23-27.31-57.47-31.26-86.93-18.02-48.25,21.7-73.96,79.76-66.47,132.13s43.34,97.75,87.89,126.28" transform="translate(-868.228577,-665.455276)" fill="#fff"/></g><clipPath id="etAISK5cGBO17"><rect width="532.9758" height="491.046963" rx="0" ry="0" transform="matrix(1.193321 0 0 1.219377 444.468786 361.980833)" fill="#d2dbed" stroke-width="0"/></clipPath></g><path d="M814.3,608.64c0,.05.01.11.02.16-.01-.1-.02-.15-.02-.16" fill="#718722"/><g id="etAISK5cGBO20_ts" transform="translate(798.680969,670.597595) scale(0.241539,0.241539)"><g id="etAISK5cGBO20" transform="translate(-798.680969,-670.597592)"><path d="M807.8,641.54c.11.86.22,1.71.33,2.57.92,7.5,1.52,15.05,1.86,22.6.04,1.01.09,2.02.12,3.02.04,1.01.86,1.98,1.94,1.94c1.02-.05,1.97-.85,1.94-1.94-.28-7.72-.82-15.42-1.68-23.09-.77-6.81-1.78-13.59-3.08-20.32-1.14-5.9-2.5-11.76-4.07-17.56-1.44-5.32-3.06-10.58-4.81-15.81-1.63-4.87-3.38-9.71-5.16-14.53-.22-.58-.43-1.16-.65-1.74-.35-.95-1.33-1.69-2.38-1.35-.93.3-1.73,1.37-1.35,2.38c1.79,4.78,3.54,9.58,5.19,14.42c1.75,5.12,3.37,10.28,4.83,15.48c1.6,5.71,3,11.48,4.19,17.29.64,3.14,1.22,6.28,1.73,9.44.27,1.67.53,3.34.77,5.01.06.4.11.81.17,1.21.03.2.06.41.08.61c0,.03,0,.07.01.1l.02.16c0-.05-.01-.11-.02-.16c0-.03.03.2.03.26" fill="#718722"/><path d="M788.4,603.81c4.05,2.74,9.76,2.75,13.82.03l-.59-2.19c-2.45-2.45-5.29-4.53-8.37-6.12-2.1-1.09-4.79-1.91-6.7-.52-1.42,1.03-1.88,3.07-1.39,4.76s1.77,3.06,3.23,4.04" fill="#718722"/><path d="M771.28,568.46c-3.02,2.73-3.66,7.72-1.43,11.13s7.06,4.82,10.77,3.16c-3.23,2.92-3.67,8.37-1.06,11.86s7.82,4.64,11.73,2.73s6.19-6.61,5.44-10.9c1.46,3.5,6.13,5.08,9.57,3.5c3.45-1.58,5.31-5.8,4.52-9.51s-3.94-6.7-7.6-7.69c4.26,0,8.14-3.86,8.17-8.11.04-4.26-3.78-8.18-8.03-8.25-3.09-.06-6.02,1.92-7.44,4.64-.85-3.18-3.26-5.96-6.36-7.11-2.75-1.01-6.18-.64-8.11,1.55-1.49,1.7-1.83,4.17-1.44,6.39.4,2.22,1.45,4.27,2.48,6.28-3.17-2.55-8.2-2.4-11.22.33" fill="#ffa200"/><path d="M793.62,581.44c3.5-.79,5.69-4.27,4.9-7.76-.79-3.5-4.27-5.69-7.76-4.9-3.5.79-5.69,4.27-4.9,7.76.79,3.5,4.27,5.69,7.76,4.9" fill="#ffda00"/><path d="M825.51,610.77c1.05-2.57.14-6.05-2.43-7.09-1.8-.73-3.86-.14-5.64.65-5.92,2.64-10.76,7.63-13.23,13.63c4.74,1.59,10.59.07,15.21-1.84c2.57-1.06,5.04-2.78,6.1-5.35" fill="#718722"/></g></g><path d="M871.32,596.17l.03-.07c-.11.27-.07.18-.03.07" fill="#718722"/><g id="etAISK5cGBO27_ts" transform="translate(847.512939,659.780274) scale(0.035406,0.035406)"><g id="etAISK5cGBO27" transform="translate(-847.512938,-659.780271)"><path d="M851.28,658.38c2.37-11.04,5.32-21.96,8.86-32.69c3.1-9.41,6.64-18.66,10.46-27.8.24-.57.48-1.15.72-1.72-.05.11-.08.2.03-.07c0,.02-.02.04-.03.07l.05-.12c.07-.17.15-.34.22-.52l.38-.88c.52-1.22,1.04-2.44,1.57-3.66c1.02-2.36,2.05-4.71,3.09-7.06.41-.92.3-2.12-.69-2.65-.84-.44-2.21-.29-2.65.69-3.87,8.76-7.65,17.56-11.09,26.5-3.74,9.73-7.08,19.61-9.89,29.65-1.78,6.36-3.36,12.77-4.75,19.23-.21.99.29,2.14,1.35,2.38.97.22,2.15-.29,2.38-1.35" fill="#718722"/><path d="M855.87,571.85c-2.82,3.25-2.88,8.65.08,11.77c2.1,2.22,5.57,2.89,8.42,1.93-2.47,2.46-3.58,6.35-2.4,9.66c1.59,4.47,7.08,7.13,11.57,5.59c3.28-1.12,5.61-4.32,6.06-7.71c1.06,2.53,3.68,4.51,6.48,4.5c4.13-.02,7.69-3.85,7.91-7.97s-2.56-8.08-6.31-9.79c2.5-.48,5.06-.98,7.27-2.25s4.05-3.48,4.18-6.02c.21-4.15-4.3-7.31-8.45-7.18-4.16.13-7.86,2.55-11.19,5.04c3.29-2.91,3.44-8.67.3-11.74s-8.9-2.8-11.73.55c-2.84,3.35-2.15,9.07,1.4,11.66l-1.77-.43c-3.92-1.77-8.99-.86-11.8,2.39" fill="#ffa200"/><path d="M882.12,582.13c1.02-3.53-1.02-7.22-4.55-8.24s-7.22,1.02-8.24,4.55s1.02,7.22,4.55,8.24s7.22-1.02,8.24-4.55" fill="#ffda00"/><path d="M882.9,612.64c.76-2.14.33-4.8-1.43-6.24-2.36-1.94-5.9-1.08-8.69.17-4.1,1.83-7.91,4.29-11.26,7.27l-.93,2.78c5.03,3.81,12.4,4.23,17.83,1.01c1.96-1.16,3.71-2.83,4.48-4.97" fill="#718722"/><path d="M837.48,631.14c5.82,2.82,13.25,5.23,19.48,3.53-2.73-7.93-8.59-14.73-16.04-18.59-2.23-1.16-4.85-2.07-7.23-1.27-3.4,1.15-4.84,5.56-3.68,8.96s4.23,5.81,7.46,7.37" fill="#718722"/></g></g><path d="M724.09,842.36c47.96,21.11,102.5,32.19,153.05,18.4c50.55-13.8,95.15-56.81,99.42-109.04l-7.58-20.31c-3.01-19.08-16.34-36.2-34.1-43.8-17.75-7.6-39.35-5.42-55.22,5.57-.3-14.85-10.07-29.09-23.83-34.72-13.75-5.62-30.7-2.3-41.32,8.09-1.9-30.27-33.73-52.37-64.06-51.79-30.32.58-57.82,18.59-78.92,40.38-22.5,23.24-40.42,53.76-38.37,86.04c3.02,47.65,47.22,81.94,90.92,101.17" fill="#66771e"/><path d="M786.95,832.8c24.86-4,48.3-13.95,71.46-23.82c10.48-4.47,21.58-9.44,27.77-19c6.93-10.69,6.03-24.77,2.15-36.9-5.49-17.19-17-32.96-33.21-40.88s-37.22-6.77-50.85,5.06c-4.6-24.23-24.54-44.82-48.61-50.2s-50.88,4.78-65.35,24.74l-27.54,23.19c5.78,40.03,17.3,83.83,51.32,105.69c21.18,13.61,47.99,16.12,72.84,12.12" fill="#718722"/><g clip-path="url(#etAISK5cGBO37)"><path d="M789.8,834.78c14.36,12.14,33.94,15.55,52.51,18.5c94.04,14.98,188.09,29.96,282.13,44.94c18.97,3.02,39.19,5.78,58.16,3.96v-277.58c-16.7-9.4-37.47-11.75-55.59-5.32-24.84,8.82-43.15,33.61-44.27,59.95-19.83-12.2-50.14,2.87-52.38,26.04-17.85-16.74-44.47-23.53-68.15-17.37-23.68,6.15-43.64,25.04-51.08,48.35-22.73-11.73-48.86-18.12-74.13-14.12s-49.34,19.38-60.28,42.5-6.45,53.64,13.08,70.15" fill="#8faa2d"/><clipPath id="etAISK5cGBO37"><rect width="376.741089" height="452.718009" rx="0" ry="0" transform="translate(703.258912 549.094553)" fill="#d2dbed" stroke-width="0"/></clipPath></g><g id="etAISK5cGBO39_tr" transform="translate(858.610412,675.806183) rotate(0)"><g transform="translate(-858.610412,-675.806183)"><path d="M837.39,668.05c-3.23,2.68-4.08,7.82-1.88,11.39c1.78,2.89,5.39,4.46,8.74,4.06-2.99,1.5-4.81,5.41-3.74,8.7c1.32,4.06,6.23,6.36,10.35,5.23c4.11-1.14,7.07-5.22,7.38-9.48-.58,4.61,2.7,9.39,7.21,10.51s9.64-1.56,11.29-5.9-.4-9.76-4.51-11.92c4.46,1.36,9.64-1.97,10.55-6.54s-2.31-9.47-6.79-10.76c-4.17-1.2-8.91.66-11.49,4.13c2.37-3.93,1.6-9.6-1.95-12.55-3.8-3.16-10.19-2.55-13.21,1.36s-1.89,10.37,2.34,12.92l-2.75-.87c-3.1-2.83-8.31-2.96-11.54-.28" fill="#ffa200"/><path d="M866.67,678.51c0-4.39-3.56-7.95-7.95-7.95s-7.95,3.56-7.95,7.95s3.56,7.95,7.95,7.95s7.95-3.56,7.95-7.95" fill="#ffda00"/></g></g><path d="M357.44,587.6l.02.04c-.03-.07-.11-.25-.02-.04" fill="#718722"/><path d="M342.94,562.19c0,0,.03.05.05.07.04.05.05.06-.05-.07" fill="#718722"/><path d="M368.28,627.92c-.01-.11,0-.06,0,.03c0,.04,0,.05,0-.03" fill="#718722"/><path d="M417.79,646.62c0,0,.03-.07.04-.1-.04.09-.05.12-.04.1" fill="#718722"/><path d="M447.52,595.7c-.07.1-.03.04.01-.02.03-.04.05-.06-.01.02" fill="#718722"/><path d="M391.23,640.31v-.02c-.01.12,0,.1,0,.02" fill="#718722"/><g id="etAISK5cGBO48_ts" transform="translate(163.21,666.416565) scale(0.070961,0.070961)"><g id="etAISK5cGBO48" transform="translate(-163.21,-666.416558)"><path d="M107.83,538.04c.65.75,1.28,1.51,1.9,2.29.15.19.3.38.45.57.04.06.19.24.25.32-.02-.02-.03-.05-.05-.07.1.13.09.12.05.07.3.39.6.78.89,1.18c2.44,3.29,4.67,6.73,6.71,10.29c2.17,3.79,4.13,7.7,5.9,11.69.21.48.42.96.63,1.45.11.24.21.49.31.74-.09-.22-.01-.03.02.04l-.02-.04c0,0,.02.05.04.09.07.17.14.35.22.52.43,1.04.85,2.09,1.26,3.15.83,2.14,1.6,4.29,2.33,6.47c3.02,9,5.23,18.28,6.65,27.67.08.56.17,1.12.25,1.69.02.13.04.27.06.4c0-.04.04.27.05.37-.01-.08-.02-.14,0-.03.01.08,0,.07,0,.03.01.08.03.19.03.21.03.2.05.4.08.6.15,1.19.29,2.39.42,3.59.25,2.4.45,4.8.6,7.21.29,4.83.36,9.67.19,14.51-.08,2.38-.23,4.76-.43,7.14-.1,1.18-.22,2.36-.35,3.54-.06.56-.13,1.11-.2,1.66-.1.79-.1.76-.2,1.53-.66,4.62-1.56,9.21-2.76,13.72-.29,1.11-.61,2.22-.94,3.33-.3,1,.36,2.11,1.35,2.38c1.03.28,2.08-.35,2.38-1.35c2.74-9.22,4.27-18.78,4.85-28.37.59-9.73.18-19.52-1.07-29.18-1.25-9.67-3.29-19.23-6.19-28.54-2.74-8.77-6.23-17.35-10.59-25.44-3.92-7.26-8.58-14.19-14.2-20.25-.63-.68-1.28-1.35-1.93-2.01-.74-.74-2-.74-2.74,0s-.74,2,0,2.74c1.32,1.33,2.6,2.7,3.82,4.12" fill="#718722"/><path d="M139,552.56c3.31-6.22.34-9.87-2.33-10.34-5.43-.95-10.64,12.08-9.77,21.52c4.81-1.85,9.68-6.63,12.1-11.18" fill="#718722"/><path d="M131.65,578.86c-3.74-3.55-10.14-5.9-15.29-6.14-7.04-.32-9.07,3.92-8.35,6.53c1.47,5.31,15.47,4.44,23.63-.39" fill="#718722"/><path d="M89.83,530.04c-2.64.72-3.54,4.46-2.01,6.72s4.63,3.03,7.32,2.52c2.68-.51,5.04-2.06,7.27-3.64-1.92,2.07-.74,5.85,1.82,7.06c2.56,1.2,5.74.22,7.79-1.72c2.05-1.95,3.17-4.67,3.97-7.38.51-1.7.92-3.53.4-5.23-.47-1.56-2-2.91-3.58-2.78c4.44-.84,7.39-6.4,5.44-10.52-2-4.25-8.48-5.47-11.89-2.23c1.62-4.05,3.08-9.16.13-12.37-2.21-2.4-6.24-2.48-8.96-.67-2.71,1.81-4.18,5.08-4.49,8.33s.4,6.5,1.25,9.64l-1.45-1.55c-2.78-2.2-7.09-2.18-9.85.05s-3.68,6.45-2.1,9.62c1.57,3.18,5.49,5,8.93,4.16" fill="#ffa200"/><path d="M99.12,529.19c2.83.57,5.59-1.27,6.16-4.1s-1.27-5.59-4.1-6.16-5.59,1.27-6.16,4.1s1.27,5.59,4.1,6.16" fill="#ffda00"/><path d="M173.47,653.83c1.03.23,2.09-.31,2.38-1.35c1.9-6.78,4.12-13.48,6.64-20.06.63-1.64,1.28-3.28,1.95-4.91.16-.39.32-.79.49-1.18.08-.2.16-.39.25-.59.02-.05.04-.1.06-.15c0,.01,0,0,.04-.1-.01.03-.03.07-.04.1c0-.02.07-.15.1-.23.34-.81.69-1.62,1.05-2.43c1.41-3.23,2.9-6.42,4.46-9.58c3.12-6.32,6.53-12.49,10.21-18.5c3.67-5.98,7.61-11.79,11.81-17.41.53-.71,1.06-1.41,1.59-2.11.13-.17.26-.34.39-.51l.14-.18c-.04.06-.09.11-.01.02.06-.07.05-.06.01-.02l.06-.08c.28-.36.56-.72.84-1.08c1.09-1.39,2.19-2.76,3.31-4.12c2.24-2.72,4.54-5.39,6.9-8c.59-.65,1.19-1.3,1.78-1.95.69-.74.79-2.01,0-2.74-.75-.69-2-.79-2.74,0-4.9,5.29-9.53,10.82-13.92,16.55-4.3,5.62-8.35,11.43-12.12,17.42s-7.26,12.15-10.47,18.46c-3.27,6.43-6.23,13.02-8.89,19.72-2.61,6.58-4.92,13.27-6.9,20.07-.25.85-.49,1.69-.73,2.54-.27.97.34,2.15,1.35,2.38" fill="#718722"/><path d="M213.69,559.9c-3.31.38-6.1,3.74-5.8,7.13.33,3.77,4.1,6.78,7.88,6.56c3.4-.2,6.41-2.79,7.48-6.02-.62,3.18.69,6.74,3.43,8.49c3.06,1.95,7.61,1.21,9.69-1.76s1.06-7.7-2.17-9.34c3.75,1.47,8.48-.32,10.31-3.9c1.83-3.59.51-8.47-2.88-10.64s-8.38-1.33-10.87,1.83c5.57-11.32-2.44-16.74-8.09-14.31-3.63,1.56-6.6,5.14-3.23,12.12l-.34-.61c-1.86-2.31-5.42-3.03-8.03-1.64s-4,4.75-3.12,7.58c.76,2.47,3.18,4.3,5.74,4.51" fill="#ffa200"/><path d="M225.34,562.35c2.37.65,4.82-.75,5.46-3.13.65-2.37-.76-4.82-3.13-5.46-2.37-.65-4.82.76-5.46,3.13-.65,2.37.75,4.82,3.13,5.46" fill="#ffda00"/><path d="M205.53,581.05l1.07.62c.11-6.23-1.7-12.48-5.1-17.7-1.01-1.54-2.46-3.15-4.3-3.05-1.98.11-3.29,2.18-3.63,4.14-.61,3.53.87,7.18,3.22,9.88c2.36,2.69,5.52,4.56,8.74,6.11" fill="#718722"/><path d="M211.8,603.41c2.39-.44,4.87-2.34,4.62-4.76-.19-1.85-1.88-3.18-3.56-3.97-4.98-2.35-11.18-1.87-15.74,1.22l-.23,1.23c2.16,1.77,4.34,3.55,6.83,4.81s5.34,1.98,8.09,1.47" fill="#718722"/><path d="M186.1,618.29l.57,1.65c.45-6.62-3-13.36-8.64-16.86-1.13-.7-2.61-1.27-3.74-.55-1.25.8-1.2,2.65-.8,4.09c1.62,5.8,6.69,10.5,12.6,11.67" fill="#718722"/><path d="M154.2,651.93c1.08-.05,1.9-.85,1.94-1.94.22-6.86.66-13.7,1.34-20.53.34-3.4.73-6.8,1.19-10.19c0,.07-.01.1,0-.02v.02c0-.09.03-.27.04-.31.03-.2.05-.4.08-.6.06-.43.12-.87.18-1.3.12-.83.24-1.66.37-2.49.26-1.7.53-3.39.81-5.08c1.14-6.76,2.51-13.49,4.1-20.16s3.41-13.29,5.45-19.84s4.3-13.03,6.78-19.42c.3-.78.61-1.57.92-2.35.37-.94-.41-2.17-1.35-2.38-1.12-.25-1.98.34-2.38,1.35-2.53,6.37-4.85,12.83-6.95,19.36-2.11,6.56-3.99,13.2-5.64,19.89-1.65,6.66-3.07,13.37-4.26,20.12-1.22,6.89-2.2,13.82-2.95,20.78-.74,6.82-1.24,13.66-1.52,20.51-.03.87-.07,1.75-.09,2.62-.03,1.01.91,1.98,1.94,1.94" fill="#718722"/><path d="M166.04,545.23c-4.52,1.63-7.42,7.1-5.89,11.69c1.61,4.84,7.94,7.51,12.45,5.12c4.34-2.29,5.71-8.78,2.73-12.61c1.7,2.01,3.88,3.67,6.41,4.35c2.72.74,5.86.23,7.92-1.69s2.76-5.31,1.24-7.69c-.77-1.21-2.12-1.99-3.53-2.2c1.7-1.01,3.04-2.65,3.53-4.57.81-3.21-.83-6.88-3.76-8.42-2.61-1.37-6.03-.93-8.29.94-.21-2.22-1.18-4.36-2.32-6.31-1.2-2.07-2.9-4.21-5.28-4.42-2.92-.26-5.29,2.73-5.5,5.65-.2,2.92,1.13,5.71,2.43,8.33-2.49-1.76-6.21-1.49-8.42.62s-2.65,5.81-1.01,8.38c1.5,2.35,4.6,3.5,7.28,2.83" fill="#ffa200"/><path d="M175.63,547.6c2.94-.6,4.84-3.47,4.23-6.41-.6-2.94-3.47-4.84-6.41-4.24s-4.84,3.47-4.23,6.41c.6,2.94,3.47,4.84,6.41,4.23" fill="#ffda00"/><path d="M147.42,610.09c2.85,1.5,5.97,2.4,9.1,3.16l1.09-1.21c-1.88-6.16-6.05-11.6-11.52-15.01-1.18-.74-2.56-1.41-3.93-1.12-1.5.32-2.57,1.79-2.78,3.31s.31,3.06,1.05,4.4c1.57,2.81,4.14,4.96,6.99,6.47" fill="#718722"/><path d="M178.54,590.87c1.25-.34,2.52-.75,3.53-1.57s1.71-2.13,1.47-3.41c-.42-2.16-3.1-3-5.3-2.86-5.65.34-10.44,4.1-14.81,7.7l-.22,1.85c5.16.24,10.35-.34,15.33-1.7" fill="#718722"/><path d="M150.65,567.43c3.78,3.9,9.08,6.3,14.51,6.57l1.14,1.09c-2.18-5.08-5.27-9.77-9.07-13.78-1.02-1.08-2.12-2.13-3.48-2.71-1.36-.59-3.04-.63-4.25.23-1.34.96-1.78,2.84-1.41,4.44s1.41,2.97,2.55,4.16" fill="#718722"/></g></g><path d="M94.14,879.81c41.17,33.34,96.73,44.84,149.61,41.69c52.89-3.15,103.98-19.66,153.97-37.21c27.74-9.74,56.69-20.84,78.13-40.17c7.18,1.71,14.49,2.9,21.74,3.7c32.38,3.54,67.2-.39,93.39-19.76s40.33-57.13,25.55-86.16c-9.23-18.12-27.74-30.01-47.08-36.3-23.1-7.5-48.35-7.72-71.78-1.35-8.4-20.95-21.48-40.23-40.64-51.77-23.11-13.92-56.21-13.3-74.46,6.57c1.74-23.43-14.31-47.02-36.76-53.98-22.44-6.96-49.03,3.39-60.86,23.69-17.11-18.85-44.42-27.84-69.38-22.84-24.97,5-46.7,23.81-55.23,47.81-19.69-14.75-48.49-16.03-69.41-3.09s-32.64,39.28-28.23,63.48L45.91,738.26c-16.28,50.42,7.05,108.19,48.22,141.53" fill="#66771e"/><g clip-path="url(#etAISK5cGBO69)"><path d="M-6.25,973.51c65.5-10.91,126.95-38.47,186.57-67.7c36.79-18.04,76.8-41.05,87.69-80.54c8.35-30.29-4.98-65.26-31.37-82.31-26.39-17.04-63.75-14.81-87.92,5.26c5.76-16.85-.75-37.11-15.24-47.46s-35.77-9.93-49.84.99c-6.38-19.4-25.86-33.7-46.27-33.98-20.42-.28-40.28,13.5-47.17,32.72-18.3-20.92-47.25-32.01-74.85-28.65-8.08.98-15.98,3.2-23.42,6.46v296.28c33.51,5.35,68.35,4.51,101.83-1.07" fill="#8faa2d"/><clipPath id="etAISK5cGBO69"><rect width="346.45" height="627.969715" rx="0" ry="0" transform="translate(0 455.977571)" fill="#d2dbed" stroke-width="0"/></clipPath></g><path d="M285.74,803.87c22.77,4.34,45.78,8.7,68.93,7.75c23.16-.95,46.82-7.69,64.12-23.12s26.9-40.55,19.98-62.67l-6.32-5.58c-4.81-15.59-18.45-28.12-34.39-31.61-15.94-3.48-33.56,2.23-44.44,14.39-5.89-14.88-16.06-28.45-30.03-36.26s-31.92-9.18-45.99-1.53c-14.06,7.64-22.87,24.92-18.79,40.4-20.87-2.91-42.95,5-57.22,20.49-14.27,15.5-20.34,38.15-15.73,58.71c33.29,6.34,66.59,12.69,99.88,19.03" fill="#718722"/><g id="etAISK5cGBO72_tr" transform="translate(235.430414,693.506165) rotate(0)"><g transform="translate(-235.430412,-693.506165)"><path d="M221.07,701.2c-2.99,1.5-4.81,5.41-3.74,8.7c1.32,4.06,6.24,6.36,10.35,5.23c4.11-1.14,7.07-5.22,7.38-9.48-.58,4.61,2.7,9.39,7.21,10.51s9.64-1.56,11.29-5.9-.4-9.76-4.51-11.92c4.46,1.36,9.64-1.97,10.55-6.54s-2.31-9.47-6.79-10.76c-4.17-1.2-8.91.66-11.49,4.13c2.37-3.93,1.6-9.6-1.95-12.55-3.8-3.16-10.19-2.55-13.21,1.36s-1.89,10.37,2.34,12.92l-2.75-.87c-3.1-2.83-8.31-2.96-11.54-.28s-4.08,7.82-1.88,11.39c1.78,2.89,5.39,4.46,8.74,4.06" fill="#ffa200"/><path d="M235.54,704.17c4.39,0,7.95-3.56,7.95-7.95s-3.56-7.95-7.95-7.95-7.95,3.56-7.95,7.95s3.56,7.95,7.95,7.95" fill="#ffda00"/></g></g><path d="M665.37,1259.51l-.02.02c0,0,.17-.21.02-.02" fill="#230000"/><path d="M542.44,1106.62v-.07v0-.08c0,0,0,.1,0,.15" fill="#230000"/><path d="M547.72,1124.48v-.02h-.01c-.11-.28.06.14.01.02" fill="#230000"/><path d="M714.75,559.2c0,0,0,.04,0,.07-.01-.09-.01-.09,0-.07" fill="#230000"/><path d="M320.53,1065.39c0,0-.05,0-.08-.01-.04,0-.04,0,.08.01" fill="#230000"/><path d="M315.61,1064.13l-.04-.02c0,0-.03-.01-.04-.02-.14-.06.07.03.08.03" fill="#230000"/><path d="M312.92,1062.6c0,0-.03-.02-.04-.03-.15-.1,0,0,.04.03" fill="#230000"/><path d="M311.48,1061.18l-.02-.02c-.1-.12-.01-.01.02.02" fill="#230000"/><rect width="1290.68" height="860.45" rx="0" ry="0" transform="translate(-108.08 288.02)" fill="none"/><g clip-path="url(#etAISK5cGBO86)"><path d="M1182.6,920.62c-138.8-51.19-321.62-96.43-547.9-107.14-411.51-19.49-643.06,130.56-742.78,219.26v415.73h1290.68v-527.85Z" fill="#9bbc49"/><clipPath id="etAISK5cGBO86"><rect width="1086.266542" height="747.41" rx="0" ry="0" transform="matrix(.994673 0 0 1 0 690.425)" fill="#d2dbed" stroke-width="0"/></clipPath></g><g><path d="M952.29,1173.06c1.94,0,3.51-1.57,3.51-3.51v-221.1h-34.04v221.1c0,1.94,1.57,3.51,3.51,3.51h27.03Z" fill="#637984"/><polygon points="921.76,965.55 955.8,989.14 955.8,965.55 921.76,965.55"/><path d="M172.4,1173.06c1.94,0,3.51-1.57,3.51-3.51v-221.1h-34.04v221.1c0,1.94,1.57,3.51,3.51,3.51h27.02Z" fill="#637984"/><polygon points="141.87,965.55 175.9,989.14 175.9,965.55 141.87,965.55"/><path d="M873.16,1173.06c1.94,0,3.51-1.57,3.51-3.51v-411.52h-34.04v411.52c0,1.94,1.57,3.51,3.51,3.51h27.03Z" fill="#44575e"/><polygon points="842.63,787.14 876.67,800.56 876.67,787.14 842.63,787.14"/><polygon points="842.63,842.72 876.67,856.14 876.67,842.72 842.63,842.72"/><polygon points="842.63,898.29 876.67,911.72 876.67,898.29 842.63,898.29"/><polygon points="842.63,965.55 876.67,989.14 876.67,965.55 842.63,965.55"/><path d="M251.53,1173.06c1.94,0,3.51-1.57,3.51-3.51v-411.52h-34.04v411.52c0,1.94,1.57,3.51,3.51,3.51h27.03Z" fill="#44575e"/><polygon points="221,787.14 255.03,800.56 255.03,787.14 221,787.14"/><polygon points="221,842.72 255.03,856.14 255.03,842.72 221,842.72"/><polygon points="221,898.29 255.03,911.72 255.03,898.29 221,898.29"/><polygon points="221,965.55 255.03,989.14 255.03,965.55 221,965.55"/><rect width="728.24" height="34.17" rx="0" ry="0" transform="translate(184.71 752.97)" fill="#904a1e"/><rect width="728.24" height="34.17" rx="0" ry="0" transform="translate(184.71 808.54)" fill="#904a1e"/><rect width="728.24" height="34.17" rx="0" ry="0" transform="translate(184.71 864.12)" fill="#904a1e"/><rect width="882.36" height="34.17" rx="0" ry="0" transform="translate(107.65 931.38)" fill="#904a1e"/><path d="M628.88,863.54l-7.75-24.11c0,0-49.7-2.21-50.12,1.3-.41,3.51,11.91,32.68,15.2,32.68s42.67-9.86,42.67-9.86" fill="#123245"/><path d="M465.45,803.7c4.37-5.51,6.78-10.09,8.07-13.73l.87.54c4.61-20.63-4.26-40.7-4.26-40.7l-29.34-8.22c0,0-4.52,14.15-8.22,22.86-5.75,7.75-15.06,10.22-15.06,10.22l-5.68,37.52c0,0,41.02,7.39,53.61-8.49" fill="#94191c"/><path id="etAISK5cGBO109" d="M507.76,710.73c18.87,10.97,37.72,16.5,59.51,15.14l60.79-30.4c7.74-21.82,13.73-44.71,12.65-67.84-1.09-23.12-10.04-46.68-27.91-61.4-8.43-6.95-18.49-11.71-26.86-18.73-11.84-9.94-20.11-24.22-33.72-31.56-21.58-11.65-51.8-6.7-62.14,16.1-15.69-1.64-34.91,13.87-21.89,56.47c3.57,11.67,9.45,27.19,7.52,39.24-5.58,34.81,6.6,68.19,32.04,82.98" fill="#070707"/><path d="M645.6,704.02c-7.14-51.33-49.52-60.25-49.52-60.25l-87.09,3.08c0,0-21.77.94-37.79,20.8s-24.03,27.87-24.65,46.36s10.47,44.98,15.4,54.22s1.23,33.89,1.23,33.89s66.29,63.47,165.7,49.5c-2.88-8.5-5.91-17.52-6.75-24.83c21.6-32.68,29.41-80.01,23.47-122.78" fill="#94191c"/><path d="M460.93,799.42c-.17.79.24,1.63,1.05,1.85.75.21,1.68-.25,1.85-1.05c1.52-7.03,1.89-14.29,1.08-21.44-.82-7.26-2.77-14.33-5.82-20.97-1.68-3.66-3.7-7.16-6.03-10.44-.47-.66-1.31-.98-2.06-.54-.65.38-1.01,1.4-.54,2.06c4.02,5.65,7.09,11.93,9.09,18.57c1.99,6.6,2.93,13.49,2.76,20.38-.1,3.9-.55,7.76-1.38,11.57"/><path d="M570.4,580.92c.82-16.23-13.35-13.97-17.05-6.37c0,0-16.43.62-26.5-14.58-10.06-15.2-26.15-16.23-32.93-7.39c0,0-10.2-1.85-11.64,13.56-1.44,15.4,4.76,63.88,35.96,63.26c0,0-.22,11.91-1.04,16.02l-8.22,1.44c0,0,6.39,19.59,37.18,20.74c38.41,1.44,49.91-23.83,49.91-23.83l-22.59-5.34c0,0-15.2-20.13-18.07-43.54c0,0,14.17,2.26,14.99-13.97" fill="#fcccb1"/><path d="M576.22,663.61c5.79-2.58,11.15-6.05,15.89-10.25.61-.54.55-1.58,0-2.13-.6-.61-1.52-.54-2.13,0-8.03,7.12-18.02,11.91-28.56,13.89-10.6,1.99-21.63.86-31.7-2.96-5.63-2.14-10.98-5.17-15.68-8.93-.63-.51-1.51-.62-2.13,0-.53.53-.64,1.62,0,2.13c8.98,7.18,19.8,11.74,31.2,13.23c11.26,1.47,22.76-.37,33.11-4.97"/><path d="M572.47,771.72c1.06-3.97,2.12-7.93,3.19-11.9l5.06-18.89l1.16-4.34c.5-1.88-2.4-2.68-2.91-.8-1.06,3.97-2.12,7.93-3.19,11.9-1.69,6.3-3.37,12.59-5.06,18.89l-1.16,4.33c-.5,1.88,2.4,2.68,2.91.8"/><path d="M593.81,721.41l-63.47-70.24c0,0-29.17,3.29-52.01,9.08-22.85,5.8-43.68,16.8-43.68,16.8s-11.52-11.09-31.65-13.75-48.06-5.15-48.06-5.15l-8.49,10.3l75.04,37.25l168.94,31.85l3.39-16.14Z" fill="#fcf4e6"/><polygon points="498.31,760.84 593.81,741.6 529.55,664.68 446.52,682.59 429.91,682.59 341.8,667.65 402.8,741.6 473.04,757.76 498.31,760.84" fill="#9cc1cd"/><polygon points="446.52,682.59 429.91,682.59 473.04,757.76 498.31,760.84 446.52,682.59" fill="#1058c1"/><path d="M480.44,749.81l13.15,11.03c0,0,14.38-6.87,20.54-13.7c0,0-10.68-7.45-12.32-25.53-1.64-18.07-10.47-16.84-14.58-14.79s-3.08,8.22-8.83,9.45-27.52-13.56-37.18-9.65c-9.65,3.9-7.39,15.2-1.23,22.39s20.54,17.99,40.46,20.81" fill="#fcccb1"/><path d="M603.06,839.1c24.68-3.53,38.9-46.4,42.5-87.46c2.06-23.52-74.54,19.68-74.54,19.68-10.47-3.08-60.39-29.72-60.39-29.72-11.09,10.95-21.57,18.01-21.57,18.01c12.32,18.49,75.17,85.03,113.99,79.49" fill="#94191c"/><path d="M602.66,837.64c0,0-.07,0-.1.01c0,0,.02,0,.1-.01"/><path d="M592.99,837.56c0,0,0,0,0,0"/><path d="M576.41,772.52c-.16-.06.28.12,0,0"/><path d="M509.87,742.9c.34.18.68.35,1.02.53.26-.26.54-.51.8-.77-.61.08-1.22.16-1.83.24"/><path d="M510.89,743.43c-.34-.18-.68-.35-1.02-.53.61-.08,1.22-.16,1.83-.24-.26.26-.54.51-.8.77c1.66.87,3.33,1.73,4.99,2.59c4.9,2.54,9.81,5.06,14.73,7.56c6.19,3.16,12.4,6.29,18.62,9.38c5.89,2.92,11.79,5.82,17.75,8.6c3.99,1.86,8.02,3.82,12.19,5.25.28.1.56.19.84.27c1.86.55,2.66-2.36.8-2.91-1.5-.44-2.94-1.05-4.38-1.65h-.02c.28.11-.16-.07,0,0h-.02c-.11-.05-.21-.1-.32-.15-.27-.12-.54-.23-.81-.35-.52-.23-1.05-.46-1.57-.69-1.18-.53-2.36-1.06-3.54-1.61-5.78-2.67-11.5-5.46-17.2-8.28-6.27-3.1-12.52-6.25-18.76-9.42-5.14-2.61-10.26-5.24-15.38-7.88-2.44-1.26-4.85-2.58-7.31-3.79-.03-.02-.07-.04-.1-.05-.6-.31-1.33-.25-1.83.24-6.17,6.08-12.8,11.75-19.85,16.79-.47.33-.94.67-1.42.99-.64.43-1.02,1.35-.54,2.06c2.67,3.99,5.75,7.73,8.87,11.37c4.48,5.24,9.17,10.3,14,15.21c5.73,5.83,11.67,11.46,17.82,16.85c6.48,5.68,13.19,11.1,20.2,16.12c6.65,4.77,13.59,9.18,20.91,12.86c6.46,3.24,13.29,5.99,20.42,7.32c6.52,1.22,13.42,1.32,19.62-1.31c7.35-3.12,12.93-9.35,17.21-15.92c5.43-8.35,9.16-17.8,12.06-27.29c3.34-10.91,5.55-22.15,7.04-33.46.37-2.79.69-5.6.96-8.4.08-.81-.75-1.51-1.51-1.51-.88,0-1.43.69-1.51,1.51-1.09,11.23-2.93,22.41-5.73,33.35-2.52,9.83-5.78,19.58-10.56,28.56-3.72,6.99-8.6,14-15.22,18.29-2.94,1.91-5.88,3.13-9.38,3.68-.08.01-.39.05-.41.06.03,0,.07,0,.1-.01-.08.01-.11.01-.1.01-.12.02-.25.03-.37.04-.38.04-.76.08-1.14.11-.75.06-1.5.09-2.25.1-1.53.02-3.05-.06-4.57-.21-.36-.04-.72-.08-1.08-.12-.12-.02-.15-.02-.16-.02c0,0,0,0,0,0s-.04,0-.16-.03c-.22-.03-.44-.06-.65-.1-.78-.12-1.57-.27-2.34-.43-1.66-.34-3.3-.76-4.93-1.25-3.39-1.01-6.71-2.29-9.81-3.68-7.18-3.23-13.98-7.28-20.5-11.68-6.94-4.69-13.56-9.83-19.95-15.23-6.27-5.3-12.32-10.87-18.17-16.63-5.1-5.03-10.05-10.21-14.8-15.57-1.93-2.18-3.83-4.4-5.68-6.66-.79-.96-1.57-1.94-2.33-2.92-.04-.05-.16-.21-.18-.24.03.04.06.08.09.12-.09-.11-.11-.14-.09-.12l-.13-.17c-.18-.23-.35-.46-.52-.69-.31-.41-.61-.82-.92-1.23-.26-.35-.5-.71-.75-1.07-.44.31-.89.62-1.34.92.18-.69.36-1.37.54-2.06.26.38.53.76.8,1.14c4.64-3.25,9.06-6.88,13.31-10.61c2.2-1.93,4.33-3.92,6.43-5.95"/><path d="M493.57,763.27l-.09-.12c0,0,0,0,.09.12"/><path d="M489.83,760.91c.45-.3.89-.61,1.34-.92-.27-.38-.54-.75-.8-1.14-.18.69-.36,1.37-.54,2.06"/><path d="M417.38,712.76c-3.29-7.82-29.09-23.55-43.54-6.27s6.16,40.65,6.16,40.65l5.75,16.17c12.32,4.52,30.4-5.75,30.4-5.75l-4.11-5.75c4.11-13.15-1.23-18.54-1.23-18.54c6.98-4.16,9.86-12.68,6.57-20.51" fill="#fcccb1"/><path d="M432.58,764.46c0,0-12.34-5.6-16.02-10.7c0,0-11.09,6.26-33.68,7.09c0,0,7.81,40.67,28.96,51.35l20.74-47.73Z" fill="#94191c"/><path d="M327.42,1066.88c4.11-12.32,11.5-25.47,36.97-50.12s54.35-72.3,54.35-72.3s53.28,5.75,85.32,11.5s84.05,13.29,110.91-23.83c25.86-35.74,13.91-68.6,13.91-68.6l-27.06,1.23c0,0-66.5-57.07-108.45-64.9s-89.55-4.11-115.84,34.51c-26.29,38.61-90.37,212.79-90.37,212.79c23,34.51,40.26,19.72,40.26,19.72" fill="#123245"/><path d="M601.81,945.62c-62.76,20.46-99.11-38.73-99.11-38.73l9.84,50.54c27.04,4.41,63.67,7.56,89.27-11.81"/><path d="M378.84,835.13c5.83-8.53,13.22-15.96,21.85-21.66c8.23-5.43,17.38-9.27,26.91-11.73c19.45-5.03,40.1-4.53,59.82-1.38c4.1.65,8.17,1.4,12.17,2.54c3.8,1.08,7.53,2.42,11.2,3.91c8.19,3.33,16.07,7.43,23.73,11.83c15.22,8.72,29.69,18.73,43.7,29.28c7.56,5.69,14.97,11.57,22.22,17.65.11.09.22.19.33.28c1.46,1.26,3.61-.87,2.13-2.13-6.16-5.28-12.55-10.3-18.98-15.23-13.78-10.57-28.02-20.62-42.93-29.55-7.83-4.69-15.87-9.08-24.2-12.81-7.31-3.27-14.9-6.15-22.78-7.66-20.06-3.83-41.07-4.99-61.2-.98-20.01,3.98-38.63,13.77-51.7,29.66-1.71,2.09-3.33,4.25-4.86,6.48-1.1,1.6,1.51,3.11,2.6,1.52"/><path d="M509.81,1088.24c0,0,5.34-68.19,4.31-107.63s-18.24-144.47-79.47-130.57c-61.23,13.91-18.47,124,0,150.29s32.23,80.51,33.15,93.66c0,0,23.93,1.64,42-5.75" fill="#123245"/><path d="M408.84,873.04c0,0,.02-.06.03-.08-.05.13-.05.13-.03.08"/><path d="M413.81,864.42l.02-.03c-.1.14-.08.1-.02.03"/><path d="M405.07,887.46v-.08c0,.09,0,.1,0,.08"/><path d="M419.78,858.42c-.08.06-.05.04,0,0s.11-.09,0,0"/><path d="M421.72,972.25c.04.09.02.04,0,0-.02-.05-.03-.07,0,0"/><path d="M460.74,853.35c0,0,.05.02.08.03-.12-.05-.12-.05-.08-.03"/><path d="M427.61,853.86l.08-.03c0,0,0,0-.08.03"/><path d="M510.45,954.93c.02.19.05.37.07.56.18,1.37.35,2.75.51,4.12.58,4.96,1.03,9.93,1.32,14.91.12,2.03.21,4.05.26,6.08.05,1.93,3.06,1.94,3.01,0-.12-4.55-.42-9.09-.82-13.63-.5-5.59-1.18-11.16-2-16.72-.89-6.06-1.97-12.1-3.24-18.1-1.34-6.32-2.9-12.6-4.73-18.79-1.83-6.2-3.92-12.33-6.37-18.31-2.37-5.8-5.05-11.47-8.21-16.88-2.96-5.06-6.34-9.9-10.27-14.26-3.63-4.03-7.79-7.65-12.44-10.46-4.52-2.73-9.55-4.68-14.76-5.56-5.79-.98-11.67-.74-17.41.44-5.51,1.13-10.9,3.16-15.56,6.34-4.25,2.9-7.83,6.66-10.57,11.03-2.76,4.4-4.65,9.34-5.86,14.38-1.33,5.51-1.91,11.2-2.02,16.86-.12,6.1.32,12.2,1.11,18.25.84,6.43,2.04,12.81,3.55,19.12c1.48,6.22,3.25,12.38,5.23,18.45c1.9,5.81,4,11.56,6.3,17.22c2.08,5.13,4.32,10.21,6.75,15.19c1.94,3.97,4.01,7.89,6.3,11.67.87,1.44,1.78,2.86,2.75,4.23.47.66,1.32.98,2.06.54.66-.38,1.01-1.39.54-2.06-2.16-3.08-4.05-6.35-5.84-9.65-2.34-4.34-4.49-8.79-6.49-13.29-.56-1.26-1.11-2.52-1.65-3.78-.06-.15-.13-.3-.19-.45c0-.02-.04-.1-.06-.15.02.05.04.09,0,0-.03-.08-.02-.05,0,0l-.03-.07c-.15-.35-.29-.7-.44-1.05-.27-.66-.55-1.32-.82-1.99-1.11-2.74-2.18-5.5-3.2-8.28-2.15-5.85-4.09-11.77-5.8-17.77-1.75-6.13-3.26-12.32-4.45-18.58-1.18-6.2-1.97-11.91-2.38-18.22-.38-5.79-.36-11.62.29-17.4.04-.32.07-.64.11-.96.02-.15.04-.31.06-.46c0,.02,0,0,.01-.08c0,.03,0,.06-.01.08c0-.04.04-.29.05-.36.1-.67.2-1.35.32-2.02.23-1.32.49-2.63.8-3.93.59-2.51,1.35-4.98,2.3-7.38.1-.25.2-.49.3-.73-.02.05-.02.04.03-.08-.01.03-.02.06-.03.08.03-.07.11-.26.13-.3.07-.15.13-.31.2-.46.25-.57.52-1.13.8-1.68.55-1.1,1.15-2.17,1.8-3.21.63-1.02,1.32-2.01,2.05-2.97-.05.07-.08.11.02-.03l-.02.03c.04-.05.09-.12.12-.16.09-.11.18-.22.26-.33.2-.25.41-.5.62-.75.39-.46.8-.91,1.22-1.35.84-.89,1.73-1.73,2.66-2.52.22-.19.44-.37.66-.55.13-.1.26-.21.39-.31l.04-.03c0,0-.07.05,0,0c.1-.08.04-.03,0,0c.05-.04.13-.1.15-.12.5-.38,1.01-.74,1.52-1.09c1.06-.72,2.16-1.38,3.29-1.98.58-.31,1.17-.6,1.77-.88.28-.13.57-.26.85-.39.04-.02.29-.13.34-.15l-.08.03c.08-.03.09-.04.08-.03.14-.06.28-.12.43-.18c2.68-1.08,5.47-1.87,8.3-2.44.74-.15,1.48-.28,2.23-.4.17-.03.34-.05.51-.08.05,0,.24-.03.31-.04-.02,0-.04,0-.05,0c.09-.01.09-.01.05,0c.37-.05.74-.09,1.1-.13c1.41-.15,2.83-.24,4.25-.26c1.36-.02,2.73.02,4.09.14.65.05,1.3.12,1.94.21-.08-.01-.11-.02.05,0h-.05c.07,0,.19.02.23.03.15.02.3.04.46.07.35.05.69.11,1.03.18c2.54.47,5.02,1.18,7.42,2.13.25.1.5.2.75.3-.04-.02-.04-.02.08.03-.03-.01-.05-.02-.08-.03.07.03.27.12.3.13.16.07.31.14.47.21.58.26,1.16.54,1.73.83c1.14.58,2.26,1.21,3.34,1.89c1.1.68,2.17,1.41,3.2,2.19.12.09.24.18.36.27.04.03.16.12.21.16-.02-.01-.03-.03-.05-.04.09.07.09.07.05.04.26.2.52.4.77.61.51.41,1.02.84,1.51,1.27c2.03,1.77,3.94,3.69,5.72,5.71c1.95,2.22,3.38,4.07,5.05,6.44c3.42,4.88,6.34,10.1,8.91,15.48c1.36,2.86,2.54,5.56,3.66,8.35c1.18,2.95,2.28,5.94,3.31,8.95c2.07,6.08,3.84,12.25,5.38,18.48c1.5,6.08,2.78,12.21,3.87,18.37.52,2.93.99,5.87,1.42,8.81.1.71.21,1.43.3,2.14.05.33.09.66.14.99.04.3.01.08,0,.02.01.09.03.19.04.28"/><path d="M470.31,858.99c0,0,.03.03.05.04.04.03.04.03-.05-.04"/><path d="M450.85,850.64h.05c-.16-.02-.13-.01-.05,0"/><path d="M439.41,850.7c0,0,.04,0,.05,0c.04,0,.04,0-.05,0"/><path d="M279.36,1124.39c22.59-.82,40.67-10.27,43.13-12.73s4.52-4.93,4.93-19.72s0-25.06,0-25.06c-13.97,1.64-15.61-7.39-22.59-14.79-6.98-7.39-16.3-8.4-17.66-8.63-4.12-.69-16.02,18.9-27.93,30.4s-28.34,12.32-28.34,24.24c0,16.84,25.88,27.11,48.47,26.29" fill="#ce7127"/><path d="M279.36,1124.39c22.59-.82,40.67-10.27,43.13-12.73c2.42-2.42,4.44-4.85,4.9-18.9-27.5,3.16-24.48,17.34-53.38,18.9-20.95,1.13-35.85-8.47-43.09-14.54-.03.32-.04.65-.04.99c0,16.84,25.88,27.11,48.47,26.29" fill="#fff"/><path d="M509.4,1084.95c-6.02-1.23-10.68,4.93-23.55,6.57-10.06,1.28-13.46-2.71-18.3.01s-5.39,17.24-5.39,31.21-6.57,26.7-6.16,34.92s5.75,16.84,29.99,15.2s29.43-9.86,28.27-23c-1.16-13.15,0-22.32,3.99-35.05c2.75-8.78-2.6-28.57-8.85-29.85" fill="#ce7127"/><path d="M485.98,1172.86c21.95-1.49,28.28-8.37,28.42-19.42-23.42,11.69-47.39,8.31-58.27,5.77c1.02,7.71,7.13,15.19,29.85,13.65" fill="#fff"/><path d="M497.42,1091.33c2.11-.89,4.13-1.95,6.05-3.21.68-.45.97-1.33.54-2.06-.4-.68-1.38-.99-2.06-.54-6.31,4.14-13.84,6.17-21.38,5.81-2.09-.1-4.15-.39-6.19-.87-.79-.19-1.63.25-1.85,1.05-.21.76.26,1.67,1.05,1.85c7.92,1.86,16.35,1.13,23.84-2.03"/><path d="M304.98,1053.78c3.91,4.35,5.86,10.23,10.87,13.6c2.63,1.77,5.95,2.68,9.06,1.72c1.85-.57,1.06-3.48-.8-2.91-2.33.72-4.69-.04-6.73-1.42-2.26-1.52-3.84-3.81-5.29-6.07-1.57-2.45-3.07-4.97-5.04-7.14-1.81-1.99-3.96-3.71-6.29-5.06-2.68-1.55-5.64-2.63-8.7-3.15-.8-.13-1.62.21-1.85,1.05-.2.72.25,1.72,1.05,1.85c5.28.89,10.14,3.52,13.73,7.5"/><path d="M556.6,581.74c.13-3.49,3.61-6.29,7.03-5.86.4.05.75-.38.75-.75c0-.45-.35-.7-.75-.75-4.26-.53-8.38,3.13-8.54,7.36-.04.97,1.47.97,1.51,0"/><path d="M541.3,619.94c-8.69,9.04-23.06,9.45-23.06,9.45l-.41,9.98c20.72-3.21,23.46-19.43,23.46-19.43"/><path d="M403.31,733.55c-3.64.91-7.47.83-11.09-.14-1.87-.5-2.67,2.4-.8,2.91c6.8,1.82,14.39.8,20.21-3.27c5.24-3.66,8.7-9.49,8.51-15.99-.11-3.65-1.34-7.12-3.64-9.95-.51-.63-1.6-.53-2.13,0-.62.63-.51,1.5,0,2.13c3.34,4.12,3.58,10.33,1.21,14.96-2.44,4.78-7.13,8.06-12.27,9.35"/><g id="etAISK5cGBO153_ts" transform="translate(496.53037,585.969285) rotate(-115.714714) scale(1,1)"><circle r="2.36" transform="translate(0,0)" fill="#231f20"/></g><g id="etAISK5cGBO154_ts" transform="translate(520.199672,577.541088) rotate(-112.635785) scale(1,1)"><circle r="2.36" transform="translate(0,0)" fill="#231f20"/></g><path d="M514.38,612.51c0,0,10.32,3.53,10.78-6.48" fill="none" stroke="#231f20" stroke-width="1.4" stroke-linecap="round" stroke-linejoin="round"/><path d="M489.02,579.51c0,0,1.91-5.87,9.1-5.79" fill="none" stroke="#231f20" stroke-width="1.86" stroke-linecap="round" stroke-linejoin="round"/><path d="M513.82,568.36c0,0,4.01-4.69,10.62-1.87" fill="none" stroke="#231f20" stroke-width="1.86" stroke-linecap="round" stroke-linejoin="round"/><path d="M509.57,591.14c0,0-.36,8.37-2.27,10.5c0,0,2.61,1.02,5.28.44" fill="none" stroke="#231f20" stroke-width="1.4" stroke-linecap="round" stroke-linejoin="round"/></g><path d="M655.39,1138.67c-.22-.17.24.19,0,0" fill="#230000"/><path d="M355.08,1228.58c-.08.19-.03.08,0,0c.04-.09.07-.16,0,0" fill="#718722"/><g id="etAISK5cGBO161_to" transform="translate(770.894958,294.605927)"><path d="M724.98,262.72c23.29-3.32,47.75,13.05,53.59,35.86c10.38-8.74,25.22-11.86,38.24-8.04c13.02,3.83,23.82,14.49,27.83,27.46c32.49-9.06,68.24-5.8,98.59,8.92h-344.67c20.83-22.76,58.96-23.85,84.99-14.78-.77-23.54,18.15-46.1,41.44-49.43" transform="translate(-770.894958,-294.605927)" fill="#fff"/></g><g id="etAISK5cGBO162_to" transform="translate(320.530014,361.145477)"><path d="M446.57,383.09c-10.37-8.33-25.31-10.56-37.66-5.63-.39-8.04-11.13-13.4-17.79-8.88.01-27.22-26.05-51.57-53.21-49.72-27.16,1.86-49.66,29.53-45.94,56.5-12.05-6.08-28.79,1.27-32.46,14.26-25.74-10.68-57.46-5-77.93,13.91h277.9c-2.01-7.96-6.51-15.3-12.91-20.45" transform="translate(-320.530014,-361.145477)" fill="#fff"/></g><circle r="101.28" transform="translate(533.99 294.61)" fill="#e1912b"/><g clip-path="url(#etAISK5cGBO170)"><g transform="translate(0 11.633713)"><path d="M581.07,1318.82c-31.25-45.82-90.24-69.54-143.36-57.63-9.6-30.94-35.47-55.95-66.05-63.85s-64.85,1.58-87.48,24.2c-9.86-27.6-42.73-43.84-69.79-34.48-3.28-23.57-17.87-45.17-38.18-56.54s-45.84-12.22-66.82-2.24c12.35-60.4-19.65-127.41-73.64-154.18-45.93-22.78-104.03-14.58-143.83,17.69v360.67h704.47c-2.67-12.06-8.38-23.46-15.33-33.65" fill="#859b27"/><path d="M621.55,1200.5c-20.75,25.84-25.46,63.57-11.7,93.72c103.47,25.87,340.4,14.8,472.75-.83v-397c-31.22-4.15-63.96,3.17-90.16,20.7-31.33,20.97-52.74,56.15-56.96,93.61-13.94-3.01-29.29,1.59-39.27,11.78s-14.27,25.63-10.98,39.5c-21.87-9.36-47.91-8.39-69.02,2.59-21.11,10.97-36.87,31.73-41.77,55.01-14.92-8-34.48-6.38-47.89,3.96s-19.94,28.84-16,45.31c-32.41-6.93-68.24,5.81-88.99,31.65" fill="#859b27"/><path d="M1082.6,1027.61c-29.69-8.24-62.52-5.31-90,8.75-34.08,17.44-59.1,51.57-65.48,89.31-29.27-5.99-60.97,18.16-62.96,47.97-27.36-25.53-71.93-27.75-104.48-9.3-32.55,18.46-52.97,54.51-57.6,91.64-33.93-22.01-82.57-7.25-108.09,24.12-13.7,16.84-21.89,127.02-26.25,148.36h514.86v-400.86Z" fill="#8faa2d"/><path d="M352.01,1304.27c89.08-27.91,191.17-.12,265.6,56.2c0,0,85.72-4.45,124.99,43l26.18,37h-876.86v-416.94c42.12-4.33,85.94,7.97,119.21,34.28c39.18,30.99,62.83,80.71,62.16,130.65c23.13-12.15,55.88,7.76,55.75,33.89c28.23-11.95,60.63-17.88,89.51-7.62s52.01,40.27,46.82,70.47c28.46-14.91,67.07-6.41,86.65,19.06" fill="#98af35"/></g><clipPath id="etAISK5cGBO170"><rect width="1080" height="505.178932" rx="0" ry="0" transform="matrix(1 0 0 1.190714 0 837.476374)" fill="#d2dbed" stroke-width="0"/></clipPath></g></svg>