<svg id="e7nHaCiZ8UV1" xmlns="http://www.w3.org/2000/svg" xmlns:xlink="http://www.w3.org/1999/xlink" viewBox="0 0 428 926" shape-rendering="geometricPrecision" text-rendering="geometricPrecision"><style><![CDATA[#e7nHaCiZ8UV35_to {animation: e7nHaCiZ8UV35_to__to 8000ms linear infinite normal forwards}@keyframes e7nHaCiZ8UV35_to__to { 0% {transform: translate(50.915001px,72.282744px)} 6.25% {transform: translate(50.915001px,72.282744px)} 12.5% {transform: translate(50.915001px,210.599998px)} 62.5% {transform: translate(50.915001px,72.282744px)} 68.75% {transform: translate(50.915001px,210.599998px)} 100% {transform: translate(50.915001px,72.282744px)}} #e7nHaCiZ8UV35 {animation: e7nHaCiZ8UV35_c_o 8000ms linear infinite normal forwards}@keyframes e7nHaCiZ8UV35_c_o { 0% {opacity: 0} 5% {opacity: 0} 6.25% {opacity: 1} 12.5% {opacity: 0} 61.25% {opacity: 0} 62.5% {opacity: 1} 68.75% {opacity: 0} 100% {opacity: 0}} #e7nHaCiZ8UV42 {animation: e7nHaCiZ8UV42__m 8000ms linear infinite normal forwards}@keyframes e7nHaCiZ8UV42__m { 0% {d: path('M173.53,302.35L171.8,298.59C167.04,288.22,155.05,283.76,145.62,288.87L113.38,306.33C104.75,311.01,101.42,322.06,105.78,331.56L105.78,331.56C107.61,335.54,110.52,338.67,113.96,340.71C112.49,342.95,112.28,345.28,115.12,347.19C115.12,347.19,137.54,348.81,161.14,329.77L161.19,329.62L164.15,328.42C173.97,324.46,178.24,312.6,173.53,302.35Z')} 12.5% {d: path('M173.53,302.35L171.8,298.59C167.04,288.22,155.05,283.76,145.62,288.87L113.38,306.33C104.75,311.01,101.42,322.06,105.78,331.56L105.78,331.56C107.61,335.54,110.52,338.67,113.96,340.71C112.49,342.95,112.28,345.28,115.12,347.19C115.12,347.19,137.54,348.81,161.14,329.77L161.19,329.62L164.15,328.42C173.97,324.46,178.24,312.6,173.53,302.35Z')} 18.75% {d: path('M173.53,302.35L171.8,298.59C167.04,288.22,155.05,283.76,145.62,288.87L113.38,306.33C113.38,315.687531,117.674979,324.149454,110.074979,330.355097L110.459979,331.56C112.289979,335.54,110.52,338.67,113.96,340.71C112.49,342.95,112.28,345.28,115.12,347.19C115.12,347.19,124.449979,356.991082,161.14,329.77L161.19,329.62L164.15,328.42C173.97,324.46,178.24,312.6,173.53,302.35Z')} 97.5% {d: path('M173.53,302.35L171.8,298.59C167.04,288.22,155.05,283.76,145.62,288.87L113.38,306.33C113.38,315.687531,117.674979,324.149454,110.074979,330.355097L110.459979,331.56C112.289979,335.54,110.52,338.67,113.96,340.71C112.49,342.95,112.28,345.28,115.12,347.19C115.12,347.19,124.449979,356.991082,161.14,329.77L161.19,329.62L164.15,328.42C173.97,324.46,178.24,312.6,173.53,302.35Z')} 100% {d: path('M173.53,302.35L171.8,298.59C167.04,288.22,155.05,283.76,145.62,288.87L113.38,306.33C104.75,311.01,101.42,322.06,105.78,331.56L105.78,331.56C107.61,335.54,110.52,338.67,113.96,340.71C112.49,342.95,112.28,345.28,115.12,347.19C115.12,347.19,137.54,348.81,161.14,329.77L161.19,329.62L164.15,328.42C173.97,324.46,178.24,312.6,173.53,302.35Z')}} #e7nHaCiZ8UV43 {animation: e7nHaCiZ8UV43__m 8000ms linear infinite normal forwards}@keyframes e7nHaCiZ8UV43__m { 0% {d: path('M120.146771,347.71001C137.248423,345.12002,167.251942,331.514647,181.26,320.47L201.83,254.53C202.2,253.44,201.19,252.4,200.09,252.74C193.6,254.75,175.58,257.53,160.96,273.44C150.58,284.73,127.55,292.830011,127.55,292.830011C127.55,292.830011,123.266771,340.340006,120.146771,347.71001Z')} 12.5% {d: path('M120.146771,347.71001C137.248423,345.12002,167.251942,331.514647,181.26,320.47L201.83,254.53C202.2,253.44,201.19,252.4,200.09,252.74C193.6,254.75,175.58,257.53,160.96,273.44C150.58,284.73,127.55,292.830011,127.55,292.830011C127.55,292.830011,123.266771,340.340006,120.146771,347.71001Z')} 18.75% {d: path('M126.532981,349.42001C146.379402,344.29502,167.251942,331.514647,181.26,320.47L201.83,254.53C202.2,253.44,201.19,252.4,200.09,252.74C193.6,254.75,175.58,257.53,160.96,273.44C150.58,284.73,127.55,292.830011,127.55,292.830011C127.55,292.830011,129.652981,342.050006,126.532981,349.42001Z')} 97.5% {d: path('M126.532981,349.42001C146.379402,344.29502,167.251942,331.514647,181.26,320.47L201.83,254.53C202.2,253.44,201.19,252.4,200.09,252.74C193.6,254.75,175.58,257.53,160.96,273.44C150.58,284.73,127.55,292.830011,127.55,292.830011C127.55,292.830011,129.652981,342.050006,126.532981,349.42001Z')} 100% {d: path('M123.111711,347.190001C143.96,343.15001,167.251942,331.514647,181.26,320.47L201.83,254.53C202.2,253.44,201.19,252.4,200.09,252.74C193.6,254.75,175.58,257.53,160.96,273.44C150.58,284.73,127.55,292.830011,127.55,292.830011C127.55,292.830011,126.231711,339.819997,123.111711,347.190001Z')}} #e7nHaCiZ8UV61 {animation: e7nHaCiZ8UV61__m 8000ms linear infinite normal forwards}@keyframes e7nHaCiZ8UV61__m { 0% {d: path('M36.05,-1.81C37.32,73.06,40.29,278.41,35.56,318.17C22.35,429.18,22.35,576,22.35,576L41.22,576L68.38,557.88C68.38,557.88,55.73,-1.81,55.73,-1.81L36.05,-1.81Z')} 12.5% {d: path('M36.05,-1.81C37.32,73.06,40.29,278.41,35.56,318.17C22.35,429.18,22.35,576,22.35,576L41.22,576L68.38,557.88C68.38,557.88,55.73,-1.81,55.73,-1.81L36.05,-1.81Z')} 26.25% {d: path('M36.05,-1.81C37.32,73.06,40.29,278.41,35.56,318.17C22.35,429.18,22.35,576,22.35,576L41.22,576L68.38,557.88C35.56,366.390001,114.115027,57.132532,50.645024,-19.068699L36.05,-1.81Z')} 45% {d: path('M36.05,-1.81C37.32,73.06,40.29,278.41,35.56,318.17C22.35,429.18,22.35,576,22.35,576L41.22,576L86.780003,551.08C130.000006,366.526419,41.21,100.89,55.73,-1.81L36.05,-1.81Z')} 63.75% {d: path('M36.05,-1.81C37.32,73.06,40.29,278.41,35.56,318.17C22.35,429.18,22.35,576,22.35,576L41.22,576L68.38,557.88C19.01,378.55,118.300003,100.455,55.73,-1.81L36.05,-1.81Z')} 87.5% {d: path('M36.05,-1.81C37.32,73.06,40.29,278.41,35.56,318.17C22.35,429.18,22.35,576,22.35,576L41.22,576L68.38,557.88C111.600003,373.326419,41.21,100.89,55.73,-1.81L36.05,-1.81Z')} 100% {d: path('M36.05,-1.81C37.32,73.06,40.29,278.41,35.56,318.17C22.35,429.18,22.35,576,22.35,576L41.22,576L68.38,557.88C68.38,557.88,55.73,-1.81,55.73,-1.81L36.05,-1.81Z')}} #e7nHaCiZ8UV65_tr {animation: e7nHaCiZ8UV65_tr__tr 8000ms linear infinite normal forwards}@keyframes e7nHaCiZ8UV65_tr__tr { 0% {transform: translate(256.957174px,239.605776px) rotate(0deg)} 40% {transform: translate(256.957174px,239.605776px) rotate(0deg)} 43.75% {transform: translate(256.957174px,239.605776px) rotate(9.582486deg)} 62.5% {transform: translate(256.957174px,239.605776px) rotate(9.582486deg)} 65% {transform: translate(256.957174px,239.605776px) rotate(0deg)} 98.75% {transform: translate(256.957174px,239.605776px) rotate(0deg)} 100% {transform: translate(256.957174px,239.605776px) rotate(0deg)}} #e7nHaCiZ8UV74_ts {animation: e7nHaCiZ8UV74_ts__ts 8000ms linear infinite normal forwards}@keyframes e7nHaCiZ8UV74_ts__ts { 0% {transform: translate(209.200005px,200.560005px) scale(1,1)} 33.75% {transform: translate(209.200005px,200.560005px) scale(1,1)} 35% {transform: translate(209.200005px,200.560005px) scale(1,0.271331)} 37.5% {transform: translate(209.200005px,200.560005px) scale(1,1)} 55% {transform: translate(209.200005px,200.560005px) scale(1,1)} 56.25% {transform: translate(209.200005px,200.560005px) scale(1,1)} 72.5% {transform: translate(209.200005px,200.560005px) scale(1,1)} 73.75% {transform: translate(209.200005px,200.560005px) scale(1,0.157647)} 75% {transform: translate(209.200005px,200.560005px) scale(1,1)} 97.5% {transform: translate(209.200005px,200.560005px) scale(1,1)} 100% {transform: translate(209.200005px,200.560005px) scale(1,1)}} #e7nHaCiZ8UV74 {animation: e7nHaCiZ8UV74_c_o 8000ms linear infinite normal forwards}@keyframes e7nHaCiZ8UV74_c_o { 0% {opacity: 1} 43.75% {opacity: 1} 45% {opacity: 0} 55% {opacity: 0} 56.25% {opacity: 1} 97.5% {opacity: 1} 100% {opacity: 1}} #e7nHaCiZ8UV75_ts {animation: e7nHaCiZ8UV75_ts__ts 8000ms linear infinite normal forwards}@keyframes e7nHaCiZ8UV75_ts__ts { 0% {transform: translate(232.410011px,201.420006px) scale(1,1)} 72.5% {transform: translate(232.410011px,201.420006px) scale(1,1)} 73.75% {transform: translate(232.410011px,201.420006px) scale(1,0.173355)} 75% {transform: translate(232.410011px,201.420006px) scale(1,1)} 98.75% {transform: translate(232.410011px,201.420006px) scale(1,1)} 100% {transform: translate(232.410011px,201.420006px) scale(1,1)}} #e7nHaCiZ8UV75 {animation: e7nHaCiZ8UV75_c_o 8000ms linear infinite normal forwards}@keyframes e7nHaCiZ8UV75_c_o { 0% {opacity: 1} 43.75% {opacity: 1} 45% {opacity: 0} 55% {opacity: 0} 56.25% {opacity: 1} 98.75% {opacity: 1} 100% {opacity: 1}} #e7nHaCiZ8UV80 {animation: e7nHaCiZ8UV80__m 8000ms linear infinite normal forwards}@keyframes e7nHaCiZ8UV80__m { 0% {d: path('M226.91,227.53L215.44,229.4C215.44,229.4,223.09,235.95,226.91,227.53Z')} 18.75% {d: path('M226.91,227.53L215.44,229.4C215.44,229.4,223.09,235.95,226.91,227.53Z')} 22.5% {d: path('M226.91,227.53L215.308642,229.304638C217.243029,233.392329,225.595838,241.245266,226.91,227.53Z')} 26.25% {d: path('M226.91,227.53L215.44,229.4C215.44,229.4,223.09,235.95,226.91,227.53Z')} 30% {d: path('M226.91,227.53L215.308642,229.304638C217.243029,233.392329,225.595838,241.245266,226.91,227.53Z')} 37.5% {d: path('M226.91,227.53L215.308642,229.304638C217.243029,233.392329,225.595838,241.245266,226.91,227.53Z')} 38.75% {d: path('M226.91,227.53L215.44,229.4C215.44,229.4,223.09,235.95,226.91,227.53Z')} 45% {d: path('M226.91,227.53L215.44,229.4C215.44,229.4,223.09,235.95,226.91,227.53Z')} 46.25% {d: path('M226.91,227.53L215.308642,229.304638C217.243029,233.392329,225.595838,241.245266,226.91,227.53Z')} 97.5% {d: path('M226.91,227.53L215.308642,229.304638C217.243029,233.392329,225.595838,241.245266,226.91,227.53Z')} 100% {d: path('M226.91,227.53L215.44,229.4C215.44,229.4,223.09,235.95,226.91,227.53Z')}} #e7nHaCiZ8UV81 {animation: e7nHaCiZ8UV81__m 8000ms linear infinite normal forwards}@keyframes e7nHaCiZ8UV81__m { 0% {d: path('M204.97,192.41C204.97,192.41,208.61,188.03,214.76,190.55')} 33.75% {d: path('M204.97,192.41C204.97,192.41,208.61,188.03,214.76,190.55')} 35% {d: path('M203.214977,192.912124C203.214977,192.912124,207.667758,189.483544,214.76,190.55')} 37.5% {d: path('M204.97,192.41C204.97,192.41,208.61,188.03,214.76,190.55')} 43.75% {d: path('M204.97,192.41C204.97,192.41,208.61,188.03,214.76,190.55')} 55% {d: path('M204.97,192.41C204.97,192.41,208.61,188.03,214.76,190.55')} 56.25% {d: path('M204.97,192.41C204.97,192.41,208.61,188.03,214.76,190.55')} 97.5% {d: path('M204.97,192.41C204.97,192.41,208.61,188.03,214.76,190.55')} 100% {d: path('M204.97,192.41C204.97,192.41,208.61,188.03,214.76,190.55')}} #e7nHaCiZ8UV81_to {animation: e7nHaCiZ8UV81_to__to 8000ms linear infinite normal forwards}@keyframes e7nHaCiZ8UV81_to__to { 0% {transform: translate(209.864998px,191.089211px)} 33.75% {transform: translate(209.864998px,191.089211px)} 35% {transform: translate(208.079998px,197.417087px)} 37.5% {transform: translate(209.864998px,191.089211px)} 43.75% {transform: translate(209.864998px,191.089211px)} 45% {transform: translate(207.418391px,196.779571px)} 55% {transform: translate(207.418391px,196.779571px)} 56.25% {transform: translate(209.864998px,191.089211px)} 97.5% {transform: translate(209.864998px,191.089211px)} 100% {transform: translate(209.864998px,191.089211px)}} #e7nHaCiZ8UV82 {animation: e7nHaCiZ8UV82__m 8000ms linear infinite normal forwards}@keyframes e7nHaCiZ8UV82__m { 0% {d: path('M230.07,191.32C230.07,191.32,235.11,188.67,239.82,193.35')} 43.75% {d: path('M230.07,191.32C230.07,191.32,235.11,188.67,239.82,193.35')} 55% {d: path('M230.07,191.32C230.07,191.32,235.11,188.67,239.82,193.35')} 56.25% {d: path('M230.07,191.32C230.07,191.32,235.11,188.67,239.82,193.35')} 98.75% {d: path('M230.07,191.32C230.07,191.32,235.11,188.67,239.82,193.35')} 100% {d: path('M230.07,191.32C230.07,191.32,235.11,188.67,239.82,193.35')}} #e7nHaCiZ8UV82_to {animation: e7nHaCiZ8UV82_to__to 8000ms linear infinite normal forwards}@keyframes e7nHaCiZ8UV82_to__to { 0% {transform: translate(234.945007px,191.961319px)} 43.75% {transform: translate(234.945007px,191.961319px)} 45% {transform: translate(234.780678px,199.176118px)} 55% {transform: translate(234.780678px,199.176118px)} 56.25% {transform: translate(234.945007px,191.961319px)} 98.75% {transform: translate(234.945007px,191.961319px)} 100% {transform: translate(234.945007px,191.961319px)}} #e7nHaCiZ8UV83_tr {animation: e7nHaCiZ8UV83_tr__tr 8000ms linear infinite normal forwards}@keyframes e7nHaCiZ8UV83_tr__tr { 0% {transform: translate(283.08979px,279.059909px) rotate(0deg)} 18.75% {transform: translate(283.08979px,279.059909px) rotate(0deg)} 21.25% {transform: translate(283.08979px,279.059909px) rotate(15.284548deg)} 30% {transform: translate(283.08979px,279.059909px) rotate(15.284548deg)} 32.5% {transform: translate(283.08979px,279.059909px) rotate(0deg)} 97.5% {transform: translate(283.08979px,279.059909px) rotate(0deg)} 100% {transform: translate(283.08979px,279.059909px) rotate(0deg)}} #e7nHaCiZ8UV86 {animation: e7nHaCiZ8UV86__m 8000ms linear infinite normal forwards}@keyframes e7nHaCiZ8UV86__m { 0% {d: path('M273.12,259.84C273.12,259.84,303.32,270.78,311.54,295.22C319.77,319.66,320.89,364.5,320.89,364.5C320.89,364.5,309.71,350.04,287.63,347.22L283.12,349.92L273.11,259.84Z')} 18.75% {d: path('M273.12,259.84C273.12,259.84,303.32,270.78,311.54,295.22C319.77,319.66,320.89,364.5,320.89,364.5C320.89,364.5,309.71,350.04,287.63,347.22L283.12,349.92L273.11,259.84Z')} 21.25% {d: path('M269.619736,263.530315C269.619736,263.530315,304.196177,270.623919,312.416177,295.063919C320.646177,319.503919,320.89,364.5,320.89,364.5C320.89,364.5,309.71,350.04,287.63,347.22L283.12,349.92L268.973322,263.289234Z')} 30% {d: path('M263.385739,262.242047C263.385739,262.242047,292.220397,262.544031,312.416177,295.063919C320.646177,319.503919,320.89,364.5,320.89,364.5C320.89,364.5,309.71,350.04,287.63,347.22L283.12,349.92L275.408194,295.84104Z')} 32.5% {d: path('M267.014994,257.523865C267.014994,257.523865,304.196177,270.623919,312.416177,295.063919C320.646177,319.503919,320.89,364.5,320.89,364.5C320.89,364.5,309.71,350.04,287.63,347.22L283.12,349.92L271.369994,293.474897Z')} 97.5% {d: path('M267.014994,257.523865C267.014994,257.523865,304.196177,270.623919,312.416177,295.063919C320.646177,319.503919,320.89,364.5,320.89,364.5C320.89,364.5,309.71,350.04,287.63,347.22L283.12,349.92L272.979994,292.146305Z')} 100% {d: path('M273.12,259.84C273.12,259.84,303.32,270.78,311.54,295.22C319.77,319.66,320.89,364.5,320.89,364.5C320.89,364.5,309.71,350.04,287.63,347.22L283.12,349.92L273.11,259.84Z')}} #e7nHaCiZ8UV175_tr {animation: e7nHaCiZ8UV175_tr__tr 8000ms linear infinite normal forwards}@keyframes e7nHaCiZ8UV175_tr__tr { 0% {transform: translate(378.130001px,283.129828px) rotate(0deg)} 16.25% {transform: translate(378.130001px,283.129828px) rotate(-7.047557deg)} 36.25% {transform: translate(378.130001px,283.129828px) rotate(5.8598deg)} 56.25% {transform: translate(378.130001px,283.129828px) rotate(0deg)} 77.5% {transform: translate(378.130001px,283.129828px) rotate(5.8598deg)} 100% {transform: translate(378.130001px,283.129828px) rotate(0deg)}} #e7nHaCiZ8UV179_tr {animation: e7nHaCiZ8UV179_tr__tr 8000ms linear infinite normal forwards}@keyframes e7nHaCiZ8UV179_tr__tr { 0% {transform: translate(356.74px,288.490326px) rotate(0deg)} 12.5% {transform: translate(356.74px,288.490326px) rotate(-18.267564deg)} 25% {transform: translate(356.74px,288.490326px) rotate(0deg)} 37.5% {transform: translate(356.74px,288.490326px) rotate(-18.267564deg)} 50% {transform: translate(356.74px,288.490326px) rotate(0deg)} 62.5% {transform: translate(356.74px,288.490326px) rotate(-18.267564deg)} 75% {transform: translate(356.74px,288.490326px) rotate(0deg)} 87.5% {transform: translate(356.74px,288.490326px) rotate(-18.267564deg)} 100% {transform: translate(356.74px,288.490326px) rotate(0deg)}} #e7nHaCiZ8UV190_tr {animation: e7nHaCiZ8UV190_tr__tr 8000ms linear infinite normal forwards}@keyframes e7nHaCiZ8UV190_tr__tr { 0% {transform: translate(399.04px,430.124115px) rotate(0deg)} 18.75% {transform: translate(399.04px,430.124115px) rotate(-8.601575deg)} 56.25% {transform: translate(399.04px,430.124115px) rotate(0deg)} 81.25% {transform: translate(399.04px,430.124115px) rotate(-8.601575deg)} 100% {transform: translate(399.04px,430.124115px) rotate(0deg)}} #e7nHaCiZ8UV194_tr {animation: e7nHaCiZ8UV194_tr__tr 8000ms linear infinite normal forwards}@keyframes e7nHaCiZ8UV194_tr__tr { 0% {transform: translate(108.830241px,347.19px) rotate(0deg)} 12.5% {transform: translate(108.830241px,347.19px) rotate(0deg)} 18.75% {transform: translate(108.830241px,347.19px) rotate(15.555708deg)} 97.5% {transform: translate(108.830241px,347.19px) rotate(15.555708deg)} 100% {transform: translate(108.830241px,347.19px) rotate(0deg)}} #e7nHaCiZ8UV221_tr {animation: e7nHaCiZ8UV221_tr__tr 8000ms linear infinite normal forwards}@keyframes e7nHaCiZ8UV221_tr__tr { 0% {transform: translate(335.6939px,98.488764px) rotate(0deg)} 100% {transform: translate(335.6939px,98.488764px) rotate(359.784467deg)}}]]></style><defs><linearGradient id="e7nHaCiZ8UV29-fill" x1="0.873293" y1="0.546092" x2="0.873293" y2="0.089164" spreadMethod="pad" gradientUnits="objectBoundingBox" gradientTransform="translate(0 0)"><stop id="e7nHaCiZ8UV29-fill-0" offset="0%" stop-color="#cae4ff"/><stop id="e7nHaCiZ8UV29-fill-1" offset="100%" stop-color="#24b6d6"/></linearGradient></defs><g transform="translate(-.20679 0)" clip-path="url(#e7nHaCiZ8UV55)"><g transform="translate(-.269976 0)"><rect width="432.86" height="926.34" rx="0" ry="0" transform="matrix(1 0 0 0.62055-2.160024 0)" fill="#5f683c"/><path d="M357.84,427.58l42.83,1.1l42.83-1.1l2,10.61c2.68,14.22,8.25,27.73,16.38,39.69l3.86,5.68c3.39,4.99,3.94,11.39,1.45,16.89l-15.77,74.27-101.900024.120287L334.43,501.04c-2.63-5.81-1.86-12.6,2.02-17.67v0c11.45-14.98,18.66-32.76,20.89-51.49l.51-4.29Z" fill="#ce7127"/><path d="M357.84,427.58l42.83,1.1l42.83-1.1l2,10.61c2.68,14.22,8.25,27.73,16.38,39.69l3.86,5.68c3.39,4.99,3.94,11.39,1.45,16.89l-14.23,73.27-95.11-146.13Z" fill="#c55a24"/><path d="M467.17,500.44l-15.41,74.28h-102.580023L334.41,501.02c-2.57-5.68-1.88-12.29,1.77-17.33h129.63c3.3,4.97,3.82,11.29,1.36,16.74Z" fill="#bc5122"/><path d="M409.03,483.71h56.79c3.3,4.97,3.82,11.29,1.36,16.74l-14.23,73.27-43.92-90.01Z" fill="#bc5122"/><ellipse rx="42.92" ry="4.77" transform="translate(400.75 427.58)" fill="#904a1e"/><path d="M423.5,380.39c0,0-12.1,12.84-14.31,51.72" fill="none" stroke="#7a7c00" stroke-width="1.47" stroke-linecap="round" stroke-miterlimit="10"/><path d="M414.82,376.84c0,0-8.8,31.3-6.6,55.27" fill="none" stroke="#7a7c00" stroke-width="1.47" stroke-linecap="round" stroke-miterlimit="10"/><line x1="404.79" y1="378.55" x2="405.52" y2="432.11" fill="none" stroke="#7a7c00" stroke-width="1.47" stroke-linecap="round" stroke-miterlimit="10"/><path d="M386.94,313.26c0,0,15.9,86.08,15.65,119.34" fill="none" stroke="#baba00" stroke-width="1.47" stroke-linecap="round" stroke-miterlimit="10"/><path d="M376.18,318.4c0,0,8.31,10.76,18.1,59.91c5.87,35.21,7.21,54.04,7.21,54.04" fill="none" stroke="#7a7c00" stroke-width="1.47" stroke-linecap="round" stroke-miterlimit="10"/><rect width="109.31" height="6.24" rx="2.42" ry="2.42" transform="matrix(-1 0 0-1 455.41 574.840287)" fill="#904a1e"/><path d="M426.31,348.96c0,0,3.67-10.76,22.86-14.43c7.21-.73,17.85.37,17.85.37s-.37,7.46-5.01,10.64c4.65-.73,15.28,1.1,20.17,7.46-2.81,2.45-11,6.24-17.61,5.75c5.38,3.67,12.84,15.41,13.82,32.52-4.4,1.34-30.81-3.55-34.97-14.67.37,6.24,1.1,18.46-4.77,19.44-2.81-1.1-17.85-9.66-16.38-26.29-3.3,6.24-12.47,11.25-23.23,6.85c0-3.55.73-27.63,27.27-27.63Z" fill="#7a7c00"/><path d="M410.66,213.12c.42.25,2.81-16.63,22.38-16.75-.98,3.3-2.2,7.58-7.34,12.72c6.85-5.5,20.42-8.56,28.49-2.81-3.55,4.16-5.26,9.17-11.86,10.15c8.07-1.83,25.55-2.45,29.71,6.11-2.93,2.81-11.74,10.76-26.53,8.31c3.06,2.45,15.9,11.62,10.52,28.61-3.91,1.47-32.77-3.42-33.38-24.21-1.83,2.2-2.93,6.85.49,13.82c2.57,8.19,1.96,16.51-6.72,21.15-1.71-1.71-15.41-5.14-16.14-17.24s3.91-17.48,3.91-17.48c-4.77,7.34-10.76,14.79-23.97,15.77-2.57-4.52,6.11-17.12,14.55-22.86-8.19,2.69-22.13,5.5-30.45,1.34.61-3.79,11.25-13.21,21.64-14.18-5.62-1.1-8.19-3.06-8.19-3.06s15.28-9.66,32.89.61Z" fill="#7a7c00"/><path d="M430.47,351.29c-2.02,1.38-3.99,2.81-5.95,4.27-.98.72-1.95,1.47-2.93,2.2l-2.9,2.23-2.88,2.26c-.95.77-1.91,1.52-2.85,2.29-1.89,1.54-3.77,3.1-5.6,4.72c2.02-1.38,3.99-2.81,5.95-4.27.98-.72,1.95-1.47,2.93-2.2l2.9-2.23l2.88-2.26c.95-.76,1.91-1.52,2.85-2.3c1.89-1.54,3.77-3.1,5.6-4.72Z" fill="#baba00"/><g><path d="M417.14,222.29c.48.23.96.47,1.43.71.48.24.95.48,1.42.73.94.5,1.88,1,2.8,1.53c1.86,1.04,3.68,2.13,5.47,3.27c1.79,1.15,3.55,2.33,5.27,3.58.42.32.86.62,1.28.94l1.26.96c.83.66,1.66,1.32,2.46,2.01.41.34.81.68,1.2,1.04.39.35.79.7,1.18,1.06l1.15,1.1c.38.36.74.75,1.12,1.13c1.47,1.52,2.88,3.1,4.14,4.8.33.41.63.85.93,1.29s.61.86.88,1.32c.28.45.57.89.83,1.35l.76,1.39c.13.23.25.47.36.71l.34.72c.11.24.23.48.34.72l.29.74c.41.98.71,2,1.03,3.02-.44-2.09-1.15-4.11-2.03-6.07l-.71-1.44c-.25-.47-.53-.93-.79-1.4-.25-.47-.56-.91-.85-1.36s-.58-.9-.91-1.33c-.32-.43-.63-.87-.95-1.3l-1.01-1.25c-.17-.21-.34-.41-.52-.61l-.53-.6-.53-.6-.55-.58c-1.47-1.56-3.05-3.01-4.68-4.4-3.26-2.77-6.79-5.22-10.45-7.42-1.83-1.1-3.7-2.13-5.6-3.1-1.91-.95-3.83-1.87-5.82-2.65Z" fill="#baba00"/><path d="M438.78,208.23c-1.93.74-3.83,1.57-5.72,2.41-1.89.85-3.75,1.75-5.59,2.72-.92.49-1.83.98-2.73,1.5-.9.53-1.78,1.07-2.65,1.65-.86.58-1.72,1.19-2.52,1.88s-1.57,1.43-2.15,2.38l-.31.51.6.03c2.38.13,4.77.24,7.15.36l7.16.31l3.58.14l3.58.12l3.58.1l1.79.05l1.79.03-1.79-.15-1.79-.14-3.57-.27-3.57-.25-3.57-.23-7.15-.42c-2.38-.13-4.77-.26-7.15-.37l.3.54c.49-.82,1.22-1.54,1.98-2.21.77-.66,1.59-1.27,2.43-1.86c1.69-1.16,3.46-2.21,5.26-3.22.9-.5,1.81-.99,2.72-1.48.91-.48,1.83-.95,2.75-1.42c1.84-.94,3.7-1.83,5.58-2.71Z" fill="#baba00"/><path d="M423.5,203.58c-1.27.93-2.36,2.1-3.32,3.36s-1.78,2.63-2.43,4.07c-.18.35-.31.73-.46,1.1l-.22.55c-.08.18-.14.37-.19.56l-.35,1.14c-.12.38-.18.77-.27,1.16-.08.39-.18.77-.22,1.16l-.15,1.17c-.06.39-.05.79-.07,1.18-.01.39-.02.79-.02,1.18.08-.39.15-.77.22-1.16.08-.38.12-.77.22-1.15.18-.76.33-1.52.57-2.25l.16-.56c.05-.19.1-.37.17-.55l.39-1.09c.12-.37.28-.72.42-1.08.15-.36.28-.72.46-1.06.16-.35.32-.7.49-1.05.18-.34.37-.68.54-1.02.37-.67.77-1.33,1.2-1.98.85-1.29,1.78-2.54,2.85-3.69Z" fill="#baba00"/><path d="M413.72,219.72c-1.31-1.08-2.72-2.03-4.18-2.9-.36-.22-.73-.43-1.11-.63l-.56-.31-.57-.29c-.75-.4-1.53-.74-2.3-1.1-.79-.32-1.57-.65-2.38-.93l-.6-.21c-.2-.07-.41-.12-.61-.19-.41-.12-.82-.24-1.23-.35-1.65-.41-3.35-.67-5.05-.68c1.67.32,3.29.72,4.89,1.23.79.29,1.59.52,2.36.85.39.16.79.28,1.17.46l1.16.49c.77.34,1.53.68,2.29,1.05l.57.27.56.28c.37.19.75.37,1.13.56c1.5.77,2.98,1.57,4.46,2.4Z" fill="#baba00"/><path d="M414.45,220.82c-1.64-.31-3.3-.52-4.97-.69-1.66-.17-3.33-.29-5.01-.35-1.67-.07-3.35-.07-5.02-.03-1.68.05-3.35.16-5.02.33-1.67.18-3.33.43-4.98.77-1.64.35-3.28.78-4.86,1.35-1.59.56-3.12,1.27-4.57,2.14-1.43.89-2.76,1.94-3.85,3.21c1.21-1.15,2.58-2.11,4.03-2.9.73-.39,1.48-.74,2.24-1.06s1.54-.6,2.33-.85c1.58-.5,3.18-.9,4.81-1.21.81-.15,1.63-.3,2.45-.42s1.64-.22,2.47-.3c1.65-.18,3.31-.29,4.97-.36c1.66-.08,3.32-.09,4.99-.09c3.33.03,6.66.18,9.98.47Z" fill="#baba00"/><path d="M415.55,221.92c-1.53.57-3.01,1.26-4.48,1.98-1.46.73-2.9,1.51-4.3,2.35-2.81,1.67-5.51,3.54-8.06,5.59-2.54,2.06-4.95,4.31-7.1,6.78-2.17,2.45-4.08,5.14-5.65,8c1.83-2.7,3.84-5.25,6.07-7.61.55-.6,1.13-1.16,1.69-1.74.29-.29.58-.56.87-.84l.44-.42.45-.41c1.18-1.11,2.42-2.16,3.68-3.17c1.25-1.03,2.55-2,3.87-2.95c1.31-.95,2.66-1.85,4.03-2.73c1.37-.87,2.76-1.72,4.17-2.52c1.41-.81,2.84-1.58,4.31-2.3Z" fill="#baba00"/><path d="M416.28,223.02c-.63,1.47-1.13,2.99-1.59,4.53-.45,1.54-.83,3.09-1.15,4.66-.65,3.14-1.02,6.34-1.18,9.54-.05,1.6-.06,3.21,0,4.81.02.4.05.8.07,1.2l.04.6.05.6.11,1.2.15,1.19c.05.4.11.79.18,1.19s.12.79.2,1.19c.16.78.31,1.57.51,2.35.36,1.56.84,3.09,1.37,4.6-.38-1.55-.76-3.1-1.02-4.67-.16-.78-.26-1.57-.38-2.35-.06-.39-.1-.79-.15-1.18s-.1-.79-.13-1.18c-.32-3.16-.4-6.34-.27-9.51.06-1.59.19-3.17.36-4.75.16-1.58.39-3.15.65-4.72.27-1.57.57-3.13.94-4.68.36-1.55.76-3.09,1.24-4.62Z" fill="#baba00"/></g><path d="M409.68,266.55c0,0-16.63,45.48-7.58,96.59" fill="none" stroke="#7a7c00" stroke-width="1.47" stroke-linecap="round" stroke-miterlimit="10"/><path d="M455.17,309.84c0,0-19.07,5.38-32.52,39.37" fill="none" stroke="#baba00" stroke-width="1.47" stroke-linecap="round" stroke-miterlimit="10"/><polygon points="-198.16,528.74 143.97,528.74 139.25,-3.07 -198.16,-3.07 -198.16,528.74" transform="translate(.920171-.230171)" fill="url(#e7nHaCiZ8UV29-fill)"/><polygon points="217.74,422.26 186.39,433.84 186.39,493.09 160.53,493.09 160.53,346.5 127.55,328.14 106.12,334.58 106.12,410.27 90.27,410.27 90.27,237.11 19.26,205.96 -22.85,215.38 -22.85,381.77 -56.03,381.77 -56.03,480.85 -70.36,480.85 -70.36,349.72 -109.59,334.16 -118.41,339.8 -118.41,522.91 223.6,522.91 223.6,425.88 217.74,422.26" transform="translate(0 65.29)" opacity="0.3" fill="#fff"/><polygon points="235.52,-2.4 235.52,545.57 162.14,545.57 163.49,-3.07 235.52,-2.4" fill="#919b67"/><g id="e7nHaCiZ8UV35_to" transform="translate(50.915001,72.282744)"><g id="e7nHaCiZ8UV35" transform="translate(-50.915001,-140.509998)" opacity="0"><polygon points="139.62,70.87 139.62,132.91 -37.79,252.5 -37.79,188.22 139.62,70.87" opacity="0.83" fill="#fff"/><polygon points="139.62,28.52 139.62,52.8 -37.79,172.39 -37.79,145.87 139.62,28.52" opacity="0.83" fill="#fff"/></g></g><path d="M159.45,149.74v-152.81h-20.2l.67,135.98h-183.77L-42.5,-3.07h-18.18v135.98h-137.48v16.83h137.48l.67,181.08h-138.15v16.83h138.15l.67,181.08h-138.82v16.83h357.61v-16.83l1.35-181.08v-16.83l-1.35-181.08Zm-203.3,0h183.78l1.35,181.08h-185.13v-181.08Zm1.35,379l-1.35-181.08h185.12l2.69,181.08h-186.46Z" fill="#aeb77b"/><path d="M145.31,-3.07l2.02,135.98h-185.12l2.02-135.98h-18.85v135.98h-143.54v16.83h143.54l.67,181.08h-144.21v16.83h144.21l.67,181.08h-144.88v16.83h360.3v-16.83l1.35-181.08v-350.72h-18.18ZM148,528.74h-186.47l.67-181.08h186.48l-.67,181.08ZM-37.79,330.82v-181.08h185.12l1.35,181.08h-186.47Z" fill="#5f683c"/><polygon style="mix-blend-mode:multiply" points="137.91,-9.13 235.52,91.17 235.52,-2.4 137.91,-9.13" opacity="0.29" fill="#5582a9"/><rect width="410.82" height="894.29" rx="0" ry="0" fill="none"/><path id="e7nHaCiZ8UV42" d="M173.53,302.35l-1.73-3.76c-4.76-10.37-16.75-14.83-26.18-9.72l-32.24,17.46c-8.63,4.68-11.96,15.73-7.6,25.23v0c1.83,3.98,4.74,7.11,8.18,9.15-1.47,2.24-1.68,4.57,1.16,6.48c0,0,22.42,1.62,46.02-17.42l.05-.15l2.96-1.2c9.82-3.96,14.09-15.82,9.38-26.07Z" fill="#fcccb1"/><path id="e7nHaCiZ8UV43" d="M120.146771,347.71001C137.248423,345.12002,167.251942,331.514647,181.26,320.47l20.57-65.94c.37-1.09-.64-2.13-1.74-1.79-6.49,2.01-24.51,4.79-39.13,20.7-10.38,11.29-33.41,19.390011-33.41,19.390011s-4.283229,47.509995-7.403229,54.879999Z" fill="#213440"/><path d="M160.53,454.578344c0-.42.66.42.66,0c.06-15.39.47-24.978344.68-39.248344c0-.43.01-.86.02-1.28.09-6.15.2-12.05.32-17.6c0-.42.32-.72.69-.63c14.91,3.52,29.84,7.04,44.94,9.38c15.21,2.36,30.53,3.32,45.85,2.44c8.86-.51,17.68-1.61,26.41-3.26.71-.13,1.06,1.07.34,1.21-.26.05-.53.09-.79.14.55,4.95,1.11,10.4,1.67,16.18.04.42.08.83.12,1.26.19,1.96.38,3.96.56,5.98.73,1.87,1.45,3.75,2,5.68.51,1.81.9,3.64,1.17,5.5.47,2.13,2.679985-2.16,2.999985,0c.9,6.17.779991,11.821093,1.224745,20.86c0,3.657717,1.13651,11.87,2.03651,14.37.94,2.62,1.493989,5.06,1.833989,7.81.74,5.95,1.744771,9.34,3.214771,15.18c1.55,6.21.49,16.02,1.23,22.46.03.3,6.259976,53.72,5.979976,53.71-5.46-.04-42.889976-.24-49.999976,0-4.97.17-9.761918.050287-14.731918.120287C235.838082,568.950287,227.47,504.9,223.73,499.41c-.15-.22-.48-.13-.49.13-.38,5.68.946256,69.67,2.176256,75.18-10.49.05-16.012442.79-26.502442.73-10.44-.06-33.073814-.73-39.512542-.73-2.129025.93.078728-57.38.068728-57.73-.17-15.86.507436-37.43.577436-56.48" fill="#213440"/><path d="M161.063302,460.51c32.477937,11.450937,99.282945-2.052334,127.43-13.365c0-31.327152,0-67.734999,0-67.734999L290.52,293.86c2.39-33.56-27.67-37.47-27.67-37.47s-16.53-.14-52.91-4.42c-36.38-4.27-42.386698,25.885234-42.386698,25.885234l-6.89,85.284766c-1.26207,3.155174-.357698,41.410379-1.422564,55.84-.701492,9.24-.64555,29.43-.64555,41.53" transform="translate(.806698 0)" fill="#213440"/><rect width="42.6" height="58.06" rx="10.47" ry="10.47" transform="matrix(.994933 0.100535-.100535 0.994933 218.562198 215.806663)" fill="#fcccb1"/><path d="M263.386722,257.840006q.403305,0,3.433305,0L230.30496,380.215001q-21.104934,1.665001-21.104934,0c0-1.665001-4.220102-70.954986-4.220102-72.654986q0-1.7-1.96879-43.841922l2.383845-11.748094l3.805047-.620002l14.259997,37.52l16.12048-11.014766q11.379523-11.305234,12.109523-11.305234c.73,0,11.29339-8.709994,11.696696-8.709991Z" transform="translate(.000001 0.000003)" fill="#e6e2e2" stroke-width="1.852"/><path d="M226.910027,272.560016h3.394933l10.825066,17.748594-5.850003,5.52139-.147115,87.67-16.822885,16.37-11.55-19.21l11.819971-85.909984-5.254837-8.001633l9.494863-15.908367q4.090012,1.72,4.090007,1.72Z" transform="translate(.000006 0)" fill="#bc5122" stroke-width="1.852"/><path d="M229.080027,272.560017l12.050005,18.589996l26.189971-33.31001q-5.909979-5.870004-6.269979-5.870004c-.36,0-31.969997,20.590021-31.969997,20.590018Z" transform="translate(0 0.000003)" fill="#fff" stroke-width="1.852"/><path d="M215.731313,253.61654q9.302617,14.257579,8.232617,14.257579t-11.544974,13.221635l-5.279182-30.936477l5.727844-1.401365l2.863695,4.858628Z" transform="matrix(1.337363 0 0 1.201818-71.356113-49.37592)" fill="#fff" stroke-width="1.852"/><path d="M163.4,323.17c0,0,5.88,23.16,2.44,43.94s2.52,16.39,2.52,16.39l14.65-28.22-.33-39.33-19.27,7.21Z" fill="#213440"/><path d="M204.914055,251.349996l13.64814,149.220001-24.566623-40.300001l8.717345-36.709982-14.712896-21.460017l16.914034-50.750001Z" transform="translate(.000003 0.000004)" fill="#2e3e49" stroke-width="1.852"/><path d="M267.319998,257.840006L218.310024,399.87l33.649974-27.909999L247.680049,334.035l22.829972-40.514984-3.190023-35.68001Z" transform="translate(.000005 0)" fill="#2e3e49" stroke-width="1.852"/><line x1="173.28" y1="295.83" x2="169.95" y2="326.36" transform="translate(.162471 0)" fill="none" stroke="#231f20" stroke-width="0.84" stroke-linecap="round" stroke-linejoin="round"/></g><clipPath id="e7nHaCiZ8UV55"><rect width="428" height="926" rx="0" ry="0" transform="translate(0-1.81)" fill="#d2dbed" stroke-width="0"/></clipPath></g><g clip-path="url(#e7nHaCiZ8UV63)"><g><g><path d="M-34.27,-1.81c-4.46,96.65-23.76,496.82-38.68,532.69C-89.93,571.7,22.34,576,22.34,576h18.87l26.42-50.85L55.73,-1.81h-90Z" fill="#bd0a11"/><path id="e7nHaCiZ8UV61" d="M36.05,-1.81c1.27,74.87,4.24,280.22-.49,319.98C22.35,429.18,22.35,576,22.35,576h18.87l27.16-18.12c0,0-12.65-559.69-12.65-559.69h-19.68Z" fill="#ed1c24"/><path d="M9.14,92.27c0,0-7.55,176.49-6.6,226.51.82,43.52-29.79,206.07-37.75,247.54c12.02,3.58,25.37,5.87,36.7,7.32-1.52-63.3,3.92-111.17,9.62-142.91c7.16-39.84,9.72-80.07,7.9-120.26L9.14,92.27Z" transform="translate(0 1.08)" fill="#bd0a11"/></g></g><clipPath id="e7nHaCiZ8UV63"><rect width="140.329979" height="607.82" rx="0" ry="0" transform="translate(-.269975-1.81)" fill="#d2dbed" stroke-width="0"/></clipPath></g><g id="e7nHaCiZ8UV65_tr" transform="translate(256.957174,239.605776) rotate(0)"><g transform="translate(-256.957147,-239.34996)"><g><path d="M200.08,165.35c0,0-5.31,24.19-4.82,33.03s-1.09,11.28-1.09,11.28l13.91-34.6c0,0-2.29-12.85-8.01-9.7Z" fill="#3b2a2d"/><path d="M202.96,172.95c0,0-5.03,16.24-8.97,36.96-3.94,20.71,13.11,35.16,21.88,38.92c8.77,3.75,24.08,3.23,43.03-9.43l4.49-60.63-60.43-5.82Z" transform="translate(-.247108 0)" fill="#fcccb1"/><path d="M215.45,248.72c0,0,9.61,3.92,20.63.61" fill="none" stroke="#000" stroke-width="0.86" stroke-linecap="round" stroke-linejoin="round"/><path d="M198.43,176.94c0,0,17.76-4.75,30.42,0c12.65,4.75,27.49.84,27.49.84v47.14c0,0,2.04-19.91,10.48-13.12s7.37,4.93,7.37,4.93s17.4-57.73-11.86-63-49.49-14.76-63.9,23.2Z" fill="#3b2a2d"/><ellipse rx="15.29" ry="12.99" transform="translate(210.55 161.68)" fill="#3b2a2d"/><ellipse rx="15.29" ry="12.99" transform="translate(225.84 155.37)" fill="#3b2a2d"/><ellipse rx="11.25" ry="11.02" transform="translate(262.94 217.01)" fill="#fcccb1"/><g id="e7nHaCiZ8UV74_ts" transform="translate(209.200005,200.560005) scale(1,1)"><circle id="e7nHaCiZ8UV74" r="2.18" transform="translate(-0.000005,-0.000005)" fill="#231f20"/></g><g id="e7nHaCiZ8UV75_ts" transform="translate(232.410011,201.420006) scale(1,1)"><circle id="e7nHaCiZ8UV75" r="2.18" transform="translate(-0.000011,-0.000006)" fill="#231f20"/></g><polyline points="221.03,204.92 213.89,217.09 221.03,220.34" fill="none" stroke="#231f20" stroke-width="1.29" stroke-linecap="round" stroke-linejoin="round"/><path d="M252.42,220.93c0,0,1.79,5.63,7.36,6.81" fill="none" stroke="#000" stroke-width="0.86" stroke-linecap="round" stroke-linejoin="round"/><ellipse rx="15.29" ry="12.99" transform="translate(244.37 158.17)" fill="#3b2a2d"/><polyline points="263.79,211.91 259.19,218.95 267.05,220.19" fill="none" stroke="#000" stroke-width="0.86" stroke-linecap="round" stroke-linejoin="round"/><path id="e7nHaCiZ8UV80" d="M226.91,227.53l-11.47,1.87c0,0,7.65,6.55,11.47-1.87Z" transform="translate(0-.000001)" fill="#fff" stroke="#231f20" stroke-width="1.29" stroke-linecap="round" stroke-linejoin="round"/><g id="e7nHaCiZ8UV81_to" transform="translate(209.864998,191.089211)"><path id="e7nHaCiZ8UV81" d="M204.97,192.41c0,0,3.64-4.38,9.79-1.86" transform="rotate(-2.997562) translate(-209.864998,-191.089211)" fill="none" stroke="#231f20" stroke-width="1.72" stroke-linecap="round" stroke-linejoin="round"/></g><g id="e7nHaCiZ8UV82_to" transform="translate(234.945007,191.961319)"><path id="e7nHaCiZ8UV82" d="M230.07,191.32c0,0,5.04-2.65,9.75,2.03" transform="rotate(7.966867) translate(-234.945007,-191.961319)" fill="none" stroke="#231f20" stroke-width="1.72" stroke-linecap="round" stroke-linejoin="round"/></g></g></g></g><g id="e7nHaCiZ8UV83_tr" transform="translate(283.08979,279.059909) rotate(0)"><g transform="translate(-283.089781,-279.059899)"><g><path d="M318.89,356.83c0,0,3.32,20.17,2,32.82s-19.1,17.78-26.27,10.6c-7.18-7.18-12.86-22.79-12.86-22.79v-20.63l3.37-13.68l33.77,13.68Z" fill="#fcccb1"/><path id="e7nHaCiZ8UV86" d="M273.12,259.84c0,0,30.2,10.94,38.42,35.38c8.23,24.44,9.35,69.28,9.35,69.28s-11.18-14.46-33.26-17.28l-4.51,2.7-10.01-90.08Z" transform="translate(0 0.355107)" fill="#213440"/><g><path d="M189.15,264.79l8.03,41.52c.26,1.34,1.72,2.19,3.27,1.9l22.14-4.24c1.55-.29,2.6-1.61,2.34-2.95l-8.01-41.44-.02-.09c-.05-.28-.16-.54-.31-.77-.56-.88-1.74-1.37-2.96-1.14l-22.14,4.23c-1.55.29-2.6,1.61-2.34,2.96" fill="#bf7525"/><path d="M187.32,263.91l8.03,41.52c.26,1.34,1.72,2.19,3.27,1.9l22.14-4.24c1.55-.29,2.6-1.61,2.34-2.95l-8.01-41.44-.02-.09c-.05-.28-.16-.54-.31-.77-.56-.88-1.74-1.37-2.96-1.14l-22.14,4.23c-1.55.29-2.6,1.61-2.34,2.96" fill="#c6c3b0"/><rect width="1.3" height="31.35" rx="0.28" ry="0.28" transform="matrix(.981926-.189267 0.189267 0.981926 201.311566 264.660407)" fill="#b2ae9a"/><g><g><g><path d="M212.56,265.22l-3.18.62.61,3.13l3.18-.62c.86-.17,1.43-1,1.26-1.87-.17-.86-1-1.43-1.87-1.26Z" fill="#b2ae9a"/><path d="M209.38,265.84l-3.18.62c-.86.17-1.43,1-1.26,1.87s1,1.43,1.87,1.26l3.18-.62-.61-3.13Z" fill="#b2ae9a"/></g><g><path d="M212.66,264.29l-3.18.62.61,3.13l3.18-.62c.86-.17,1.43-1,1.26-1.87s-1-1.43-1.87-1.26Z" fill="#969387"/><path d="M209.48,264.9l-3.18.62c-.86.17-1.43,1-1.26,1.87s1,1.43,1.87,1.26l3.18-.62-.61-3.13Z" fill="#969387"/></g></g><g><g><path d="M213.84,271.83l-3.18.62.61,3.13l3.18-.62c.86-.17,1.43-1,1.26-1.87s-1-1.43-1.87-1.26Z" fill="#b2ae9a"/><path d="M210.66,272.44l-3.18.62c-.86.17-1.43,1-1.26,1.87s1,1.43,1.87,1.26l3.18-.62-.61-3.13Z" fill="#b2ae9a"/></g><g><path d="M213.94,270.89l-3.18.62.61,3.13l3.18-.62c.86-.17,1.43-1,1.26-1.87s-1-1.43-1.87-1.26Z" fill="#fff"/><path d="M210.76,271.51l-3.18.62c-.86.17-1.43,1-1.26,1.87s1,1.43,1.87,1.26l3.18-.62-.61-3.13Z" fill="#c55a24"/></g></g><g><g><path d="M215.12,278.43l-3.18.62.61,3.13l3.18-.62c.86-.17,1.43-1,1.26-1.87s-1-1.43-1.87-1.26Z" fill="#b2ae9a"/><path d="M211.94,279.05l-3.18.62c-.86.17-1.43,1-1.26,1.87s1,1.43,1.87,1.26l3.18-.62-.61-3.13Z" fill="#b2ae9a"/></g><g><path d="M215.22,277.49l-3.18.62.61,3.13l3.18-.62c.86-.17,1.43-1,1.26-1.87s-1-1.43-1.87-1.26Z" fill="#fff"/><path d="M212.04,278.11l-3.18.62c-.86.17-1.43,1-1.26,1.87s1,1.43,1.87,1.26l3.18-.62-.61-3.13Z" fill="#c55a24"/></g></g><g><g><path d="M216.4,285.03l-3.18.62.61,3.13l3.18-.62c.86-.17,1.43-1,1.26-1.87s-1-1.43-1.87-1.26Z" fill="#b2ae9a"/><path d="M213.22,285.65l-3.18.62c-.86.17-1.43,1-1.26,1.87s1,1.43,1.87,1.26l3.18-.62-.61-3.13Z" fill="#b2ae9a"/></g><g><path d="M216.5,284.1l-3.18.62.61,3.13l3.18-.62c.86-.17,1.43-1,1.26-1.87s-1-1.43-1.87-1.26Z" fill="#fff"/><path d="M213.32,284.71l-3.18.62c-.86.17-1.43,1-1.26,1.87s1,1.43,1.87,1.26l3.18-.62-.61-3.13Z" fill="#c55a24"/></g></g><g><g><path d="M217.68,291.64l-3.18.62.61,3.13l3.18-.62c.86-.17,1.43-1,1.26-1.87s-1-1.43-1.87-1.26Z" fill="#b2ae9a"/><path d="M214.5,292.25l-3.18.62c-.86.17-1.43,1-1.26,1.87s1,1.43,1.87,1.26l3.18-.62-.61-3.13Z" fill="#b2ae9a"/></g><g><path d="M217.78,290.7l-3.18.62.61,3.13l3.18-.62c.86-.17,1.43-1,1.26-1.87s-1-1.43-1.87-1.26Z" fill="#fff"/><path d="M214.6,291.32l-3.18.62c-.86.17-1.43,1-1.26,1.87s1,1.43,1.87,1.26l3.18-.62-.61-3.13Z" fill="#c55a24"/></g></g></g><g><g><g><path d="M198.52,268.06l-3.18.62.61,3.13l3.18-.62c.86-.17,1.43-1,1.26-1.87s-1-1.43-1.87-1.26Z" fill="#b2ae9a"/><path d="M195.34,268.68l-3.18.62c-.86.17-1.43,1-1.26,1.87s1,1.43,1.87,1.26l3.18-.62-.61-3.13Z" fill="#b2ae9a"/></g><g><path d="M198.62,267.13l-3.18.62.61,3.13l3.18-.62c.86-.17,1.43-1,1.26-1.87s-1-1.43-1.87-1.26Z" fill="#fff"/><path d="M195.44,267.74l-3.18.62c-.86.17-1.43,1-1.26,1.87s1,1.43,1.87,1.26l3.18-.62-.61-3.13Z" fill="#c55a24"/></g></g><g><g><path d="M199.8,274.67l-3.18.62.61,3.13l3.18-.62c.86-.17,1.43-1,1.26-1.87s-1-1.43-1.87-1.26Z" fill="#b2ae9a"/><path d="M196.62,275.28l-3.18.62c-.86.17-1.43,1-1.26,1.87.17.86,1,1.43,1.87,1.26l3.18-.62-.61-3.13Z" fill="#b2ae9a"/></g><g><path d="M199.9,273.73l-3.18.62.61,3.13l3.18-.62c.86-.17,1.43-1,1.26-1.87s-1-1.43-1.87-1.26Z" fill="#fff"/><path d="M196.72,274.35l-3.18.62c-.86.17-1.43,1-1.26,1.87s1,1.43,1.87,1.26l3.18-.62-.61-3.13Z" fill="#c55a24"/></g></g><g><g><path d="M201.08,281.27l-3.18.62.61,3.13l3.18-.62c.86-.17,1.43-1,1.26-1.87s-1-1.43-1.87-1.26Z" fill="#b2ae9a"/><path d="M197.9,281.89l-3.18.62c-.86.17-1.43,1-1.26,1.87s1,1.43,1.87,1.26l3.18-.62-.61-3.13Z" fill="#b2ae9a"/></g><g><path d="M201.18,280.33l-3.18.62.61,3.13l3.18-.62c.86-.17,1.43-1,1.26-1.87s-1-1.43-1.87-1.26Z" fill="#fff"/><path d="M198,280.95l-3.18.62c-.86.17-1.43,1-1.26,1.87s1,1.43,1.87,1.26l3.18-.62-.61-3.13Z" fill="#c55a24"/></g></g><g><g><path d="M202.36,287.88l-3.18.62.61,3.13l3.18-.62c.86-.17,1.43-1,1.26-1.87-.17-.86-1-1.43-1.87-1.26Z" fill="#b2ae9a"/><path d="M199.18,288.49l-3.18.62c-.86.17-1.43,1-1.26,1.87s1,1.43,1.87,1.26l3.18-.62-.61-3.13Z" fill="#b2ae9a"/></g><g><path d="M202.46,286.94l-3.18.62.61,3.13l3.18-.62c.86-.17,1.43-1,1.26-1.87s-1-1.43-1.87-1.26Z" fill="#fff"/><path d="M199.28,287.55l-3.18.62c-.86.17-1.43,1-1.26,1.87s1,1.43,1.87,1.26l3.18-.62-.61-3.13Z" fill="#c55a24"/></g></g><g><g><path d="M203.64,294.48l-3.18.62.61,3.13l3.18-.62c.86-.17,1.43-1,1.26-1.87s-1-1.43-1.87-1.26Z" fill="#b2ae9a"/><path d="M200.46,295.1l-3.18.62c-.86.17-1.43,1-1.26,1.87.17.86,1,1.43,1.87,1.26l3.18-.62-.61-3.13Z" fill="#b2ae9a"/></g><g><path d="M203.74,293.54l-3.18.62.61,3.13l3.18-.62c.86-.17,1.43-1,1.26-1.87s-1-1.43-1.87-1.26Z" fill="#fff"/><path d="M200.56,294.16l-3.18.62c-.86.17-1.43,1-1.26,1.87s1,1.43,1.87,1.26l3.18-.62-.61-3.13Z" fill="#c55a24"/></g></g></g><path d="M189.97,277.6c0,0,6.31,7.99,8,9.37s11.78,5.86,11.78,5.86l11.45,6.56.26,1.92c0,0-23.93-9.95-27.06-13.78s-4.13-7.03-4.13-7.03l-.2-1.42-.11-1.48Z" fill="#b2ae9a"/><path d="M189.53,314.16c.26.44.63.92,1.08,1.41c3.13,3.46,10.04,7.84,11.16,8.49c3.64,2.07,14.43,8.34,18.02,10.5c3.03,1.83,7.65,6.35,12.26,11.24c3.08,3.27,6.16,6.71,8.76,9.64c1.6-2.64,2.92-5.41,4.47-8.08c1.41-2.42,3.08-4.66,4.72-6.94-2.55-2.78-5.5-6-8.22-9.11-4.49-5.13-8.38-10-8.94-12.17-.01-.17-.61-5.52-.62-5.69-.17-3.55.06-6.9-1-10.36-1.03-3.36-2.78-6.45-4.72-9.37-1.06-1.6-2.19-3.16-3.35-4.69-.68-.9-1.28-1.76-2.49-1.79-.38-.01-.68.24-.64.64.43,4.23.87,8.46,1.31,12.69-5.55-3.16-11.13-6.3-16.93-8.95-3.09-1.41-5.88-2.58-8.3-5.05-2.18-2.22-4.08-4.76-5.86-7.31-.96-1.37-2.61-3.49-4.55-2.33-1.49.9-1.14,2.91-.74,4.3.58,2.02,1.42,3.97,2.46,5.8-3.03,2.76-1.42,6.91.97,10.1-.14.62-.19,1.28-.21,1.84-.04,1.48.21,2.94.69,4.33-3.82.4-.3,9.18.68,10.83" fill="#fcccb1"/><path d="M188.68,288.31c2.21,4.34,5.75,7.71,10.19,9.71.67.3.24,1.36-.44,1.06-4.71-2.13-8.46-5.71-10.8-10.32-.33-.66.72-1.11,1.05-.45" fill="#d37a62"/><path d="M190.29,298.89c2.02,2.59,4.53,4.63,7.49,6.05.66.32.23,1.38-.44,1.06-3.13-1.5-5.82-3.66-7.95-6.4-.45-.58.45-1.29.9-.71" fill="#d37a62"/><path d="M190.81,305.99c1.88,2.63,4.43,4.54,7.48,5.6.7.24.26,1.3-.44,1.06-3.22-1.12-5.96-3.18-7.94-5.95-.43-.6.47-1.31.9-.71" fill="#d37a62"/></g><path d="M263.49,376.17c0,0,17.45,27.54,35.97,27.36c18.53-.19,17.5-22.32,17.5-22.32s-11.67-14.94-44.28-20.05h-8.11c0,0-7.26,4.18-1.07,15.01Z" fill="#fcccb1"/><path d="M232.09,309.22c0,0,1.23,7.58,2.67,10.25s28.94,25.13,28.94,25.13-6.72,7.64-7.56,8.02-14.62-4.66-14.62-4.66-13.61-13.61-13.61-15.12s1.18-12.77,1.51-14.28s2.66-9.33,2.66-9.33Z" fill="#fcccb1"/><path d="M193.38,316.67c0,0,11.5,11.69,21.22,16.57s20.86,25.44,30.64,33.92s16.27,10.69,19.46,12.23s9.37-12.49,8.59-15.1-3.78-11.87-11.48-14.87-36.92-18.49-36.92-18.49-9.13-4.21-11.61-5-19.9-9.26-19.9-9.26Z" fill="#fcccb1"/><path d="M263.71,344.6c0,0,22.49,9.11,30.66,24.03s5.86,13.71,5.86,13.71L287.9,400.38c0,0-32.27-14.66-49.04-39.99s-15.89-28.17-14.64-27.99s39.49,12.2,39.49,12.2Z" fill="#fcccb1"/><path d="M285.46,357.98c0,0,15.18,8.64,15.07,17.8v1.77" fill="none" stroke="#231f20" stroke-width="0.84" stroke-linecap="round" stroke-linejoin="round"/><path d="M238.590024,319.86l-14.370015,27.33q42.65999,57.21812,78.32499,58.54c10.622774-.64,23.855018.259984,18.345009-45.17q-9.35-10.518833-32.21001-15.95999l-8.849976,5.441157L238.590024,319.86Z" transform="translate(.098073 0.52)" fill="#213440" stroke-width="1.852"/><path d="M279.24667,330.82v20.47l-18.556646-14.679984" fill="none" stroke="#231f20" stroke-linecap="round"/></g></g></g><g id="e7nHaCiZ8UV175_tr" transform="translate(378.130001,283.129828) rotate(0)"><g transform="translate(-378.13,-283.129828)"><path d="M337.05,226.69c0,0,27.39,8.56,41.08,57.47" fill="none" stroke="#baba00" stroke-width="1.47" stroke-linecap="round" stroke-miterlimit="10"/><g transform="translate(.000003 0)"><path d="M337.05,226.69c0,0,16.14.49,19.81-8.44-4.65-.49-19.93-2.81-27.63,6.85-9.29-3.79-32.52-5.14-43.28,17.61c4.65-1.1,14.67-5.26,19.93-8.8-7.46,6.6-7.95,10.27-7.95,10.27s14.31-.12,21.76-7.46c-1.71,5.75-.24,14.18-.24,14.18s17.73-1.1,17.61-24.21Z" fill="#baba00"/></g></g></g><g id="e7nHaCiZ8UV179_tr" transform="translate(356.74,288.490326) rotate(0)"><g transform="translate(-356.74,-288.49031)"><g><path d="M361.99,280.86c0,0,29.96-2.69,34.24,32.04-2.08,1.1-17.36.12-20.3-4.28c1.71,7.34-1.71,25.92-8.44,31.79-3.06-1.1-9.54-9.17-10.27-22.5-1.47,10.88-9.05,34.11-29.22,35.34-1.34-2.81-1.34-21.89,10.76-41.08-6.48,6.6-15.53,13.21-35.34,10.15.24-2.45,5.01-12.1,17.48-19.81-6.36,0-15.9-.98-16.87-7.09c2.81-2.45,9.41-6.85,21.28-6.97-9.05-1.47-14.18-1.83-17.36-6.11c3.79-2.69,9.41-8.31,27.14-7.46-6.6-3.55-9.66-10.76-9.66-10.76s29.47-4.52,36.56,16.75Z" fill="#7a7c00"/><g><path d="M360.16,290.4c.4,0,.8,0,1.2.02.4.01.8.03,1.2.06s.8.06,1.2.1c.4.05.8.08,1.19.14c1.58.2,3.16.49,4.7.86c1.55.38,3.07.83,4.56,1.4c1.48.56,2.94,1.2,4.33,1.96s2.73,1.61,4,2.56c1.26.96,2.46,2.01,3.57,3.14c2.21,2.28,4.06,4.91,5.6,7.73l-.5-1.09c-.17-.36-.33-.73-.53-1.08-.39-.71-.76-1.42-1.21-2.09-.85-1.37-1.86-2.65-2.93-3.86l-.84-.88c-.14-.15-.29-.29-.43-.42l-.45-.41-.45-.41c-.15-.14-.31-.26-.46-.39-.31-.26-.62-.52-.94-.77-1.29-.99-2.66-1.87-4.08-2.65-2.86-1.53-5.95-2.62-9.11-3.27-1.58-.33-3.19-.54-4.79-.66-.8-.05-1.61-.09-2.41-.08-.8,0-1.61.03-2.41.12Z" fill="#baba00"/><path d="M356.74,290.89c1.07,1.39,2.02,2.87,2.91,4.38s1.7,3.06,2.45,4.64c.74,1.58,1.43,3.19,2.04,4.83.62,1.63,1.16,3.3,1.62,4.98.25.84.45,1.69.66,2.53.18.85.38,1.7.53,2.56.35,1.71.56,3.45.76,5.19.35,3.48.43,6.99.27,10.5.46-3.49.55-7.03.3-10.56-.14-1.76-.34-3.52-.65-5.26-.07-.44-.15-.87-.24-1.3l-.27-1.3c-.21-.86-.4-1.72-.65-2.57-.95-3.41-2.24-6.72-3.85-9.86-.8-1.57-1.69-3.1-2.66-4.58-.98-1.46-2.02-2.9-3.22-4.19Z" fill="#baba00"/><path d="M354.05,291.62c-.02,1.98-.16,3.95-.35,5.91s-.45,3.92-.75,5.87c-.62,3.89-1.47,7.75-2.55,11.53-1.07,3.79-2.41,7.5-3.95,11.13-1.56,3.62-3.36,7.14-5.36,10.55c2.26-3.25,4.21-6.72,5.88-10.32.4-.91.83-1.81,1.19-2.73.19-.46.38-.92.56-1.38l.53-1.39c.18-.46.33-.94.5-1.4.16-.47.33-.94.48-1.41l.45-1.42.42-1.43c.53-1.91,1.02-3.84,1.43-5.78.39-1.95.74-3.9.99-5.87.26-1.97.44-3.94.55-5.92.09-1.98.13-3.96-.01-5.94Z" fill="#baba00"/><path d="M355.64,289.05c-.3-1.26-.73-2.49-1.19-3.7-.47-1.21-1-2.4-1.6-3.55-1.19-2.31-2.63-4.51-4.35-6.49-.87-.98-1.8-1.9-2.8-2.75-1.02-.83-2.1-1.58-3.25-2.21-1.15-.64-2.38-1.11-3.63-1.49l-.95-.24c-.16-.04-.32-.06-.48-.09l-.48-.08-.48-.08c-.16-.02-.32-.03-.49-.04l-.97-.07.95.18c.16.03.32.05.47.09l.47.12c.31.09.63.15.93.25l.91.3c.15.05.3.11.45.17l.44.18.44.18c.15.06.29.14.43.21.28.15.58.27.86.43l.83.47c1.08.67,2.12,1.41,3.08,2.24.96.84,1.86,1.74,2.7,2.7.85.95,1.62,1.98,2.35,3.03.74,1.05,1.41,2.14,2.05,3.25.63,1.12,1.23,2.26,1.77,3.42.55,1.16,1.06,2.35,1.52,3.56Z" fill="#baba00"/><path d="M352.82,289.42c-2.03-1.45-4.23-2.66-6.49-3.73-1.13-.54-2.29-1.02-3.45-1.48-1.17-.44-2.36-.84-3.56-1.2-1.2-.35-2.43-.64-3.66-.88l-.93-.17-.93-.14c-.31-.05-.62-.08-.93-.12-.31-.03-.62-.07-.94-.09-1.25-.11-2.51-.11-3.76-.05-1.25.07-2.49.24-3.71.5c1.24-.1,2.48-.17,3.72-.14.31,0,.62.02.93.03l.46.02.46.04.92.07.92.1c1.22.17,2.45.34,3.65.62c1.21.26,2.41.55,3.59.9c2.37.68,4.7,1.53,6.99,2.49c2.28.96,4.53,2.02,6.72,3.21Z" fill="#baba00"/><path d="M351.72,291.01c-.78,0-1.55.08-2.33.14-.77.06-1.55.13-2.32.2-1.54.15-3.09.3-4.63.47-1.54.16-3.08.35-4.62.52l-4.62.57-4.61.61c-1.54.22-3.07.42-4.61.66-3.07.45-6.13.93-9.19,1.48c3.1-.25,6.18-.57,9.26-.91c1.54-.17,3.08-.36,4.62-.53l4.62-.57l4.61-.61c1.54-.22,3.07-.42,4.61-.64s3.07-.45,4.6-.68l2.3-.35l1.15-.18c.38-.06.77-.13,1.15-.16Z" fill="#baba00"/><path d="M352.46,291.86c-1.59,1.38-3.19,2.75-4.81,4.08-1.61,1.35-3.24,2.67-4.88,3.99-3.28,2.62-6.61,5.19-10.02,7.63-1.7,1.23-3.43,2.42-5.18,3.58-1.74,1.17-3.53,2.27-5.33,3.34s-3.65,2.07-5.54,2.98c-1.88.93-3.82,1.74-5.82,2.4l1.52-.42c.5-.16,1-.33,1.5-.5.25-.08.5-.18.74-.27l.74-.28c.5-.18.98-.39,1.46-.6c1.93-.84,3.83-1.78,5.67-2.81.47-.25.92-.52,1.38-.78s.91-.53,1.36-.81l1.35-.82l1.34-.85c1.77-1.15,3.51-2.34,5.22-3.56c1.71-1.24,3.39-2.5,5.05-3.8c1.65-1.31,3.29-2.63,4.9-3.99c3.22-2.72,6.35-5.54,9.33-8.51Z" fill="#baba00"/></g></g></g></g><g id="e7nHaCiZ8UV190_tr" transform="translate(399.04,430.124115) rotate(0)"><g transform="translate(-399.039999,-430.124114)"><path d="M382.05,389.56c0,0,15.16,3.42,17.73,42.79" fill="none" stroke="#baba00" stroke-width="1.47" stroke-linecap="round" stroke-miterlimit="10"/><g><path d="M365.3,370.85c0,0,16.63-2.32,23.6,8.56-3.06,2.45-8.56,2.69-8.56,2.69s3.3,4.52,1.34,11.74c-3.55-.86-8.68-3.42-12.47-7.58.12,3.55-5.14,13.57-10.03,14.31-2.57-4.65-2.2-9.05-2.32-13.94-3.06,4.52-10.52,8.93-22.74,7.46-.12-3.91,4.65-11.98,11.49-16.87-5.75.12-13.33.24-15.77-5.26c3.67-.86,12.59-3.18,16.38-1.59-5.26-2.81-5.99-5.5-5.99-5.5s10.39.37,14.43,1.71c-5.75-3.55-5.75-6.72-5.75-6.72s13.21,1.1,16.38,11Z" fill="#baba00"/></g></g></g><g id="e7nHaCiZ8UV194_tr" transform="translate(108.830241,347.19) rotate(0)"><g transform="translate(-108.830236,-347.189994)"><g><path d="M123.79,182.09c-.03-2.18-2.13-3.94-4.68-3.92l-14.64.11c-.55,0-1.07.1-1.55.26v0l-3.3.8l1.34.41c-.64.68-1.04,1.53-1.03,2.47l.29,51.25c.01,2.15,2.03,3.91,4.54,3.96l15.18.31c2.6.05,4.73-1.75,4.69-3.98l-.83-51.66Z" fill="#191919"/><path d="M116.49,238.59l-15.18-.31c-2.51-.05-4.52-1.81-4.54-3.96l-.29-51.25c-.01-2.17,2.02-3.93,4.55-3.95l14.64-.11c2.55-.02,4.65,1.74,4.68,3.92l.83,51.66c.04,2.23-2.09,4.03-4.69,3.98Z"/><path d="M104.35,245.67l17.33,27.18c27.2,55.88,7.27,68.89,7.27,68.89-18.57,13.21-24.72-1.75-24.72-1.75L87.95,261.75l-.9-11.21l17.31-4.87Z" fill="#fcccb1"/><path d="M87.09,250.44c0,0-.36-7.46-.58-8.73s-1.16-4.95-1.76-6.99c-.59-2.03-2.54-5.61-1.99-8s1.2-3.14,1.24-5.16-.93-3.94-.53-5.07s9.31-10.3,9.31-10.3-.92-11.01.24-11.87c1.15-.86,3.2-2.08,3.4.7s-.18,8.72-.18,8.72s13.89-5.91,14.91-6.02s3.04-.57,3.51,1.59c.46,2.16,2.2,3.96-5.59,7.98l-10.1,4.47-6.66,5.55c0,0,5-3.44,8.55-4s22.52-1.19,22.97,1.6s1.77,6.23-9.36,6.76-14.69,1.73-14.69,1.73-2.29.96-5.38,3.68-2.2,2.61-2.2,2.61s3.01-5.25,10.48-5.73s19.97-.23,19.97-.23s2.13-.59,2.48,2.45c.28,2.49.35,4.4-5.46,4.53c0,0-6.46.09-7.73.44s-6.77,1.2-6.77,1.2-.38-.13-1.9.09-2.47,1.21-1.09,1.74s10.61.21,10.61.21s6.45-.38,8.1-.47s4.26-.45,4.88.32s1.17,4.94-4.24,5.79c-8.15,1.27-13.56,1.75-13.56,1.75l-2.15.08-2.04.56.34,4.31l2.64,6.75c0,0,1.59,2.56-2.99,4.36-4.59,1.8-14.07,2.24-14.7,1.85s-.65,2.61-1.96-9.26Z" fill="#fcccb1"/></g><path d="M131.58,297.15c0,0,5.3,9.49,5.19,14.3s-1.33,8.26-1.33,8.26" fill="none" stroke="#231f20" stroke-width="0.84" stroke-linecap="round" stroke-linejoin="round"/><path d="M112.668983,249.453805q0,.360006-31.123999,10.56q6.405015,95.546189,41.105015,87.63619c17.867205-9.455684,16.558984-17.149985,14.990019-39.029985s-24.971035-59.526211-24.971035-59.166205Z" transform="translate(-.015059-.553811)" fill="#213440" stroke-width="1.852"/></g></g><g><g><circle r="47.17" transform="translate(335.85 98.31)" fill="#e1912b"/><circle r="40.99" transform="translate(335.85 98.31)" fill="#fff6db"/><g><g><rect width="2.08" height="7.01" rx="1" ry="1" transform="translate(334.75 61.5)" fill="#eac18d"/><rect width="2.08" height="7.01" rx="1" ry="1" transform="translate(334.88 128.1)" fill="#eac18d"/></g><g><rect width="2.08" height="7.01" rx="1" ry="1" transform="matrix(0 1-1 0 372.66 97.2)" fill="#eac18d"/><rect width="2.08" height="7.01" rx="1" ry="1" transform="matrix(0 1-1 0 306.05 97.33)" fill="#eac18d"/></g><g><path d="M359.4,72.33h.08c.55,0,1,.45,1,1v2.59c0,.55-.45,1-1,1h-.08c-.55,0-1-.45-1-1v-2.59c0-.55.45-1,1-1Z" transform="matrix(.70686 0.707354-.707354 0.70686 158.13-232.36)" fill="#eac18d"/><rect width="2.08" height="5.18" rx="1" ry="1" transform="matrix(.70686 0.707354-.707354 0.70686 313.529552 119.241777)" fill="#eac18d"/></g><g><path d="M359.49,119.63h.08c.55,0,1,.45,1,1v2.59c0,.55-.45,1-1,1h-.08c-.55,0-1-.45-1-1v-2.59c0-.55.45-1,1-1Z" transform="matrix(-.707354 0.70686-.70686-.707354 700.01-46)" fill="#eac18d"/><path d="M312.32,72.34h.08c.55,0,1,.45,1,1v3.18c0,.55-.45,1-1,1h-.08c-.55,0-1-.45-1-1v-3.18c0-.55.45-1,1-1Z" transform="matrix(-.707354 0.70686-.70686-.707354 586.26-92.88)" fill="#eac18d"/></g></g><path d="M335.88,72.52h-.08c-.61,0-1.1.49-1.1,1.1v24.17c0,.61.49,1.1,1.1,1.1h.08c.61,0,1.1-.49,1.1-1.1v-24.17c0-.61-.49-1.1-1.1-1.1v0Z" fill="#ce7127"/><path d="M352.51,98.61h-16.71c-.61,0-1.1.49-1.1,1.1v.08c0,.61.49,1.1,1.1,1.1h16.71c.61,0,1.1-.49,1.1-1.1v-.08c0-.61-.49-1.1-1.1-1.1v0Z" fill="#ce7127"/><g id="e7nHaCiZ8UV221_tr" transform="translate(335.6939,98.488764) rotate(0)"><path d="M353.19,82.4c-.07,0-.14.03-.2.08l-17.2,15.48c-.12.11-.13.3-.02.43.06.07.14.1.22.1.07,0,.14-.03.2-.08l17.2-15.48c.12-.11.13-.3.02-.43-.06-.07-.14-.1-.23-.1v0Z" transform="translate(-335.693451,-98.49)" fill="#ce7127"/></g><circle r="4.16" transform="translate(335.85 98.31)" fill="#eac18d"/></g></g></svg>