<svg id="eSLngTKEo9r1" xmlns="http://www.w3.org/2000/svg" xmlns:xlink="http://www.w3.org/1999/xlink" viewBox="0 0 1080 1434.99" shape-rendering="geometricPrecision" text-rendering="geometricPrecision"><style><![CDATA[#eSLngTKEo9r89 {animation: eSLngTKEo9r89_c_o 5000ms linear infinite normal forwards}@keyframes eSLngTKEo9r89_c_o { 0% {opacity: 1} 58% {opacity: 1} 60% {opacity: 0} 80% {opacity: 0} 84% {opacity: 1} 100% {opacity: 1}} #eSLngTKEo9r90 {animation: eSLngTKEo9r90_c_o 5000ms linear infinite normal forwards}@keyframes eSLngTKEo9r90_c_o { 0% {opacity: 1} 58% {opacity: 1} 60% {opacity: 0} 80% {opacity: 0} 84% {opacity: 1} 100% {opacity: 1}} #eSLngTKEo9r95 {animation: eSLngTKEo9r95__m 5000ms linear infinite normal forwards}@keyframes eSLngTKEo9r95__m { 0% {d: path('M553.25,574.48C553.25,574.48,566.411923,575.435489,580.4,570.05')} 26% {d: path('M553.25,574.48C553.25,574.48,566.411923,575.435489,580.4,570.05')} 58% {d: path('M553.25,574.48C553.25,574.48,568.096401,578.647256,580.4,570.05')} 62% {d: path('M553.25,574.48C553.25,574.48,571.609858,591.520899,580.4,570.05')} 100% {d: path('M553.25,574.48C553.25,574.48,571.609858,591.520899,580.4,570.05')}} #eSLngTKEo9r96_to {animation: eSLngTKEo9r96_to__to 5000ms linear infinite normal forwards}@keyframes eSLngTKEo9r96_to__to { 0% {transform: translate(540.054962px,483.776123px)} 58% {transform: translate(540.054962px,483.776123px)} 62% {transform: translate(538.900635px,500.370379px)} 80% {transform: translate(538.900635px,500.370379px)} 84% {transform: translate(540.054962px,483.776123px)} 100% {transform: translate(540.054962px,483.776123px)}} #eSLngTKEo9r97_to {animation: eSLngTKEo9r97_to__to 5000ms linear infinite normal forwards}@keyframes eSLngTKEo9r97_to__to { 0% {transform: translate(599.425018px,485.849365px)} 58% {transform: translate(599.425018px,485.849365px)} 62% {transform: translate(599.584487px,505.978994px)} 80% {transform: translate(599.584487px,505.978994px)} 84% {transform: translate(599.425018px,485.849365px)} 100% {transform: translate(599.425018px,485.849365px)}} #eSLngTKEo9r98_tr {animation: eSLngTKEo9r98_tr__tr 5000ms linear infinite normal forwards}@keyframes eSLngTKEo9r98_tr__tr { 0% {transform: translate(871.365px,620.2px) rotate(0deg)} 30% {transform: translate(871.365px,620.2px) rotate(-9.492133deg)} 80% {transform: translate(871.365px,620.2px) rotate(3.64977deg)} 100% {transform: translate(871.365px,620.2px) rotate(0deg)}} #eSLngTKEo9r100_tr {animation: eSLngTKEo9r100_tr__tr 5000ms linear infinite normal forwards}@keyframes eSLngTKEo9r100_tr__tr { 0% {transform: translate(300.875461px,859.305px) rotate(0deg)} 20% {transform: translate(300.875461px,859.305px) rotate(0deg)} 24% {transform: translate(300.875461px,859.305px) rotate(7.256305deg)} 96% {transform: translate(300.875461px,859.305px) rotate(7.256305deg)} 100% {transform: translate(300.875461px,859.305px) rotate(0deg)}} #eSLngTKEo9r106_tr {animation: eSLngTKEo9r106_tr__tr 5000ms linear infinite normal forwards}@keyframes eSLngTKEo9r106_tr__tr { 0% {transform: translate(779.350152px,620.804949px) rotate(-6.902815deg)} 26% {transform: translate(779.350152px,620.804949px) rotate(-6.902815deg)} 30% {transform: translate(779.350152px,620.804949px) rotate(8.335225deg)} 96% {transform: translate(779.350152px,620.804949px) rotate(8.335225deg)} 100% {transform: translate(779.350152px,620.804949px) rotate(-6.902815deg)}} #eSLngTKEo9r109 {animation: eSLngTKEo9r109__m 5000ms linear infinite normal forwards}@keyframes eSLngTKEo9r109__m { 0% {d: path('M691.156517,643.550467C691.156517,643.550467,760.503725,657.591783,785.119456,726.489135C804.589456,784.349135,802.88,894.29,802.88,894.29C802.88,894.29,776.42,860.05,724.15,853.38L713.48,859.77L691.156517,643.550467Z')} 26% {d: path('M691.156517,643.550467C691.156517,643.550467,760.503725,657.591783,785.119456,726.489135C804.589456,784.349135,802.88,894.29,802.88,894.29C802.88,894.29,776.42,860.05,724.15,853.38L713.48,859.77L691.156517,643.550467Z')} 30% {d: path('M696.395175,672.92759C696.395175,672.92759,781.768433,669.38595,801.248433,727.25595C830.090124,790.806186,803.983465,917.965119,803.983465,917.965119C803.983465,917.965119,779.263808,864.031483,730.819877,860.995405L713.48,859.77L696.395175,672.92759Z')} 96% {d: path('M696.395175,672.92759C696.395175,672.92759,781.768433,669.38595,801.248433,727.25595C830.090124,790.806186,803.983465,917.965119,803.983465,917.965119C803.983465,917.965119,779.263808,864.031483,730.819877,860.995405L713.48,859.77L696.395175,672.92759Z')} 100% {d: path('M691.156517,643.550467C691.156517,643.550467,760.503725,657.591783,785.119456,726.489135C804.589456,784.349135,802.88,894.29,802.88,894.29C802.88,894.29,776.42,860.05,724.15,853.38L713.48,859.77L691.156517,643.550467Z')}} #eSLngTKEo9r196_tr {animation: eSLngTKEo9r196_tr__tr 5000ms linear infinite normal forwards}@keyframes eSLngTKEo9r196_tr__tr { 0% {transform: translate(921.845px,761.190552px) rotate(0deg)} 50% {transform: translate(921.845px,761.190552px) rotate(16.61197deg)} 100% {transform: translate(921.845px,761.190552px) rotate(0deg)}}]]></style><g style="isolation:isolate" transform="translate(-2.445867 0)"><g transform="translate(3.620718 0)"><g clip-path="url(#eSLngTKEo9r76)"><g><g><rect width="1080" height="1435.68" rx="0" ry="0" fill="#5f683c"/><path d="M918.13,1103.08l104.34,2.68l104.34-2.68l4.86,25.84c6.52,34.63,20.1,67.55,39.91,96.7l9.39,13.83c8.26,12.16,9.6,27.75,3.54,41.15l-37.6,185h-248.89l-36.95-183.56c-6.42-14.16-4.53-30.7,4.91-43.06v0c27.89-36.5,45.47-79.82,50.9-125.44l1.24-10.45Z" fill="#c55a24"/><path d="M918.13,1103.08l104.34,2.68l104.34-2.68l4.86,25.84c6.52,34.63,20.1,67.55,39.91,96.7l9.39,13.83c8.26,12.16,9.6,27.75,3.54,41.15l-34.66,178.52-231.72-356.03Z" fill="#c55a24"/><path d="M1184.51,1280.6l-36.58,182.76h-250.91l-35.94-181.33c-6.27-13.85-4.59-29.95,4.31-42.21h315.82c8.05,12.11,9.31,27.52,3.3,40.78Z" fill="#bc5122"/><path d="M1042.85,1239.82h138.35c8.05,12.11,9.31,27.52,3.3,40.78l-34.66,178.52-106.99-219.3Z" fill="#bc5122"/><ellipse rx="104.56" ry="11.62" transform="translate(1022.69 1103.08)" fill="#904a1e"/><path d="M1078.1,988.1c0,0-29.49,31.28-34.85,126.01" fill="none" stroke="#7a7c00" stroke-width="3.57" stroke-linecap="round" stroke-miterlimit="10"/><path d="M1056.95,979.46c0,0-21.45,76.26-16.09,134.65" fill="none" stroke="#7a7c00" stroke-width="3.57" stroke-linecap="round" stroke-miterlimit="10"/><path d="M977.11,1010.44c0,0,36.94,8.34,43.19,104.26" fill="none" stroke="#baba00" stroke-width="3.57" stroke-linecap="round" stroke-miterlimit="10"/><line x1="1032.52" y1="983.63" x2="1034.31" y2="1114.11" fill="none" stroke="#7a7c00" stroke-width="3.57" stroke-linecap="round" stroke-miterlimit="10"/><path d="M989.03,824.55c0,0,38.73,209.72,38.13,290.74" fill="none" stroke="#baba00" stroke-width="3.57" stroke-linecap="round" stroke-miterlimit="10"/><path d="M962.81,837.06c0,0,20.26,26.21,44.09,145.97c14.3,85.79,17.58,131.67,17.58,131.67" fill="none" stroke="#7a7c00" stroke-width="3.57" stroke-linecap="round" stroke-miterlimit="10"/><path d="M1084.95,911.54c0,0,8.94-26.21,55.71-35.15c17.58-1.79,43.49.89,43.49.89s-.89,18.17-12.21,25.92c11.32-1.79,37.24,2.68,49.15,18.17-6.85,5.96-26.81,15.19-42.9,14c13.11,8.94,31.28,37.53,33.66,79.24-10.72,3.28-75.07-8.64-85.2-35.75.89,15.19,2.68,44.98-11.62,47.37-6.85-2.68-43.49-23.53-39.92-64.05-8.04,15.19-30.39,27.41-56.6,16.68c0-8.64,1.79-67.32,66.43-67.32Z" fill="#7a7c00"/><path d="M1046.82,580.58c1.03.6,6.85-40.51,54.51-40.81-2.38,8.04-5.36,18.47-17.87,30.98c16.68-13.41,49.75-20.85,69.41-6.85-8.64,10.13-12.81,22.34-28.9,24.73c19.66-4.47,62.26-5.96,72.39,14.89-7.15,6.85-28.6,26.21-64.64,20.26c7.45,5.96,38.73,28.3,25.62,69.71-9.53,3.57-79.84-8.34-81.32-58.98-4.47,5.36-7.15,16.68,1.19,33.66c6.26,19.96,4.77,40.22-16.38,51.54-4.17-4.17-37.53-12.51-39.32-42s9.53-42.6,9.53-42.6c-11.62,17.87-26.21,36.05-58.39,38.43-6.26-11.02,14.89-41.71,35.45-55.71-19.96,6.55-53.92,13.41-74.18,3.28c1.49-9.23,27.41-32.17,52.73-34.56-13.7-2.68-19.96-7.45-19.96-7.45s37.24-23.53,80.13,1.49Z" fill="#7a7c00"/><path d="M1095.08,917.2c-4.92,3.36-9.73,6.85-14.5,10.4-2.4,1.76-4.75,3.57-7.13,5.36l-7.07,5.43-7.01,5.51c-2.32,1.86-4.65,3.7-6.95,5.59-4.61,3.75-9.18,7.56-13.65,11.5c4.92-3.36,9.73-6.85,14.5-10.4c2.4-1.76,4.75-3.57,7.13-5.36l7.07-5.44l7.01-5.51c2.32-1.86,4.65-3.7,6.95-5.59c4.61-3.75,9.18-7.55,13.65-11.5Z" fill="#baba00"/><g><path d="M1062.61,602.92c1.17.55,2.33,1.14,3.49,1.72s2.31,1.18,3.46,1.77c2.29,1.21,4.57,2.45,6.82,3.73c4.52,2.53,8.96,5.19,13.33,7.96c4.36,2.79,8.66,5.67,12.83,8.71c1.04.77,2.09,1.51,3.12,2.3l3.08,2.35c2.02,1.61,4.05,3.21,5.99,4.9.99.83,1.98,1.66,2.93,2.53.96.86,1.93,1.71,2.88,2.59l2.8,2.67c.94.89,1.81,1.84,2.72,2.75c3.59,3.7,7.02,7.56,10.09,11.7.81,1,1.53,2.08,2.26,3.13.73,1.06,1.49,2.1,2.15,3.21.68,1.1,1.38,2.18,2.03,3.29l1.85,3.4c.33.56.6,1.14.87,1.73l.83,1.75c.27.59.56,1.17.82,1.76l.7,1.81c1.01,2.39,1.72,4.88,2.52,7.35-1.06-5.09-2.81-10.02-4.95-14.78l-1.74-3.51c-.62-1.15-1.29-2.27-1.93-3.41-.62-1.15-1.37-2.22-2.08-3.32-.72-1.09-1.41-2.2-2.21-3.24-.77-1.05-1.53-2.12-2.32-3.16l-2.47-3.04c-.4-.51-.83-1.01-1.27-1.49l-1.3-1.47-1.3-1.47-1.35-1.42c-3.58-3.8-7.42-7.34-11.39-10.72-7.95-6.75-16.54-12.72-25.45-18.09-4.46-2.68-9.02-5.19-13.65-7.55-4.66-2.31-9.34-4.57-14.18-6.46Z" fill="#baba00"/><path d="M1115.34,568.66c-4.71,1.8-9.33,3.81-13.94,5.87-4.59,2.08-9.14,4.27-13.61,6.63-2.23,1.18-4.45,2.39-6.64,3.66-2.18,1.28-4.34,2.61-6.46,4.01-2.11,1.42-4.18,2.9-6.13,4.57-1.94,1.68-3.82,3.48-5.23,5.81l-.75,1.23l1.47.08c5.81.33,11.62.58,17.43.87l17.43.76l8.72.33l8.72.29l8.72.24l4.36.12l4.36.08-4.35-.37-4.35-.33-8.7-.66-8.71-.6-8.71-.56-17.42-1.03c-5.81-.31-11.62-.64-17.43-.91l.72,1.32c1.2-2,2.97-3.76,4.83-5.37c1.88-1.61,3.87-3.1,5.92-4.53c4.12-2.82,8.44-5.39,12.81-7.86c2.19-1.22,4.4-2.42,6.62-3.6s4.46-2.31,6.7-3.46c4.48-2.29,9.03-4.46,13.59-6.6Z" fill="#baba00"/><path d="M1078.1,557.34c-3.11,2.26-5.75,5.11-8.08,8.18s-4.34,6.4-5.93,9.92c-.43.86-.76,1.78-1.12,2.67l-.53,1.35c-.19.45-.34.9-.47,1.37l-.84,2.77c-.28.92-.45,1.88-.66,2.82-.19.95-.45,1.87-.54,2.84l-.37,2.86c-.14.95-.13,1.92-.17,2.87-.03.96-.05,1.92-.05,2.87.19-.94.38-1.88.54-2.81.19-.93.28-1.88.55-2.79.45-1.84.81-3.69,1.39-5.49l.4-1.36c.13-.45.24-.91.41-1.35l.94-2.66c.28-.9.68-1.75,1.03-2.62.36-.87.69-1.75,1.12-2.58.4-.85.78-1.71,1.2-2.55.44-.83.9-1.65,1.33-2.49.91-1.64,1.89-3.25,2.91-4.83c2.07-3.15,4.34-6.18,6.95-8.98Z" fill="#baba00"/><path d="M1054.27,596.66c-3.18-2.64-6.63-4.94-10.19-7.06-.88-.55-1.79-1.04-2.69-1.54l-1.36-.75-1.38-.72c-1.83-.96-3.73-1.8-5.61-2.67-1.92-.78-3.83-1.59-5.8-2.26l-1.47-.51c-.49-.17-.99-.3-1.49-.45-1-.3-1.99-.59-2.99-.85-4.03-1-8.17-1.63-12.3-1.66c4.06.77,8.02,1.77,11.91,3c1.92.7,3.88,1.28,5.76,2.07.95.38,1.92.69,2.85,1.11l2.82,1.19c1.87.83,3.74,1.65,5.57,2.55l1.39.65l1.37.68c.91.47,1.84.9,2.75,1.38c3.65,1.87,7.26,3.81,10.86,5.84Z" fill="#baba00"/><path d="M1056.06,599.35c-4-.75-8.05-1.26-12.1-1.69-4.05-.4-8.12-.7-12.2-.85-4.08-.17-8.16-.18-12.24-.08-4.08.11-8.16.38-12.23.79-4.06.45-8.12,1.04-12.13,1.87-4,.86-7.98,1.89-11.84,3.29-3.87,1.37-7.61,3.1-11.12,5.22-3.48,2.16-6.73,4.73-9.39,7.82c2.94-2.81,6.28-5.15,9.83-7.06c1.78-.95,3.6-1.81,5.46-2.58s3.75-1.47,5.67-2.08c3.84-1.22,7.76-2.2,11.72-2.96c1.98-.37,3.97-.72,5.97-1.01s4-.53,6.01-.74c4.02-.44,8.06-.71,12.1-.88c4.04-.19,8.1-.22,12.15-.22c8.11.07,16.22.43,24.33,1.15Z" fill="#baba00"/><path d="M1058.74,602.03c-3.73,1.39-7.34,3.06-10.91,4.83-3.56,1.78-7.06,3.69-10.48,5.73-6.85,4.07-13.43,8.61-19.64,13.63-6.19,5.03-12.05,10.5-17.3,16.52-5.29,5.97-9.94,12.51-13.77,19.48c4.46-6.58,9.37-12.8,14.8-18.54c1.34-1.45,2.75-2.84,4.13-4.25.7-.7,1.42-1.37,2.13-2.06l1.07-1.03l1.09-1c2.89-2.69,5.89-5.26,8.97-7.73c3.05-2.51,6.21-4.88,9.43-7.18c3.2-2.32,6.49-4.51,9.82-6.66c3.34-2.13,6.72-4.18,10.16-6.14c3.44-1.97,6.93-3.85,10.5-5.6Z" fill="#baba00"/><path d="M1060.52,604.71c-1.54,3.58-2.75,7.29-3.86,11.03-1.09,3.74-2.03,7.54-2.8,11.36-1.58,7.65-2.49,15.43-2.86,23.24-.13,3.91-.15,7.82,0,11.73.04.98.12,1.95.17,2.93l.09,1.46.13,1.46.27,2.92.38,2.91c.11.97.27,1.93.43,2.9.16.96.3,1.93.49,2.89.4,1.91.74,3.83,1.23,5.73.88,3.8,2.05,7.53,3.35,11.2-.91-3.79-1.85-7.55-2.49-11.38-.38-1.9-.63-3.82-.93-5.73-.13-.96-.24-1.92-.37-2.88-.12-.96-.25-1.92-.32-2.88-.78-7.7-.98-15.44-.65-23.17.15-3.86.46-7.72.87-11.57.39-3.85.95-7.68,1.58-11.5.65-3.82,1.39-7.62,2.28-11.4.87-3.78,1.85-7.54,3.02-11.25Z" fill="#baba00"/></g><path d="M1044.44,710.76c0,0-40.51,110.82-18.47,235.34" fill="none" stroke="#7a7c00" stroke-width="3.57" stroke-linecap="round" stroke-miterlimit="10"/><path d="M1155.25,816.21c0,0-46.47,13.11-79.24,95.92" fill="none" stroke="#baba00" stroke-width="3.57" stroke-linecap="round" stroke-miterlimit="10"/><path d="M867.49,613.64c0,0,66.73,20.85,100.09,140.01" fill="none" stroke="#baba00" stroke-width="3.57" stroke-linecap="round" stroke-miterlimit="10"/><g><polygon points="-520.96,1390.01 378.47,1390.01 366.08,-8.08 -520.96,-8.08 -520.96,1390.01" fill="#fcf3e6"/><polygon points="572.42,1110.09 490.01,1140.53 490.01,1296.28 422.03,1296.28 422.03,910.92 335.32,862.65 278.97,879.59 278.97,1078.56 237.31,1078.56 237.31,623.34 50.62,541.46 -60.07,566.21 -60.07,1003.65 -147.29,1003.65 -147.29,1264.1 -184.98,1264.1 -184.98,919.38 -288.11,878.49 -311.28,893.3 -311.28,1374.7 587.82,1374.7 587.82,1119.59 572.42,1110.09" opacity="0.26" fill="#eebfb5"/><polygon points="619.16,-6.31 619.16,1434.25 426.26,1434.25 429.79,-8.08 619.16,-6.31" fill="#919b67"/><polygon points="367.05,186.31 367.05,349.41 -99.35,663.81 -99.35,494.81 367.05,186.31" opacity="0.83" fill="#fff"/><polygon points="368.82,814.57 368.82,977.66 -99.35,1292.06 -99.35,1123.06 368.82,814.57" opacity="0.69" fill="#fff"/><polygon points="372.36,1002.16 374.13,1040.97 -97.58,1355.37 -97.58,1310.65 372.36,1002.16" opacity="0.69" fill="#fff"/><polygon points="367.05,74.98 367.05,138.81 -99.35,453.21 -99.35,383.47 367.05,74.98" opacity="0.83" fill="#fff"/><path d="M419.18,393.65v-401.73h-53.09l1.77,357.48h-483.14l3.54-357.48h-47.78v357.49h-361.43v44.24h361.43l1.77,476.06h-363.2v44.24h363.2l1.77,476.06h-364.97v44.24h940.13v-44.24l3.54-476.06v-44.24l-3.54-476.06Zm-534.46,0h483.13l3.54,476.06h-486.67v-476.06Zm3.54,996.36l-3.54-476.06h486.67l7.08,476.06h-490.21Z" fill="#aeb77b"/><path d="M382.01,-8.08l5.31,357.48h-486.67l5.31-357.48h-49.55v357.49h-377.36v44.24h377.35l1.77,476.06h-379.13v44.24h379.13l1.77,476.06h-380.9v44.24h947.22v-44.24l3.54-476.06v-922.03h-47.78ZM389.09,1390h-490.21l1.77-476.06h490.21L389.09,1390ZM-99.35,869.71v-476.06h486.67l3.54,476.06h-490.21Z" fill="#5f683c"/><polygon style="mix-blend-mode:multiply" points="362.54,-24 619.16,239.69 619.16,-6.31 362.54,-24" opacity="0.29" fill="#5582a9"/></g><g><path d="M-90.09,-4.75c-11.74,254.09-62.45,1306.11-101.68,1400.4-44.65,107.32,250.52,118.62,250.52,118.62h49.61l69.45-133.68L146.51,-4.75h-236.6Z" fill="#474c31"/><path d="M94.76,-4.75c3.33,196.83,11.15,736.69-1.29,841.21-34.73,291.83-34.73,677.8-34.73,677.8h49.61l71.39-47.64L146.51,-4.75h-51.75Z" fill="#3a3d28"/><path d="M24.03,242.58c0,0-19.85,463.96-17.37,595.45c2.16,114.42-78.32,541.73-99.25,650.76c31.61,9.41,66.7,15.44,96.47,19.25-3.99-166.42,10.3-292.27,25.3-375.71C48,1027.6,54.73,921.82,49.95,816.19L24.03,242.58Z" fill="#3a3d28"/></g><path d="M459.71,1044.99l226.81-32.61c26.17-12.2,28.22-79.84,28.22-79.84L731,727.08c5.65-79.44-65.49-88.7-65.49-88.7s-39.14-.34-125.26-10.46-80.09,62.21-80.09,62.21L435.83,900.46c0,0-9.82,68.75-3.85,111.92c3.24,23.41,11.12,39.3,27.73,32.61" fill="#e1912b"/><path d="M454.04,747.15l-4.09-8.91c-11.28-24.56-39.66-35.1-61.97-23.02l-76.33,41.34c-20.44,11.07-28.32,37.23-17.98,59.73v0c4.33,9.43,11.23,16.83,19.37,21.66-3.48,5.31-3.98,10.82,2.73,15.33c0,0,53.08,3.83,108.93-41.24l.12-.35l7.02-2.83c23.24-9.37,33.35-37.46,22.2-61.72Z" fill="#fcccb1"/><rect width="100.85" height="137.44" rx="24.79" ry="24.79" transform="matrix(.994933 0.100535-.100535 0.994933 560.633538 542.294236)" fill="#fcccb1"/><path d="M401.77,828.11l70.57-38.07l48.69-156.1c.88-2.57-1.53-5.05-4.12-4.25-15.36,4.76-58.01,11.34-92.64,49.01-24.56,26.72-38.59,34.47-38.59,34.47s24.11,80.02,16.08,114.93Z" fill="#e1912b"/><path d="M354.72,734.85c0,0,12.54,22.47,12.29,33.85s-3.16,19.56-3.16,19.56" fill="none" stroke="#231f20" stroke-width="2" stroke-linecap="round" stroke-linejoin="round"/><path d="M425.48,1124.52c0-.99.02-1.97.02-2.96.13-36.43.45-73.18.94-106.95c0-1.01.03-2.03.04-3.04.21-14.55.46-28.52.75-41.65.02-.99.75-1.71,1.64-1.5c35.3,8.32,70.64,16.66,106.38,22.2c36,5.59,72.26,7.87,108.53,5.78c20.96-1.21,41.85-3.81,62.53-7.72c1.67-.31,2.5,2.54.81,2.86-.62.12-1.25.22-1.87.34c1.31,11.71,2.63,24.61,3.94,38.3.1.99.19,1.98.28,2.97.44,4.64.89,9.37,1.33,14.16c1.73,4.43,3.44,8.88,4.74,13.44c1.21,4.28,2.13,8.63,2.78,13.02c1.12,5.04,2.06,10.13,2.81,15.25c2.14,14.61.9,30.26,6.97,43.98c2.54,5.75,5.73,11.18,7.86,17.1c2.23,6.19,3.45,12.68,4.26,19.2c1.74,14.08,1.41,28.47,4.87,42.31c3.67,14.69,1.17,37.92,2.91,53.16.08.72,21.22,200.78,20.57,200.77-12.92-.09-107.78-3.53-124.6-2.97-11.76.39-23.52.65-35.28.81-7.39-13.94-26.97-236.76-35.82-249.75-.36-.52-1.13-.32-1.17.32-.89,13.45,11.22,236.6,14.13,249.64-24.82.12-49.65-.05-74.47-.19-24.71-.14-64.29-14.5-82.14,2.59-10.71,10.25-8.46-209.9-8.46-210.73-.39-37.54,4.58-85.7,4.73-130.78" fill="#3d3d3d"/><path d="M430.05,796.44c0,0,13.92,54.83,5.77,104.02-8.14,49.19,5.96,38.8,5.96,38.8l34.67-66.8-.78-93.11-45.62,17.08Z" fill="#e1912b"/><g><path d="M425.48,1124.52c14.47-6.4,21.56-24.51,27.02-38.22c6.76-16.98,10.74-34.93,12.04-53.15c1.81.77,3.62,1.56,5.45,2.31c19.91,8.22,40.5,15.17,61.48,20.14c12.42,2.94,24.77,4.24,37.23,4.47-9.13,39.25,9.3,87.01-17.8,121.32-1.05,1.34.83,3.24,1.9,1.89c27.75-35.14,9.12-82.63,18.52-122.68.04-.18.04-.34.03-.5c8.11.05,16.26-.34,24.51-1.02c21-1.74,41.88-4.91,62.45-9.45.02.1.04.2.07.3c11.32,31.61,31.25,59.62,57.49,80.57.89.7,2.03.11,2.29-.69.09-.27.08-.55-.07-.82-.07-.13-.18-.27-.33-.38-25.88-20.67-45.63-48.2-56.79-79.39-.03-.06-.05-.11-.08-.16.33-.07.65-.14.98-.21c10.66-2.44,21.38-5.08,31.78-8.52c5.55-1.84,10.95-4.08,15.85-7.16-.1-1-.19-1.99-.28-2.97-7.48,4.98-16.26,7.71-24.94,10.17-11.47,3.25-23.08,6.05-34.79,8.42-12.27,2.47-24.64,4.45-37.08,5.94.93-1.5,1.17-3.36,1.34-5.31.45-4.85.68-9.77,0-14.6-1.14-7.98-5.23-15.6-12.87-18.92-1.56-.69-2.92,1.62-1.34,2.31c5.96,2.6,9.59,8.01,11.06,14.22.89,3.75,1,7.61.86,11.44-.1,2.72.35,8.86-2.38,10.51-.35.21-.53.51-.61.82-7.88.87-15.78,1.54-23.71,1.99-10.82.62-21.72.75-32.51-.51-10.62-1.25-21.04-3.73-31.33-6.57-32.88-9.08-64.58-22.07-94.42-38.53-.02,1.01-.04,2.02-.04,3.04c11.58,6.34,23.44,12.16,35.54,17.44-.03.11-.05.22-.06.34-1.17,17.18-4.77,34.09-10.85,50.21-2.99,7.95-6.54,15.76-10.76,23.14-3.69,6.44-8.16,12.4-14.81,15.82c0,.99,0,1.97-.02,2.96" fill="#282828"/><path d="M541.38,1092.9c.06-1.71,2.74-1.72,2.67,0-.96,25.52-1.53,51.04-1.69,76.58-.01,1.72-2.68,1.72-2.67,0c.17-25.53.73-51.06,1.69-76.58" fill="#282828"/><path d="M504.82,1164.16c20.61,16.46,35.52,38.39,50.08,60.08.96,1.43-1.35,2.77-2.31,1.35-14.45-21.51-29.22-43.21-49.67-59.53-1.34-1.07.56-2.95,1.89-1.89" fill="#282828"/><path d="M533.35,1218.12c6.18,8.7,11.3,17.98,15.43,27.83.66,1.58-1.92,2.27-2.58.71-4.03-9.62-9.12-18.69-15.16-27.19-1-1.4,1.32-2.74,2.31-1.35" fill="#282828"/><path d="M567.77,1035.16c.4.07.8.21,1.19.38.64-.07,1.24-.1,1.92.26c1.05.55,1.62,1.65,2.08,2.69c1.12,2.54,1.96,5.67.28,8.18-2.86,4.3-10.72,3.86-12.55-1.05-1.86-4.97,1.05-11.52,7.08-10.46" fill="#282828"/><path d="M647.45,1023.26c.11,1.55,1.35,3.51,1.86,4.99.69,1.99,1.31,4.01,1.85,6.05c1.05,3.97,1.77,7.99,2.25,12.06-.18.21-.28.49-.26.86.06.99.25,1.39,1.12,1.89.81.47,2.12-.11,2.01-1.15-.01-.1-.02-.2-.03-.31c2.48-.53,4.96-1.06,7.44-1.58v0c.71.71,2.3.41,2.33-.91.27-9.77-.86-19.38-3.39-28.82-.19-.7-.95-1.13-1.64-.93-3.31.93-13.87,3.26-13.54,7.85" fill="#282828"/><path d="M475.25,1035.81c2.21,2.21,6.81,3.07,9.7,3.52.63.1,1.53-.16,1.64-.93c1.49-10.51,2.99-21.03,4.48-31.54.63-.42.93-1.26.27-1.9.12-.84.24-1.68.36-2.52.24-1.68-2.33-2.41-2.58-.71-.06.4-.11.81-.17,1.22l-9.06-7.59c-.68-.57-2.06-.5-2.23.59-1.55,9.92-2.66,19.9-3.2,29.93-.15,2.7-1.38,7.74.8,9.92" fill="#282828"/></g><line x1="453.45" y1="731.71" x2="445.55" y2="803.99" fill="none" stroke="#231f20" stroke-width="2" stroke-linecap="round" stroke-linejoin="round"/><path d="M427.23,969.93c0,0-6,60.45-6.5,72.41-.51,11.96,1.03,19.37,0,39.98-1.03,20.62-.23,33.76-.1,48.86s-.06,81.7.1,105.5s32.52-19.16,32.52-19.16L430.8,976.59l-3.56-6.67Z" fill="#3d3d3d"/><g opacity="0.8"><polygon points="1031.25,292.19 875.25,292.19 883.76,462.19 1017.43,462.19 1031.25,292.19" fill="#fff6db"/><polygon points="907.25,329.19 997.25,329.19 992.81,425.19 913.25,425.19 907.25,329.19" fill="#eac18d"/><path d="M1022.58,300.19l-12.53,154h-118.68l-7.71-154h138.91m8.68-8h-156l8.51,170h133.67l13.83-170v0Z"/><path d="M910.34,378.54l15.92,1.65v21h17v-12l9-14l7,14v13l4,10l9-1-3-14l3,3l4-9c0,0-4-33-4-36s6-2,6-2l2,25l6-2v-47h11l-4,96h-80l-2.92-46.65Z" opacity="0.21" fill="#da7973"/></g><g opacity="0.8"><polygon points="690.71,176.19 852.71,176.19 844.71,346.19 709.71,346.19 690.71,176.19" fill="#fff6db"/><polygon points="724.71,200.19 818.71,200.19 814.07,322.19 735.74,322.19 724.71,200.19" fill="#eac18d"/><path d="M841.18,187.19l-6.96,148h-114.67l-16.54-148h138.17m11.53-11h-162l19,170h135l8-170v0Z"/><polygon points="807.5,200.19 797.71,244.19 774.71,238.19 774.71,267.19 774.71,282.19 764.71,295.19 762.71,261.19 750.71,244.19 738.71,240.19 727.71,233.39 735.71,322.19 813.71,322.19 818.71,200.19 807.5,200.19" opacity="0.21" fill="#da7973"/></g><rect width="1080" height="1434.99" rx="0" ry="0" fill="none"/></g></g><clipPath id="eSLngTKEo9r76"><rect width="1080" height="1434.99" rx="0" ry="0" fill="none"/></clipPath></g><path d="M936.3,964.86c0,0,40.51-5.66,57.49,20.85-7.45,5.96-20.85,6.55-20.85,6.55s8.04,11.02,3.28,28.6c-8.64-2.09-21.15-8.34-30.39-18.47.3,8.64-12.51,33.07-24.43,34.85-6.26-11.32-5.36-22.04-5.66-33.96-7.45,11.02-25.62,21.75-55.41,18.17-.3-9.53,11.32-29.19,28-41.11-14,.3-32.47.6-38.43-12.81c8.94-2.09,30.68-7.75,39.92-3.87-12.81-6.85-14.6-13.41-14.6-13.41s25.32.89,35.15,4.17c-14-8.64-14-16.38-14-16.38s32.17,2.68,39.92,26.81Z" fill="#baba00"/></g><g transform="matrix(.999606-.028056 0.028056 0.999606-16.945642 18.219157)"><g><path d="M516.88,422.86c0,0-12.56,57.27-11.41,78.18c1.15,20.92-2.57,26.69-2.57,26.69l32.94-81.91c0,0-5.41-30.43-18.95-22.97Z" fill="#3b2a2d"/><path d="M523.72,440.85c0,0-11.91,38.45-21.23,87.49-9.32,49.03,31.04,83.24,51.8,92.13s57.01,7.66,101.87-22.32l10.63-143.53-143.06-13.77Z" fill="#fcccb1"/><path d="M553.28,620.2c0,0,22.75,9.28,48.84,1.45" fill="none" stroke="#000" stroke-width="2.03" stroke-linecap="round" stroke-linejoin="round"/><path d="M512.97,450.28c0,0,42.04-11.23,72,0s65.07,2,65.07,2v111.59c0,0,4.83-47.12,24.8-31.05s17.46,11.68,17.46,11.68s41.2-136.65-28.07-149.13-117.16-34.95-151.26,54.92Z" fill="#3b2a2d"/><ellipse rx="36.2" ry="30.75" transform="translate(541.67 414.15)" fill="#3b2a2d"/><ellipse rx="36.2" ry="30.75" transform="translate(577.87 399.23)" fill="#3b2a2d"/><ellipse rx="26.63" ry="26.09" transform="translate(665.68 545.15)" fill="#fcccb1"/><circle id="eSLngTKEo9r89" r="5.17" transform="translate(538.49 506.21)" fill="#231f20"/><circle id="eSLngTKEo9r90" r="5.17" transform="translate(593.41 508.24)" fill="#231f20"/><polyline points="566.48,516.51 549.58,545.32 566.48,553.03" fill="none" stroke="#231f20" stroke-width="3.05" stroke-linecap="round" stroke-linejoin="round"/><path d="M640.78,554.42c0,0,4.23,13.32,17.42,16.12" fill="none" stroke="#000" stroke-width="2.03" stroke-linecap="round" stroke-linejoin="round"/><ellipse rx="36.2" ry="30.75" transform="translate(621.74 405.84)" fill="#3b2a2d"/><polyline points="667.71,533.07 656.8,549.74 675.43,552.67" fill="none" stroke="#000" stroke-width="2.03" stroke-linecap="round" stroke-linejoin="round"/><path id="eSLngTKEo9r95" d="M553.25,574.48c0,0,13.161923.955489,27.15-4.43" fill="none" stroke="#231f20" stroke-width="3.05" stroke-linecap="round" stroke-linejoin="round"/><g id="eSLngTKEo9r96_to" transform="translate(540.054962,483.776123)"><path d="M528.47,486.9c0,0,8.62-10.37,23.17-4.39" transform="translate(-540.054962,-483.776123)" fill="none" stroke="#231f20" stroke-width="4.07" stroke-linecap="round" stroke-linejoin="round"/></g><g id="eSLngTKEo9r97_to" transform="translate(599.425018,485.849365)"><path d="M587.88,484.33c0,0,11.93-6.28,23.09,4.81" transform="rotate(7.210589) translate(-599.425018,-485.849365)" fill="none" stroke="#231f20" stroke-width="4.07" stroke-linecap="round" stroke-linejoin="round"/></g></g></g><g id="eSLngTKEo9r98_tr" transform="translate(871.365,620.2) rotate(0)"><g transform="translate(-871.365,-620.199983)"><path d="M867.49,613.64c0,0,39.32,1.19,48.26-20.55-11.32-1.19-48.56-6.85-67.32,16.68-22.64-9.23-79.24-12.51-105.45,42.9c11.32-2.68,35.75-12.81,48.56-21.45-18.17,16.09-19.36,25.02-19.36,25.02s34.85-.3,53.03-18.17c-4.17,14-.6,34.56-.6,34.56s43.19-2.68,42.9-58.98Z" fill="#baba00"/></g></g><g id="eSLngTKEo9r100_tr" transform="translate(300.875461,859.305) rotate(0)"><g transform="translate(-300.875461,-859.304991)"><g><path d="M336.3,462.47c-.08-5.17-5.05-9.33-11.08-9.28l-34.66.25c-1.3,0-2.53.24-3.68.61v-.03l-7.81,1.93l3.16.97c-1.51,1.61-2.45,3.63-2.44,5.86l.69,121.33c.03,5.09,4.8,9.24,10.74,9.36l35.93.72c6.17.12,11.2-4.14,11.11-9.42l-1.95-122.3Z" fill="#191919"/><path d="M319.01,596.23l-35.93-.72c-5.94-.12-10.71-4.28-10.74-9.36l-.69-121.33c-.03-5.13,4.77-9.3,10.76-9.34l34.66-.25c6.04-.04,11,4.11,11.08,9.28l1.95,122.3c.08,5.28-4.95,9.54-11.11,9.42Z"/><path d="M290.26,612.98l41.02,64.34c64.39,132.27,17.2,163.08,17.2,163.08-43.95,31.26-58.52-4.14-58.52-4.14L251.42,651.05l-2.14-26.53l40.97-11.54Z" fill="#fcccb1"/><path d="M249.41,624.28c0,0-.84-17.67-1.38-20.67s-2.76-11.72-4.15-16.54c-1.4-4.81-6.01-13.28-4.7-18.94s2.84-7.42,2.94-12.21c.1-4.78-2.21-9.32-1.25-11.99.95-2.67,22.03-24.39,22.03-24.39s-2.17-26.07.57-28.11c2.73-2.04,7.58-4.93,8.04,1.66s-.42,20.63-.42,20.63s32.89-14,35.29-14.25s7.21-1.35,8.3,3.76s5.2,9.38-13.24,18.88l-23.9,10.59-15.76,13.14c0,0,11.83-8.14,20.23-9.46c8.4-1.33,53.31-2.82,54.37,3.79c1.06,6.6,4.19,14.74-22.16,16.01-26.35,1.26-34.78,4.09-34.78,4.09s-5.43,2.28-12.74,8.72c-7.31,6.43-5.21,6.18-5.21,6.18s7.13-12.42,24.8-13.56s47.28-.54,47.28-.54s5.05-1.39,5.87,5.8c.67,5.89.84,10.41-12.93,10.73c0,0-15.3.21-18.3,1.05-3.01.84-16.03,2.83-16.03,2.83s-.89-.32-4.49.21-5.85,2.85-2.58,4.12c3.27,1.26,25.12.51,25.12.51s15.27-.89,19.17-1.11c3.89-.22,10.08-1.07,11.54.75s2.76,11.71-10.03,13.71c-19.3,3.02-32.09,4.14-32.09,4.14l-5.09.2-4.82,1.33.8,10.21l6.26,15.98c0,0,3.77,6.06-7.09,10.33s-33.31,5.31-34.79,4.39c-1.48-.93-1.55,6.18-4.64-21.93Z" fill="#fcccb1"/></g></g></g><g id="eSLngTKEo9r106_tr" transform="translate(779.350152,620.804949) rotate(-6.902815)"><g transform="translate(-801.434416,-638.714176)"><g><path d="M798.14,876.14c0,0,7.85,47.75,4.73,77.7s-45.2,42.09-62.2,25.09-30.44-53.95-30.44-53.95v-48.83l7.97-32.37l79.94,32.37Z" fill="#fcccb1"/><path id="eSLngTKEo9r109" d="M691.156517,643.550467c0,0,69.347208,14.041316,93.962939,82.938668C804.589456,784.349135,802.88,894.29,802.88,894.29s-26.46-34.24-78.73-40.91l-10.67,6.39-22.323483-216.219533Z" fill="#e1912b"/><g><path d="M491.01,658.25l19.01,98.3c.61,3.17,4.08,5.19,7.75,4.51l52.4-10.03c3.67-.68,6.14-3.81,5.53-6.99l-18.97-98.09-.04-.2c-.13-.66-.38-1.27-.74-1.82-1.33-2.09-4.11-3.24-7.01-2.69l-52.4,10.02c-3.67.69-6.14,3.81-5.53,7" fill="#bf7525"/><path d="M486.69,656.16l19.01,98.3c.61,3.17,4.08,5.19,7.75,4.51l52.4-10.03c3.67-.68,6.14-3.81,5.53-6.99l-18.97-98.09-.04-.2c-.13-.66-.38-1.27-.74-1.82-1.33-2.09-4.11-3.24-7.01-2.69l-52.4,10.02c-3.67.69-6.14,3.81-5.53,7" fill="#c6c3b0"/><rect width="3.07" height="74.22" rx="0.65" ry="0.65" transform="matrix(.981926-.189267 0.189267 0.981926 519.798894 657.946277)" fill="#b2ae9a"/><g><g><g><path d="M546.43,659.27l-7.52,1.46l1.44,7.41l7.52-1.46c2.05-.4,3.38-2.38,2.99-4.42-.4-2.05-2.38-3.38-4.42-2.99Z" fill="#b2ae9a"/><path d="M538.91,660.73l-7.52,1.46c-2.05.4-3.38,2.38-2.99,4.42.4,2.05,2.38,3.38,4.42,2.99l7.52-1.46-1.44-7.41Z" fill="#b2ae9a"/></g><g><path d="M546.66,657.05l-7.52,1.46l1.44,7.41l7.52-1.46c2.05-.4,3.38-2.38,2.99-4.42-.4-2.05-2.38-3.38-4.42-2.99Z" fill="#969387"/><path d="M539.14,658.51l-7.52,1.46c-2.05.4-3.38,2.38-2.99,4.42.4,2.05,2.38,3.38,4.42,2.99l7.52-1.46-1.44-7.41Z" fill="#969387"/></g></g><g><g><path d="M549.46,674.91l-7.52,1.46l1.44,7.41l7.52-1.46c2.05-.4,3.38-2.38,2.99-4.42s-2.38-3.38-4.42-2.99Z" fill="#b2ae9a"/><path d="M541.94,676.36l-7.52,1.46c-2.05.4-3.38,2.38-2.99,4.42s2.38,3.38,4.42,2.99l7.52-1.46-1.44-7.41Z" fill="#b2ae9a"/></g><g><path d="M549.69,672.68l-7.52,1.46l1.44,7.41l7.52-1.46c2.05-.4,3.38-2.38,2.99-4.42-.4-2.05-2.38-3.38-4.42-2.99Z" fill="#fff"/><path d="M542.17,674.14l-7.52,1.46c-2.05.4-3.38,2.38-2.99,4.42.4,2.05,2.38,3.38,4.42,2.99l7.52-1.46-1.44-7.41Z" fill="#c55a24"/></g></g><g><g><path d="M552.49,690.54L544.97,692l1.44,7.41l7.52-1.46c2.05-.4,3.38-2.38,2.99-4.42s-2.38-3.38-4.42-2.99Z" fill="#b2ae9a"/><path d="M544.97,692l-7.52,1.46c-2.05.4-3.38,2.38-2.99,4.42.4,2.05,2.38,3.38,4.42,2.99l7.52-1.46-1.44-7.41Z" fill="#b2ae9a"/></g><g><path d="M552.72,688.32l-7.52,1.46l1.44,7.41l7.52-1.46c2.05-.4,3.38-2.38,2.99-4.42-.4-2.05-2.38-3.38-4.42-2.99Z" fill="#fff"/><path d="M545.2,689.78l-7.52,1.46c-2.05.4-3.38,2.38-2.99,4.42s2.38,3.38,4.42,2.99l7.52-1.46-1.44-7.41Z" fill="#c55a24"/></g></g><g><g><path d="M555.52,706.17L548,707.63l1.44,7.41l7.52-1.46c2.05-.4,3.38-2.38,2.99-4.42-.4-2.05-2.38-3.38-4.42-2.99Z" fill="#b2ae9a"/><path d="M548,707.63l-7.52,1.46c-2.05.4-3.38,2.38-2.99,4.42.4,2.05,2.38,3.38,4.42,2.99l7.52-1.46-1.44-7.41Z" fill="#b2ae9a"/></g><g><path d="M555.76,703.95l-7.52,1.46l1.44,7.41l7.52-1.46c2.05-.4,3.38-2.38,2.99-4.42-.4-2.05-2.38-3.38-4.42-2.99Z" fill="#fff"/><path d="M548.23,705.41l-7.52,1.46c-2.05.4-3.38,2.38-2.99,4.42.4,2.05,2.38,3.38,4.42,2.99l7.52-1.46-1.44-7.41Z" fill="#c55a24"/></g></g><g><g><path d="M558.55,721.8l-7.52,1.46l1.44,7.41l7.52-1.46c2.05-.4,3.38-2.38,2.99-4.42-.4-2.05-2.38-3.38-4.42-2.99Z" fill="#b2ae9a"/><path d="M551.03,723.26l-7.52,1.46c-2.05.4-3.38,2.38-2.99,4.42s2.38,3.38,4.42,2.99l7.52-1.46-1.44-7.41Z" fill="#b2ae9a"/></g><g><path d="M558.79,719.58l-7.52,1.46l1.44,7.41l7.52-1.46c2.05-.4,3.38-2.38,2.99-4.42-.4-2.05-2.38-3.38-4.42-2.99Z" fill="#fff"/><path d="M551.26,721.04l-7.52,1.46c-2.05.4-3.38,2.38-2.99,4.42s2.38,3.38,4.42,2.99l7.52-1.46-1.44-7.41Z" fill="#c55a24"/></g></g></g><g><g><g><path d="M513.19,666l-7.52,1.46l1.44,7.41l7.52-1.46c2.05-.4,3.38-2.38,2.99-4.42-.4-2.05-2.38-3.38-4.42-2.99Z" fill="#b2ae9a"/><path d="M505.67,667.46l-7.52,1.46c-2.05.4-3.38,2.38-2.99,4.42.4,2.05,2.38,3.38,4.42,2.99l7.52-1.46-1.44-7.41Z" fill="#b2ae9a"/></g><g><path d="M513.43,663.78l-7.52,1.46l1.44,7.41l7.52-1.46c2.05-.4,3.38-2.38,2.99-4.42-.4-2.05-2.38-3.38-4.42-2.99Z" fill="#fff"/><path d="M505.9,665.23l-7.52,1.46c-2.05.4-3.38,2.38-2.99,4.42s2.38,3.38,4.42,2.99l7.52-1.46-1.44-7.41Z" fill="#c55a24"/></g></g><g><g><path d="M516.22,681.63l-7.52,1.46l1.44,7.41l7.52-1.46c2.05-.4,3.38-2.38,2.99-4.42s-2.38-3.38-4.42-2.99Z" fill="#b2ae9a"/><path d="M508.7,683.09l-7.52,1.46c-2.05.4-3.38,2.38-2.99,4.42.4,2.05,2.38,3.38,4.42,2.99l7.52-1.46-1.44-7.41Z" fill="#b2ae9a"/></g><g><path d="M516.46,679.41l-7.52,1.46l1.44,7.41l7.52-1.46c2.05-.4,3.38-2.38,2.99-4.42-.4-2.05-2.38-3.38-4.42-2.99Z" fill="#fff"/><path d="M508.93,680.87l-7.52,1.46c-2.05.4-3.38,2.38-2.99,4.42s2.38,3.38,4.42,2.99l7.52-1.46-1.44-7.41Z" fill="#c55a24"/></g></g><g><g><path d="M519.26,697.26l-7.52,1.46l1.44,7.41l7.52-1.46c2.05-.4,3.38-2.38,2.99-4.42-.4-2.05-2.38-3.38-4.42-2.99Z" fill="#b2ae9a"/><path d="M511.73,698.72l-7.52,1.46c-2.05.4-3.38,2.38-2.99,4.42.4,2.05,2.38,3.38,4.42,2.99l7.52-1.46-1.44-7.41Z" fill="#b2ae9a"/></g><g><path d="M519.49,695.04l-7.52,1.46l1.44,7.41l7.52-1.46c2.05-.4,3.38-2.38,2.99-4.42s-2.38-3.38-4.42-2.99Z" fill="#fff"/><path d="M511.96,696.5l-7.52,1.46c-2.05.4-3.38,2.38-2.99,4.42s2.38,3.38,4.42,2.99l7.52-1.46-1.44-7.41Z" fill="#c55a24"/></g></g><g><g><path d="M522.29,712.9l-7.52,1.46l1.44,7.41l7.52-1.46c2.05-.4,3.38-2.38,2.99-4.42-.4-2.05-2.38-3.38-4.42-2.99Z" fill="#b2ae9a"/><path d="M514.76,714.35l-7.52,1.46c-2.05.4-3.38,2.38-2.99,4.42.4,2.05,2.38,3.38,4.42,2.99l7.52-1.46-1.44-7.41Z" fill="#b2ae9a"/></g><g><path d="M522.52,710.67L515,712.13l1.44,7.41l7.52-1.46c2.05-.4,3.38-2.38,2.99-4.42s-2.38-3.38-4.42-2.99Z" fill="#fff"/><path d="M514.99,712.13l-7.52,1.46c-2.05.4-3.38,2.38-2.99,4.42.4,2.05,2.38,3.38,4.42,2.99l7.52-1.46-1.44-7.41Z" fill="#c55a24"/></g></g><g><g><path d="M525.32,728.53l-7.52,1.46l1.44,7.41l7.52-1.46c2.05-.4,3.38-2.38,2.99-4.42s-2.38-3.38-4.42-2.99Z" fill="#b2ae9a"/><path d="M517.79,729.99l-7.52,1.46c-2.05.4-3.38,2.38-2.99,4.42.4,2.05,2.38,3.38,4.42,2.99l7.52-1.46-1.44-7.41Z" fill="#b2ae9a"/></g><g><path d="M525.55,726.31l-7.52,1.46l1.44,7.41l7.52-1.46c2.05-.4,3.38-2.38,2.99-4.42-.4-2.05-2.38-3.38-4.42-2.99Z" fill="#fff"/><path d="M518.02,727.77l-7.52,1.46c-2.05.4-3.38,2.38-2.99,4.42.4,2.05,2.38,3.38,4.42,2.99l7.52-1.46-1.44-7.41Z" fill="#c55a24"/></g></g></g><path d="M492.96,688.57c0,0,14.94,18.91,18.94,22.18c3.99,3.27,27.88,13.88,27.88,13.88l27.11,15.53.62,4.55c0,0-56.64-23.56-64.06-32.62s-9.77-16.64-9.77-16.64l-.46-3.36-.26-3.51Z" fill="#b2ae9a"/><path d="M491.91,775.11c.63,1.05,1.5,2.17,2.56,3.35c7.4,8.19,23.76,18.56,26.43,20.09c8.61,4.9,34.16,19.74,42.65,24.86c7.17,4.34,18.1,15.03,29.02,26.61c7.29,7.74,14.57,15.89,20.73,22.82c3.79-6.26,6.9-12.81,10.57-19.12c3.33-5.73,7.28-11.04,11.18-16.42-6.03-6.57-13.01-14.19-19.46-21.58-10.63-12.16-19.85-23.67-21.16-28.81-.03-.4-1.45-13.07-1.47-13.48-.4-8.41.14-16.34-2.37-24.51-2.44-7.96-6.59-15.28-11.18-22.17-2.52-3.78-5.18-7.47-7.92-11.1-1.62-2.14-3.03-4.17-5.88-4.25-.89-.03-1.62.58-1.52,1.52c1.03,10.02,2.06,20.03,3.09,30.05-13.13-7.48-26.34-14.91-40.07-21.18-7.3-3.34-13.92-6.11-19.65-11.95-5.17-5.26-9.67-11.27-13.88-17.29-2.27-3.24-6.17-8.27-10.77-5.51-3.53,2.13-2.7,6.9-1.76,10.19c1.37,4.79,3.35,9.4,5.83,13.73-7.17,6.52-3.37,16.36,2.29,23.9-.34,1.48-.46,3.03-.51,4.36-.1,3.5.51,6.96,1.63,10.24-9.04.96-.7,21.74,1.62,25.64" fill="#fcccb1"/><path d="M489.89,713.93c5.22,10.26,13.62,18.25,24.11,22.99c1.59.72.56,3.23-1.04,2.51-11.16-5.04-20.02-13.52-25.57-24.43-.79-1.56,1.71-2.62,2.49-1.07" fill="#d37a62"/><path d="M493.72,738.98c4.77,6.12,10.73,10.95,17.72,14.31c1.57.75.54,3.26-1.04,2.51-7.41-3.56-13.77-8.66-18.82-15.14-1.08-1.38,1.06-3.05,2.13-1.68" fill="#d37a62"/><path d="M494.94,755.77c4.44,6.22,10.49,10.74,17.7,13.26c1.65.58.61,3.08-1.04,2.51-7.61-2.66-14.11-7.53-18.8-14.09-1.01-1.42,1.12-3.1,2.13-1.67" fill="#d37a62"/></g><path d="M666.99,921.9c0,0,41.3,65.2,85.16,64.76s41.42-52.83,41.42-52.83-27.64-35.37-104.83-47.47h-19.21c0,0-17.19,9.9-2.54,35.54Z" fill="#fcccb1"/><path d="M592.67,763.43c0,0,2.92,17.95,6.33,24.25s68.52,59.49,68.52,59.49-15.91,18.09-17.9,18.99-34.6-11.03-34.6-11.03-32.22-32.22-32.22-35.8s2.78-30.23,3.58-33.81s6.29-22.1,6.29-22.1Z" fill="#fcccb1"/><path d="M501.02,781.06c0,0,27.22,27.68,50.24,39.22s49.38,60.22,72.54,80.3c23.16,20.07,38.51,25.3,46.06,28.95c7.56,3.65,22.19-29.57,20.34-35.74-1.85-6.18-8.96-28.1-27.18-35.21-18.22-7.1-87.4-43.76-87.4-43.76s-21.62-9.98-27.49-11.83-47.12-21.93-47.12-21.93Z" fill="#fcccb1"/><path d="M667.51,847.17c0,0,53.23,21.57,72.57,56.88s13.87,32.47,13.87,32.47l-29.18,42.71c0,0-76.38-34.71-116.09-94.67s-37.6-66.69-34.66-66.27s93.49,28.88,93.49,28.88Z" fill="#fcccb1"/><path d="M718.99,878.85c0,0,35.93,20.45,35.68,42.14v4.2" fill="none" stroke="#231f20" stroke-width="2" stroke-linecap="round" stroke-linejoin="round"/></g></g></g><g id="eSLngTKEo9r196_tr" transform="translate(921.845,761.190552) rotate(0)"><g transform="translate(-921.845,-761.190551)"><g><path d="M928.26,745.61c0,0,72.98-6.55,83.41,78.05-5.06,2.68-42.3.3-49.45-10.43c4.17,17.87-4.17,63.15-20.55,77.45-7.45-2.68-23.24-22.34-25.02-54.81-3.57,26.51-22.04,83.11-71.2,86.09-3.28-6.85-3.28-53.32,26.21-100.09-15.79,16.09-37.83,32.17-86.09,24.73.6-5.96,12.21-29.49,42.6-48.26-15.49,0-38.73-2.38-41.11-17.28c6.85-5.96,22.94-16.68,51.83-16.98-22.04-3.57-34.56-4.47-42.3-14.89c9.23-6.55,22.94-20.26,66.13-18.17-16.09-8.64-23.53-26.21-23.53-26.21s71.79-11.02,89.07,40.81Z" fill="#7a7c00"/><g><path d="M923.79,768.85c.98-.02,1.95,0,2.93.05.98.03,1.95.08,2.92.16.97.06,1.94.16,2.91.24.97.11,1.94.2,2.9.34c3.86.49,7.69,1.19,11.46,2.1c3.77.93,7.49,2.03,11.1,3.41c3.62,1.37,7.17,2.91,10.55,4.78c3.4,1.84,6.66,3.92,9.76,6.23c3.07,2.34,5.98,4.89,8.69,7.66c5.39,5.56,9.89,11.97,13.63,18.84l-1.22-2.67c-.42-.88-.81-1.79-1.3-2.64-.94-1.72-1.86-3.46-2.95-5.09-2.07-3.35-4.53-6.45-7.14-9.39L986,790.72c-.33-.37-.69-.7-1.06-1.03l-1.09-1.01-1.09-1.01c-.36-.34-.75-.64-1.13-.96-.76-.63-1.52-1.27-2.29-1.89-3.14-2.4-6.47-4.55-9.93-6.46-6.97-3.74-14.49-6.39-22.2-7.98-3.85-.8-7.76-1.32-11.68-1.61-1.96-.13-3.92-.21-5.88-.2-1.96,0-3.92.08-5.87.29Z" fill="#baba00"/><path d="M915.45,770.04c2.62,3.39,4.92,7,7.1,10.67c2.16,3.68,4.15,7.46,5.98,11.3c1.81,3.86,3.49,7.77,4.97,11.76c1.5,3.98,2.82,8.03,3.94,12.13.6,2.04,1.09,4.11,1.61,6.18.44,2.08.93,4.15,1.3,6.25.84,4.17,1.37,8.4,1.86,12.63.85,8.48,1.04,17.03.66,25.59c1.12-8.5,1.33-17.13.73-25.72-.33-4.29-.83-8.57-1.59-12.81-.17-1.06-.36-2.12-.6-3.17l-.66-3.16c-.51-2.09-.99-4.19-1.59-6.26-2.31-8.3-5.46-16.37-9.38-24.03-1.96-3.83-4.13-7.55-6.48-11.15-2.39-3.57-4.92-7.06-7.84-10.21Z" fill="#baba00"/><path d="M908.9,771.83c-.05,4.82-.39,9.62-.84,14.41-.46,4.79-1.09,9.55-1.83,14.29-1.51,9.48-3.57,18.88-6.22,28.1-2.61,9.23-5.86,18.28-9.62,27.11-3.8,8.82-8.19,17.39-13.06,25.71c5.49-7.92,10.27-16.37,14.33-25.14.99-2.21,2.01-4.4,2.9-6.65.45-1.12.94-2.23,1.36-3.36l1.29-3.39c.45-1.12.81-2.28,1.21-3.42s.8-2.28,1.16-3.44l1.11-3.46l1.03-3.48c1.3-4.66,2.48-9.35,3.47-14.09.96-4.74,1.8-9.51,2.41-14.3.63-4.79,1.08-9.61,1.33-14.43.22-4.82.32-9.66-.03-14.47Z" fill="#baba00"/><path d="M912.77,765.57c-.74-3.07-1.77-6.06-2.9-9.02-1.15-2.95-2.45-5.84-3.9-8.66-2.9-5.64-6.42-10.98-10.59-15.81-2.12-2.38-4.39-4.64-6.83-6.7-2.48-2.02-5.11-3.85-7.91-5.39-2.79-1.55-5.79-2.71-8.84-3.62l-2.31-.57c-.38-.11-.78-.16-1.17-.23l-1.17-.19-1.17-.19c-.39-.05-.79-.07-1.18-.11l-2.36-.17l2.32.44c.39.08.77.13,1.16.22l1.14.3c.75.21,1.52.36,2.27.6l2.22.74c.37.11.73.26,1.09.41l1.08.44l1.08.44c.36.16.7.34,1.05.51.69.36,1.4.66,2.08,1.04l2.02,1.15c2.64,1.63,5.17,3.43,7.51,5.47s4.53,4.24,6.58,6.58c2.07,2.32,3.94,4.82,5.72,7.37c1.79,2.55,3.43,5.21,4.99,7.92c1.54,2.72,2.99,5.5,4.32,8.34c1.34,2.84,2.59,5.72,3.7,8.67Z" fill="#baba00"/><path d="M905.92,766.46c-4.95-3.53-10.31-6.48-15.81-9.09-2.75-1.31-5.57-2.49-8.41-3.59-2.85-1.08-5.75-2.04-8.68-2.91-2.93-.85-5.91-1.55-8.91-2.14l-2.26-.4-2.27-.33c-.75-.12-1.52-.2-2.28-.28-.76-.07-1.52-.17-2.28-.21-3.05-.26-6.11-.26-9.16-.13-3.05.18-6.08.58-9.05,1.22c3.03-.25,6.05-.41,9.06-.34.75,0,1.51.05,2.26.08l1.13.05l1.13.09l2.25.18l2.24.25c2.98.4,5.96.83,8.89,1.5c2.94.63,5.87,1.33,8.75,2.2c5.79,1.66,11.46,3.73,17.02,6.06c5.56,2.35,11.04,4.92,16.38,7.82Z" fill="#baba00"/><path d="M903.24,770.34c-1.89.01-3.78.2-5.66.33-1.89.15-3.77.32-5.65.49-3.76.36-7.53.73-11.28,1.14-3.76.39-7.51.85-11.26,1.27l-11.25,1.39-11.24,1.49c-3.74.53-7.49,1.03-11.22,1.6-7.48,1.1-14.95,2.26-22.39,3.61c7.54-.61,15.06-1.39,22.57-2.23c3.76-.4,7.51-.87,11.26-1.3l11.25-1.4l11.24-1.48c3.74-.52,7.49-1.02,11.23-1.57c3.74-.53,7.48-1.09,11.21-1.65l5.6-.86l2.8-.43c.93-.14,1.87-.31,2.81-.39Z" fill="#baba00"/><path d="M905.02,772.42c-3.88,3.35-7.76,6.69-11.72,9.94-3.93,3.28-7.9,6.52-11.89,9.72-7.99,6.39-16.1,12.64-24.41,18.59-4.14,3-8.36,5.89-12.61,8.72-4.24,2.85-8.6,5.52-12.99,8.14-4.4,2.6-8.89,5.03-13.49,7.26-4.58,2.26-9.31,4.23-14.18,5.85l3.71-1.02c1.23-.38,2.43-.81,3.65-1.22.61-.2,1.21-.43,1.81-.66l1.8-.69c1.21-.44,2.38-.96,3.57-1.46c4.71-2.05,9.33-4.33,13.82-6.84c1.13-.6,2.24-1.26,3.36-1.9c1.11-.64,2.23-1.28,3.32-1.96l3.29-2.01l3.25-2.06c4.31-2.8,8.56-5.69,12.73-8.68c4.16-3.02,8.27-6.09,12.31-9.25c4.03-3.18,8.03-6.4,11.94-9.72c7.84-6.62,15.46-13.5,22.73-20.74Z" fill="#baba00"/></g></g></g></g></g></svg>