<?xml version="1.0" encoding="UTF-8"?> <svg xmlns="http://www.w3.org/2000/svg" width="373.81" height="149.81" viewBox="0 0 373.81 149.81"><defs><style>.a{fill:#bcd224;}.b{fill:#fff;}.c{fill:#88542c;}.d{fill:#381d0b;}</style></defs><title>Asset 2</title><path class="a" d="M50.66,30A29.16,29.16,0,0,1,76.32,45.21,78.62,78.62,0,0,1,84,41.11a38,38,0,0,0-66.8.06A81,81,0,0,1,25,45.28,29.11,29.11,0,0,1,50.66,30Z"></path><path class="a" d="M12.53,39.12a43.09,43.09,0,0,1,76.23,0c2.1-.85,3.92-1.5,5.31-2A45,45,0,0,0,76.39,13a46,46,0,0,0-51.46,0A45,45,0,0,0,7.23,37.15C8.63,37.63,10.45,38.28,12.53,39.12Z"></path><path class="a" d="M36.42,54.81a14.89,14.89,0,0,1,28.43-.14A39.91,39.91,0,0,1,72,48.05a24.11,24.11,0,0,0-42.81.09A39.49,39.49,0,0,1,36.42,54.81Z"></path><path class="b" d="M60.42,59.18a9.76,9.76,0,1,0-9.76,9.76A9.77,9.77,0,0,0,60.42,59.18Z"></path><path class="c" d="M19.13,61.22A5.34,5.34,0,0,1,26.33,60c2.39,1.57,5.76,3.68,9.92,6C34.37,53.19,13.82,44.88,6,42.16A47.58,47.58,0,0,0,6.38,62C9.77,76.46,20,104.37,50.66,130c3.52-3,6.76-5.92,9.77-8.9a158,158,0,0,1-21.83-9.32,5.06,5.06,0,0,1-2.09-6.94h0A153.21,153.21,0,0,0,64.41,117q2.81-3,5.29-6a148,148,0,0,1-25.89-9.52,5.06,5.06,0,0,1-2.33-6.87h0a144.24,144.24,0,0,0,31.74,12q2.55-3.35,4.74-6.61a137.35,137.35,0,0,1-28.87-9,5,5,0,0,1-2.56-6.77A135.17,135.17,0,0,0,81,95.27q2.22-3.63,4-7.1c-35.9-4.46-64.62-26-65.87-26.95Z"></path><path class="c" d="M94.94,62a47.65,47.65,0,0,0,.38-19.84C87.6,44.78,66.76,53.12,64.9,66c4.15-2.31,7.52-4.43,9.92-6A5.34,5.34,0,0,1,82,61.22h0A151.19,151.19,0,0,1,57.15,75.76a122.36,122.36,0,0,0,30.27,7.53A109.64,109.64,0,0,0,94.94,62Z"></path><path class="d" d="M79.26,8.74a51.16,51.16,0,0,0-57.2,0C4.81,20.39-3.5,42.24,1.38,63.12,5,78.52,16,108.37,49,135.28l1.62,1.32,1.62-1.32c33.07-26.91,44.05-56.76,47.65-72.16C104.82,42.24,96.51,20.39,79.26,8.74ZM81,95.27a135.17,135.17,0,0,1-34.43-11.1,5,5,0,0,0,2.56,6.77,137.35,137.35,0,0,0,28.87,9q-2.19,3.27-4.74,6.61a144.24,144.24,0,0,1-31.74-12h0a5.06,5.06,0,0,0,2.33,6.87A148,148,0,0,0,69.7,111q-2.49,3-5.29,6a153.21,153.21,0,0,1-27.9-12.15h0a5.06,5.06,0,0,0,2.09,6.94,158,158,0,0,0,21.83,9.32c-3,3-6.25,6-9.77,8.9C20,104.37,9.77,76.46,6.38,62A47.58,47.58,0,0,1,6,42.16c7.83,2.72,28.38,11,30.26,23.82-4.16-2.32-7.53-4.43-9.92-6a5.34,5.34,0,0,0-7.2,1.24h0c1.25,1,30,22.49,65.87,27Q83.18,91.64,81,95.27ZM24.93,13a46,46,0,0,1,51.46,0A45,45,0,0,1,94.07,37.1c-1.39.47-3.21,1.12-5.31,2a43.09,43.09,0,0,0-76.23,0c-2.08-.84-3.9-1.49-5.3-2A45,45,0,0,1,24.93,13ZM17.24,41.17A38,38,0,0,1,84,41.11a78.62,78.62,0,0,0-7.72,4.1A29.21,29.21,0,0,0,25,45.28,81,81,0,0,0,17.24,41.17Zm33.42-6.09A24.06,24.06,0,0,1,72,48.05a39.91,39.91,0,0,0-7.19,6.62,14.89,14.89,0,0,0-28.43.14,39.49,39.49,0,0,0-7.19-6.67A24,24,0,0,1,50.66,35.08ZM40.9,59.18a9.76,9.76,0,1,1,9.76,9.76A9.77,9.77,0,0,1,40.9,59.18ZM57.15,75.76A151.19,151.19,0,0,0,82,61.22h0A5.34,5.34,0,0,0,74.82,60c-2.4,1.58-5.77,3.7-9.92,6,1.86-12.88,22.7-21.22,30.42-23.89A47.65,47.65,0,0,1,94.94,62a109.64,109.64,0,0,1-7.52,21.34A122.36,122.36,0,0,1,57.15,75.76Z"></path><path class="d" d="M193.34,144.45a8.18,8.18,0,0,1-5,1.45,7.67,7.67,0,0,1-5.42-1.92,7.45,7.45,0,0,1,.09-10.42,8,8,0,0,1,5.51-2,8.84,8.84,0,0,1,4.06.87v3.17a8.12,8.12,0,0,0-4.06-1.13,4,4,0,0,0-4.26,4.26,4.26,4.26,0,0,0,1.13,3.11A4.14,4.14,0,0,0,188.5,143a6.18,6.18,0,0,0,1.75-.26v-2.62H188v-2.7h5.33Z"></path><path class="d" d="M198.18,145.73h-3l0-10.44h3v1.94a3,3,0,0,1,1-1.46,2.38,2.38,0,0,1,1.55-.54,3.16,3.16,0,0,1,.78.08v2.84a2.68,2.68,0,0,0-1.13-.22,1.91,1.91,0,0,0-1.56.71,2.81,2.81,0,0,0-.6,1.88Z"></path><path class="d" d="M211.91,140.46a5.68,5.68,0,0,1-1.35,3.9,4.7,4.7,0,0,1-3.75,1.54,4.83,4.83,0,0,1-3.79-1.48,5.36,5.36,0,0,1-1.34-3.78,5.72,5.72,0,0,1,1.4-4,5.37,5.37,0,0,1,7.5-.05A5.55,5.55,0,0,1,211.91,140.46Zm-6.61-2.12a4.27,4.27,0,0,0-.49,2.18,4.33,4.33,0,0,0,.5,2.19,1.66,1.66,0,0,0,1.52.86,1.58,1.58,0,0,0,1.47-.84,4.28,4.28,0,0,0,.48-2.17c0-2-.66-3.07-2-3.07A1.63,1.63,0,0,0,205.3,138.34Z"></path><path class="d" d="M218.57,145.73h-3.09l-3.36-10.44h3.11l.9,3.44c.22.86.41,1.64.56,2.34s.24,1.17.27,1.43l.06.39a29.23,29.23,0,0,1,1-4.16l1-3.44h2.59l1,3.44c.25.88.45,1.66.62,2.36s.27,1.17.31,1.43l.06.37a32.8,32.8,0,0,1,1-4.16l1-3.44h3l-3.34,10.44h-3.08l-.91-3.42c-.19-.74-.36-1.43-.5-2.08s-.24-1.1-.28-1.38l-.06-.41a39.36,39.36,0,0,1-.87,3.87Z"></path><path class="d" d="M239.08,145.73H236l-3.36-10.44h3.11l.9,3.44c.22.86.41,1.64.56,2.34s.24,1.17.27,1.43l.06.39a29.23,29.23,0,0,1,1-4.16l1-3.44h2.59l1,3.44c.25.88.46,1.66.62,2.36s.27,1.17.31,1.43l.06.37a32.8,32.8,0,0,1,1-4.16l1-3.44h3l-3.33,10.44H242.6l-.91-3.42c-.19-.74-.36-1.43-.5-2.08s-.24-1.1-.28-1.38l-.06-.41a39.36,39.36,0,0,1-.87,3.87Z"></path><path class="d" d="M259.32,145.73h-3v-6.18a2.1,2.1,0,0,0-.45-1.42,1.51,1.51,0,0,0-1.18-.51,1.85,1.85,0,0,0-.58.09,2.18,2.18,0,0,0-.61.33,1.71,1.71,0,0,0-.54.8,4.26,4.26,0,0,0-.2,1.37v5.52h-3V131.17h3v5.89a3.07,3.07,0,0,1,3.13-1.87,3.33,3.33,0,0,1,2.48,1,4,4,0,0,1,1,2.92Z"></path><path class="d" d="M269.26,145.13a6,6,0,0,1-3.27.7,5,5,0,0,1-5.44-5.33,5.34,5.34,0,0,1,1.39-3.9,4.63,4.63,0,0,1,3.43-1.41,4.49,4.49,0,0,1,3.32,1.22,5,5,0,0,1,1.21,3.66,13.23,13.23,0,0,1-.16,1.63H263.6a2.52,2.52,0,0,0,1.07,1.33,3.37,3.37,0,0,0,1.83.48,4.45,4.45,0,0,0,2.76-.89Zm-3.76-7.66a1.8,1.8,0,0,0-1.28.53,2.73,2.73,0,0,0-.74,1.55h3.62v-.24C267,138.09,266.47,137.47,265.5,137.47Z"></path><path class="d" d="M274.41,145.73h-3l0-10.44h3v1.94a3,3,0,0,1,1-1.46,2.38,2.38,0,0,1,1.55-.54,3.31,3.31,0,0,1,.79.08v2.84a2.73,2.73,0,0,0-1.14-.22,1.93,1.93,0,0,0-1.56.71,2.81,2.81,0,0,0-.6,1.88Z"></path><path class="d" d="M286.62,145.13a6,6,0,0,1-3.27.7,5,5,0,0,1-5.44-5.33,5.34,5.34,0,0,1,1.39-3.9,4.63,4.63,0,0,1,3.43-1.41,4.49,4.49,0,0,1,3.32,1.22,5,5,0,0,1,1.21,3.66,13.23,13.23,0,0,1-.16,1.63H281A2.52,2.52,0,0,0,282,143a3.37,3.37,0,0,0,1.83.48,4.45,4.45,0,0,0,2.76-.89Zm-3.77-7.66a1.8,1.8,0,0,0-1.27.53,2.73,2.73,0,0,0-.74,1.55h3.62v-.24C284.36,138.09,283.83,137.47,282.85,137.47Z"></path><path class="d" d="M299.16,145.42c-1.08,2.93-2.74,4.39-5,4.39a6.66,6.66,0,0,1-1.15-.1v-2.39a3.13,3.13,0,0,0,.7.08,2.57,2.57,0,0,0,2.47-1.83l-4-10.28h3.28l1.13,3.25c.29.84.53,1.56.71,2.17s.3,1,.34,1.19l.06.29c.15-.55.52-1.76,1.11-3.65l1-3.25h3.09Z"></path><path class="d" d="M313.37,140.46a5.68,5.68,0,0,1-1.35,3.9,4.71,4.71,0,0,1-3.75,1.54,4.83,4.83,0,0,1-3.79-1.48,5.36,5.36,0,0,1-1.34-3.78,5.67,5.67,0,0,1,1.4-4,5.36,5.36,0,0,1,7.49-.05A5.51,5.51,0,0,1,313.37,140.46Zm-6.61-2.12a4.27,4.27,0,0,0-.49,2.18,4.33,4.33,0,0,0,.5,2.19,1.66,1.66,0,0,0,1.52.86,1.58,1.58,0,0,0,1.47-.84,4.28,4.28,0,0,0,.48-2.17c0-2-.66-3.07-2-3.07A1.63,1.63,0,0,0,306.76,138.34Z"></path><path class="d" d="M324.18,145.73h-3v-1.67a3.17,3.17,0,0,1-3.18,1.75,3.41,3.41,0,0,1-2.5-.89,3.63,3.63,0,0,1-.89-2.65v-7h3v6.3c0,1.22.54,1.84,1.61,1.84,1.3,0,2-.88,2-2.62v-5.52h3Z"></path><path class="d" d="M328,136.81h-2.59l2.08-5.37h3.31Z"></path><path class="d" d="M333.9,145.73h-3l0-10.44h3v1.94a3,3,0,0,1,1-1.46,2.4,2.4,0,0,1,1.55-.54,3.31,3.31,0,0,1,.79.08v2.84a2.73,2.73,0,0,0-1.14-.22,1.93,1.93,0,0,0-1.56.71,2.81,2.81,0,0,0-.6,1.88Z"></path><path class="d" d="M346.11,145.13a6,6,0,0,1-3.27.7,5,5,0,0,1-5.44-5.33,5.34,5.34,0,0,1,1.39-3.9,4.63,4.63,0,0,1,3.43-1.41,4.49,4.49,0,0,1,3.32,1.22,5,5,0,0,1,1.21,3.66,13.23,13.23,0,0,1-.16,1.63h-6.14a2.52,2.52,0,0,0,1.07,1.33,3.37,3.37,0,0,0,1.83.48,4.45,4.45,0,0,0,2.76-.89Zm-3.76-7.66a1.8,1.8,0,0,0-1.28.53,2.73,2.73,0,0,0-.74,1.55H344v-.24C343.86,138.09,343.32,137.47,342.35,137.47Z"></path><path class="d" d="M358.12,144.45a2.61,2.61,0,0,1-2.6,1.34,3.21,3.21,0,0,1-2.37-.86,3,3,0,0,1-.86-2.16,2.76,2.76,0,0,1,1.1-2.34,5.36,5.36,0,0,1,3.27-.84H358v-.72c0-.87-.58-1.31-1.75-1.31a5.6,5.6,0,0,0-3.13.94v-2.69a7.33,7.33,0,0,1,3.57-.7,4.9,4.9,0,0,1,3.31.95,3.75,3.75,0,0,1,1.09,3v6.69h-2.94Zm-1.48-.78a1.24,1.24,0,0,0,1-.39,1.52,1.52,0,0,0,.35-1.07v-.76h-1a1.86,1.86,0,0,0-1.18.33,1,1,0,0,0-.41.84C355.42,143.32,355.83,143.67,356.64,143.67Z"></path><path class="d" d="M368.91,145.5a5.13,5.13,0,0,1-2.06.33c-2.38,0-3.56-1.18-3.56-3.56v-4.78h-1.51v-2.2h1.51v-2.47h3v2.47h2.43v2.2h-2.43v4.8a1.12,1.12,0,0,0,.32.85,1.22,1.22,0,0,0,.84.29,2.6,2.6,0,0,0,1.46-.42Z"></path><path class="a" d="M373.27,142.77a1.74,1.74,0,0,1,.54,1.29,1.77,1.77,0,0,1-.54,1.3,1.74,1.74,0,0,1-1.29.54,1.84,1.84,0,0,1-1.84-1.84,1.74,1.74,0,0,1,.54-1.29,1.77,1.77,0,0,1,1.3-.54A1.74,1.74,0,0,1,373.27,142.77Z"></path><path class="d" d="M135.63,65.05H131.3V77.17h-8.56V39.71h12.89a14.43,14.43,0,0,1,10.09,3.5,11.45,11.45,0,0,1,3.86,8.89q0,6.18-4,9.56A14.87,14.87,0,0,1,135.63,65.05Zm-1-18.51H131.3V58.27h2.83q6.78,0,6.78-6.17C140.91,48.4,138.82,46.54,134.63,46.54Z"></path><path class="d" d="M171.48,77.17H152.36V39.71h8.56v30H174Z"></path><path class="d" d="M184.43,77.17h-9L188,39.71h10.78l12.51,37.46h-9.17l-2.28-7.67H186.71Zm4.73-15.9-.39,1.34h9l-.39-1.34q-1.6-5.44-2.64-9.28c-.68-2.56-1.1-4.2-1.25-5l-.22-1.11Q192.82,49,189.16,61.27Z"></path><path class="d" d="M223.06,77.17H214.5V39.71h9.4l8.72,15.51c1.23,2.18,2.29,4.23,3.2,6.14a41.91,41.91,0,0,1,1.75,4l.45,1.22a88.12,88.12,0,0,1-.56-11.39V39.71H246V77.17h-9.39l-8.95-15.51a64.33,64.33,0,0,1-3.14-5.92c-.91-1.94-1.53-3.38-1.87-4.3l-.44-1.39a70.86,70.86,0,0,1,.83,11.61Z"></path><path class="d" d="M276.53,46.6h-9.11V77.17H258.8V46.6h-9.17V39.71h26.9Z"></path><path class="d" d="M303.44,77.17H280.15V39.71h23.06v6.83H288.76v8.51h12.9v6.78h-12.9v8.5h14.68Z"></path><path class="d" d="M319.5,77.17H306.72V39.71h12.89q8.44,0,13.84,5.19a17.26,17.26,0,0,1,5.39,12.93q0,9-5.31,14.17T319.5,77.17Zm-.17-30.4H315.5v23.4h3.89q5.16,0,8-3.23c1.88-2.15,2.81-5.18,2.81-9.11a11.26,11.26,0,0,0-2.83-8Q324.51,46.77,319.33,46.77Z"></path><path class="d" d="M131.3,120.17h-8.56V82.71h13q6.28,0,10.09,3.33a11,11,0,0,1,3.8,8.67q0,8-6.83,11.06l9.5,14.4H142l-8.11-13H131.3Zm4.22-30.51H131.3v10.56h4q5.57,0,5.56-5.45A4.92,4.92,0,0,0,139.47,91,5.53,5.53,0,0,0,135.52,89.66Z"></path><path class="d" d="M178.49,120.17H155.2V82.71h23.06v6.83H163.81v8.51h12.9v6.78h-12.9v8.5h14.68Z"></path><path class="d" d="M209.45,118.5q-3.39,2.11-9.78,2.12a19.07,19.07,0,0,1-13.76-5.31,18.22,18.22,0,0,1-5.53-13.76q0-8.56,5.36-14t14-5.39q6.34,0,9.73,2.11v8.23A17.37,17.37,0,0,0,200.17,90a10.12,10.12,0,0,0-7.56,3.14,11.54,11.54,0,0,0-3.06,8.42,11,11,0,0,0,3.06,8.2,10.72,10.72,0,0,0,7.89,3,15,15,0,0,0,8.95-2.67Z"></path><path class="d" d="M248.25,101.33q0,8.61-5,13.92T230,120.56q-8.32,0-13.28-5.28t-4.95-14q0-8.62,5-13.93T230,82.1q8.34,0,13.29,5.28T248.25,101.33ZM223.4,93Q221,96.05,221,101.33t2.45,8.36a8.63,8.63,0,0,0,13.23,0q2.44-3.07,2.44-8.36T236.63,93a8.64,8.64,0,0,0-13.23,0Z"></path><path class="d" d="M269.76,120.17h-9.45L247.86,82.71h9.22l4.5,15c.82,2.67,1.52,5.23,2.12,7.7s1,4.25,1.16,5.36l.28,1.72a112.87,112.87,0,0,1,3.61-14.78l4.51-15h9.11Z"></path><path class="d" d="M308.66,120.17H285.37V82.71h23.07v6.83H294v8.51h12.9v6.78H294v8.5h14.67Z"></path><path class="d" d="M322.5,120.17h-8.56V82.71h12.95q6.28,0,10.09,3.33a11,11,0,0,1,3.81,8.67q0,8-6.84,11.06l9.51,14.4H333.23l-8.11-13H322.5Zm4.23-30.51H322.5v10.56h4.06q5.56,0,5.56-5.45A4.89,4.89,0,0,0,330.67,91,5.49,5.49,0,0,0,326.73,89.66Z"></path><path class="d" d="M360.86,120.17H352.3V106.44L339.51,82.71h10l2.28,5.45C353,91,354,93.38,354.74,95.38l1.51,3.89.27.89q.56-2.5,4.89-12l2.45-5.45h9.95l-12.95,23.68Z"></path></svg> 